AnekTamil-CondensedExtraLight.ufo
<glyph name="exclam" format="2">
  <advance width="324.755"/>
  <unicode hex="0021"/>
  <outline>
    <contour>
      <point x="191.32" y="363.89000000000004" type="line"/>
      <point x="201.825" y="1278.0" type="line"/>
      <point x="122.93" y="1278.0" type="line"/>
      <point x="133.435" y="363.89000000000004" type="line"/>
    </contour>
    <contour>
      <point x="162.54" y="-11.385" type="curve" smooth="yes"/>
      <point x="195.405" y="-11.385"/>
      <point x="209.76500000000001" y="13.24"/>
      <point x="209.76500000000001" y="64.045" type="curve" smooth="yes"/>
      <point x="209.76500000000001" y="80.31" type="line" smooth="yes"/>
      <point x="209.76500000000001" y="130.115"/>
      <point x="195.405" y="155.47500000000002"/>
      <point x="162.54" y="155.47500000000002" type="curve" smooth="yes"/>
      <point x="128.88000000000002" y="155.47500000000002"/>
      <point x="116.05" y="130.115"/>
      <point x="116.05" y="80.31" type="curve" smooth="yes"/>
      <point x="116.05" y="64.045" type="line" smooth="yes"/>
      <point x="116.05" y="13.24"/>
      <point x="128.88000000000002" y="-11.385"/>
    </contour>
  </outline>
</glyph>
<glyph name="numbersign" format="2">
  <advance width="793.3449999999999"/>
  <unicode hex="0023"/>
  <outline>
    <contour>
      <point x="164.135" y="0.0" type="line"/>
      <point x="226.16500000000002" y="0.0" type="line"/>
      <point x="323.995" y="1278.0" type="line"/>
      <point x="261.96500000000003" y="1278.0" type="line"/>
    </contour>
    <contour>
      <point x="49.35" y="381.835" type="line"/>
      <point x="706.1999999999999" y="381.835" type="line"/>
      <point x="706.1999999999999" y="439.07" type="line"/>
      <point x="49.35" y="439.07" type="line"/>
    </contour>
    <contour>
      <point x="469.61499999999995" y="0.0" type="line"/>
      <point x="531.645" y="0.0" type="line"/>
      <point x="629.2099999999999" y="1278.0" type="line"/>
      <point x="567.18" y="1278.0" type="line"/>
    </contour>
    <contour>
      <point x="87.675" y="848.605" type="line"/>
      <point x="743.995" y="848.605" type="line"/>
      <point x="743.995" y="906.575" type="line"/>
      <point x="87.675" y="906.575" type="line"/>
    </contour>
  </outline>
</glyph>
<glyph name="dollar" format="2">
  <advance width="550.705"/>
  <unicode hex="0024"/>
  <anchor x="261.25" y="0.0" name="bottom"/>
  <anchor x="261.25" y="1278.0" name="top"/>
  <outline>
    <contour>
      <point x="303.55999999999995" y="1257.3300000000002" type="line"/>
      <point x="303.55999999999995" y="1451.3500000000001" type="line"/>
      <point x="237.555" y="1451.3500000000001" type="line"/>
      <point x="237.555" y="1257.3300000000002" type="line"/>
    </contour>
    <contour>
      <point x="303.55999999999995" y="-182.35" type="line"/>
      <point x="303.55999999999995" y="16.915000000000006" type="line"/>
      <point x="237.555" y="16.915000000000006" type="line"/>
      <point x="237.555" y="-182.35" type="line"/>
    </contour>
    <component base="S"/>
  </outline>
</glyph>
<glyph name="percent" format="2">
  <advance width="1010.52"/>
  <unicode hex="0025"/>
  <outline>
    <contour>
      <point x="231.79500000000002" y="0.0" type="line"/>
      <point x="297.53499999999997" y="0.0" type="line"/>
      <point x="778.725" y="1278.0" type="line"/>
      <point x="713.515" y="1278.0" type="line"/>
    </contour>
    <contour>
      <point x="756.895" y="-16.855" type="curve" smooth="yes"/>
      <point x="871.29" y="-16.855"/>
      <point x="927.8549999999999" y="57.385"/>
      <point x="927.8549999999999" y="188.865" type="curve" smooth="yes"/>
      <point x="927.8549999999999" y="406.76" type="line" smooth="yes"/>
      <point x="927.8549999999999" y="538.9749999999999"/>
      <point x="871.2899999999998" y="613.215"/>
      <point x="756.895" y="613.215" type="curve" smooth="yes"/>
      <point x="642.5" y="613.215"/>
      <point x="585.465" y="538.975"/>
      <point x="585.465" y="406.76" type="curve" smooth="yes"/>
      <point x="585.465" y="188.865" type="line" smooth="yes"/>
      <point x="585.465" y="57.385"/>
      <point x="642.5" y="-16.855"/>
    </contour>
    <contour>
      <point x="756.895" y="39.525" type="curve" smooth="yes"/>
      <point x="684.375" y="39.525"/>
      <point x="650.41" y="87.755"/>
      <point x="650.41" y="186.01000000000002" type="curve" smooth="yes"/>
      <point x="650.41" y="410.08500000000004" type="line" smooth="yes"/>
      <point x="650.41" y="508.60499999999996"/>
      <point x="684.375" y="556.8349999999999"/>
      <point x="756.895" y="556.8349999999999" type="curve" smooth="yes"/>
      <point x="829.415" y="556.8349999999999"/>
      <point x="862.6450000000001" y="508.60499999999996"/>
      <point x="862.6450000000001" y="410.08500000000004" type="curve" smooth="yes"/>
      <point x="862.6450000000001" y="186.01000000000002" type="line" smooth="yes"/>
      <point x="862.6450000000001" y="87.755"/>
      <point x="829.415" y="39.525"/>
    </contour>
    <contour>
      <point x="254.35999999999999" y="664.255" type="curve" smooth="yes"/>
      <point x="368.755" y="664.255"/>
      <point x="425.05499999999995" y="738.495"/>
      <point x="425.05499999999995" y="869.71" type="curve" smooth="yes"/>
      <point x="425.05499999999995" y="1087.87" type="line" smooth="yes"/>
      <point x="425.05499999999995" y="1218.8200000000002"/>
      <point x="368.75500000000005" y="1293.06"/>
      <point x="254.35999999999999" y="1293.06" type="curve" smooth="yes"/>
      <point x="139.70000000000002" y="1293.06"/>
      <point x="82.66499999999999" y="1218.8200000000002"/>
      <point x="82.66499999999999" y="1087.87" type="curve" smooth="yes"/>
      <point x="82.66499999999999" y="869.71" type="line" smooth="yes"/>
      <point x="82.66499999999999" y="738.495"/>
      <point x="139.70000000000002" y="664.255"/>
    </contour>
    <contour>
      <point x="254.35999999999999" y="719.9000000000001" type="curve" smooth="yes"/>
      <point x="181.84" y="719.9000000000001"/>
      <point x="147.875" y="767.865"/>
      <point x="147.875" y="866.3850000000001" type="curve" smooth="yes"/>
      <point x="147.875" y="1091.195" type="line" smooth="yes"/>
      <point x="147.875" y="1188.715"/>
      <point x="181.84" y="1237.6799999999998"/>
      <point x="254.35999999999999" y="1237.6799999999998" type="curve" smooth="yes"/>
      <point x="326.61499999999995" y="1237.6799999999998"/>
      <point x="359.84499999999997" y="1188.715"/>
      <point x="359.84499999999997" y="1091.195" type="curve" smooth="yes"/>
      <point x="359.84499999999997" y="866.3850000000001" type="line" smooth="yes"/>
      <point x="359.84499999999997" y="767.865"/>
      <point x="326.615" y="719.9000000000001"/>
    </contour>
  </outline>
</glyph>
<glyph name="ampersand" format="2">
  <advance width="713.555"/>
  <unicode hex="0026"/>
  <outline>
    <contour>
      <point x="651.515" y="0.0" type="curve"/>
      <point x="730.8199999999999" y="0.0" type="line"/>
      <point x="730.8199999999999" y="4.385" type="line"/>
      <point x="693.28" y="67.755"/>
      <point x="591.93" y="236.275"/>
      <point x="551.51" y="302.405" type="curve"/>
      <point x="535.475" y="328.355" type="line"/>
      <point x="262.15999999999997" y="773.8299999999999" type="line" smooth="yes"/>
      <point x="209.835" y="858.8299999999999"/>
      <point x="191.10000000000002" y="919.71"/>
      <point x="191.10000000000002" y="1009.495" type="curve" smooth="yes"/>
      <point x="191.10000000000002" y="1022.8450000000001" type="line" smooth="yes"/>
      <point x="191.10000000000002" y="1152.235"/>
      <point x="232.83499999999998" y="1223.6100000000001"/>
      <point x="340.475" y="1223.6100000000001" type="curve" smooth="yes"/>
      <point x="410.21000000000004" y="1223.6100000000001"/>
      <point x="461.73999999999995" y="1196.6699999999998"/>
      <point x="508.68000000000006" y="1157.85" type="curve"/>
      <point x="501.62" y="1232.71" type="line"/>
      <point x="463.29499999999996" y="1267.12"/>
      <point x="406.115" y="1294.06"/>
      <point x="331.61" y="1294.06" type="curve" smooth="yes"/>
      <point x="182.335" y="1294.06"/>
      <point x="114.47000000000001" y="1195.085"/>
      <point x="114.47000000000001" y="1024.4350000000002" type="curve" smooth="yes"/>
      <point x="114.47000000000001" y="1011.5550000000001" type="line" smooth="yes"/>
      <point x="114.47000000000001" y="906.7"/>
      <point x="140.18" y="831.7"/>
      <point x="195.89000000000001" y="744.255" type="curve"/>
      <point x="211.45499999999998" y="720.04" type="line"/>
      <point x="501.45500000000004" y="250.35" type="line"/>
      <point x="513.5150000000001" y="230.555" type="line"/>
      <point x="529.02" y="206.195"/>
      <point x="635.4799999999999" y="26.685000000000002"/>
    </contour>
    <contour>
      <point x="302.43" y="-16.06" type="curve" smooth="yes"/>
      <point x="441.945" y="-16.06"/>
      <point x="505.74" y="68.82000000000001"/>
      <point x="548.69" y="239.93" type="curve"/>
      <point x="559.64" y="258.855" type="line"/>
      <point x="595.505" y="398.445"/>
      <point x="619.8900000000001" y="588.5649999999999"/>
      <point x="628.6250000000001" y="829.5300000000001" type="curve"/>
      <point x="554.055" y="829.5300000000001" type="line"/>
      <point x="545.38" y="621.8050000000001"/>
      <point x="532.4399999999999" y="453.34499999999997"/>
      <point x="509.055" y="320.78999999999996" type="curve"/>
      <point x="496.37000000000006" y="284.155" type="line"/>
      <point x="462.30999999999995" y="127.44000000000001"/>
      <point x="411.37" y="51.21"/>
      <point x="307.67" y="51.21" type="curve" smooth="yes"/>
      <point x="200.825" y="51.21"/>
      <point x="150.00500000000002" y="119.03000000000002"/>
      <point x="150.00500000000002" y="270.43" type="curve" smooth="yes"/>
      <point x="150.00500000000002" y="454.96500000000003" type="line" smooth="yes"/>
      <point x="150.00500000000002" y="564.5450000000001"/>
      <point x="174.765" y="639.0649999999999"/>
      <point x="247.67000000000002" y="698.09" type="curve"/>
      <point x="206.85500000000002" y="755.325" type="line"/>
      <point x="100.205" y="672.53"/>
      <point x="74.17" y="569.915"/>
      <point x="74.17" y="447.785" type="curve" smooth="yes"/>
      <point x="74.17" y="268.31" type="line" smooth="yes"/>
      <point x="74.17" y="79.3"/>
      <point x="146.06" y="-16.06"/>
    </contour>
  </outline>
</glyph>
<glyph name="quotesingle" format="2">
  <advance width="227.05500000000004"/>
  <unicode hex="0027"/>
  <outline>
    <contour>
      <point x="142.97" y="907.28" type="line"/>
      <point x="150.88500000000002" y="1332.675" type="line"/>
      <point x="76.17" y="1332.675" type="line"/>
      <point x="84.34999999999998" y="907.28" type="line"/>
    </contour>
  </outline>
</glyph>
<glyph name="parenleft" format="2">
  <advance width="363.5849999999999"/>
  <unicode hex="0028"/>
  <outline>
    <contour>
      <point x="185.235" y="700.365" type="line" smooth="yes"/>
      <point x="185.235" y="989.075"/>
      <point x="209.8" y="1159.025"/>
      <point x="329.415" y="1352.0" type="curve"/>
      <point x="250.96499999999997" y="1352.0" type="line"/>
      <point x="140.35" y="1172.675"/>
      <point x="113.31499999999998" y="1005.4"/>
      <point x="113.31499999999998" y="705.895" type="curve" smooth="yes"/>
      <point x="113.31499999999998" y="405.105" type="line" smooth="yes"/>
      <point x="113.31499999999998" y="106.60000000000001"/>
      <point x="140.35" y="-61.41"/>
      <point x="250.96500000000003" y="-240.735" type="curve"/>
      <point x="329.415" y="-240.735" type="line"/>
      <point x="209.8" y="-48.29"/>
      <point x="185.235" y="121.66"/>
      <point x="185.235" y="411.635" type="curve" smooth="yes"/>
    </contour>
  </outline>
</glyph>
<glyph name="parenright" format="2">
  <advance width="363.58500000000004"/>
  <unicode hex="0029"/>
  <outline>
    <contour>
      <point x="178.35" y="700.365" type="curve" smooth="yes"/>
      <point x="178.35" y="411.635" type="line" smooth="yes"/>
      <point x="178.35" y="121.66"/>
      <point x="153.785" y="-48.29"/>
      <point x="34.17" y="-240.735" type="curve"/>
      <point x="112.62000000000002" y="-240.735" type="line"/>
      <point x="223.235" y="-61.41"/>
      <point x="250.26999999999998" y="106.60000000000001"/>
      <point x="250.26999999999998" y="405.105" type="curve" smooth="yes"/>
      <point x="250.26999999999998" y="705.895" type="line" smooth="yes"/>
      <point x="250.26999999999998" y="1005.4"/>
      <point x="223.23499999999999" y="1172.675"/>
      <point x="112.61999999999999" y="1352.0" type="curve"/>
      <point x="34.17" y="1352.0" type="line"/>
      <point x="153.785" y="1159.025"/>
      <point x="178.35" y="989.075"/>
    </contour>
  </outline>
</glyph>
<glyph name="asterisk" format="2">
  <advance width="608.155"/>
  <unicode hex="002A"/>
  <outline>
    <contour>
      <point x="170.19" y="755.8349999999999" type="line"/>
      <point x="304.385" y="962.645" type="line"/>
      <point x="302.505" y="962.645" type="line"/>
      <point x="436.7" y="755.8349999999999" type="line"/>
      <point x="492.22499999999997" y="790.1450000000001" type="line"/>
      <point x="343.64500000000004" y="993.895" type="line"/>
      <point x="340.96999999999997" y="988.34" type="line"/>
      <point x="559.865" y="1046.98" type="line"/>
      <point x="544.3000000000001" y="1109.7450000000001" type="line"/>
      <point x="325.285" y="1037.925" type="line"/>
      <point x="330.635" y="1033.31" type="line"/>
      <point x="337.54999999999995" y="1278.0" type="line"/>
      <point x="270.605" y="1278.0" type="line"/>
      <point x="276.52" y="1033.31" type="line"/>
      <point x="281.87" y="1037.925" type="line"/>
      <point x="62.855" y="1109.7450000000001" type="line"/>
      <point x="48.28999999999999" y="1046.98" type="line"/>
      <point x="266.185" y="988.34" type="line"/>
      <point x="264.245" y="993.895" type="line"/>
      <point x="114.92999999999999" y="790.1450000000001" type="line"/>
    </contour>
  </outline>
</glyph>
<glyph name="plus" format="2">
  <advance width="624.43"/>
  <unicode hex="002B"/>
  <outline>
    <contour>
      <point x="345.32000000000005" y="315.615" type="line"/>
      <point x="345.32000000000005" y="957.385" type="line"/>
      <point x="279.845" y="957.385" type="line"/>
      <point x="279.845" y="315.615" type="line"/>
    </contour>
    <contour>
      <point x="59.940000000000005" y="605.16" type="line"/>
      <point x="564.49" y="605.16" type="line"/>
      <point x="564.49" y="667.84" type="line"/>
      <point x="59.940000000000005" y="667.84" type="line"/>
    </contour>
  </outline>
</glyph>
<glyph name="comma" format="2">
  <advance width="238.765"/>
  <unicode hex="002C"/>
  <outline>
    <contour>
      <point x="155.74" y="224.815" type="curve"/>
      <point x="84.55499999999999" y="224.815" type="line"/>
      <point x="89.29" y="185.96"/>
      <point x="92.75999999999999" y="146.225"/>
      <point x="92.75999999999999" y="105.9" type="curve" smooth="yes"/>
      <point x="92.75999999999999" y="-24.545"/>
      <point x="61.495" y="-133.34"/>
      <point x="8.024999999999997" y="-226.66500000000002" type="curve"/>
      <point x="53.79" y="-256.64" type="line"/>
      <point x="132.355" y="-145.725"/>
      <point x="164.73999999999998" y="-29.015"/>
      <point x="164.73999999999998" y="107.75500000000001" type="curve" smooth="yes"/>
      <point x="164.73999999999998" y="157.225"/>
      <point x="159.005" y="204.16500000000002"/>
    </contour>
  </outline>
</glyph>
<glyph name="hyphen" format="2">
  <advance width="577.41"/>
  <unicode hex="002D"/>
  <outline>
    <contour>
      <point x="104.63999999999999" y="500.595" type="line"/>
      <point x="472.77" y="500.595" type="line"/>
      <point x="472.77" y="563.805" type="line"/>
      <point x="104.63999999999999" y="563.805" type="line"/>
    </contour>
  </outline>
</glyph>
<glyph name="period" format="2">
  <advance width="222.29499999999996"/>
  <unicode hex="002E"/>
  <outline>
    <contour>
      <point x="110.78" y="-11.385" type="curve" smooth="yes"/>
      <point x="143.64499999999998" y="-11.385"/>
      <point x="158.00500000000002" y="13.24"/>
      <point x="158.00500000000002" y="64.045" type="curve" smooth="yes"/>
      <point x="158.00500000000002" y="81.78" type="line" smooth="yes"/>
      <point x="158.00500000000002" y="131.585"/>
      <point x="143.64499999999998" y="156.94500000000002"/>
      <point x="110.78" y="156.94500000000002" type="curve" smooth="yes"/>
      <point x="77.12" y="156.94500000000002"/>
      <point x="64.28999999999999" y="131.585"/>
      <point x="64.28999999999999" y="81.78" type="curve" smooth="yes"/>
      <point x="64.28999999999999" y="64.045" type="line" smooth="yes"/>
      <point x="64.28999999999999" y="13.24"/>
      <point x="77.12" y="-11.385"/>
    </contour>
  </outline>
</glyph>
<glyph name="slash" format="2">
  <advance width="476.525"/>
  <unicode hex="002F"/>
  <outline>
    <contour>
      <point x="43.375" y="-240.73499999999999" type="line"/>
      <point x="112.23500000000001" y="-240.73499999999999" type="line"/>
      <point x="433.15" y="1352.0" type="line"/>
      <point x="364.55499999999995" y="1352.0" type="line"/>
    </contour>
  </outline>
</glyph>
<glyph name="zero" format="2">
  <advance width="656.1600000000001"/>
  <unicode hex="0030"/>
  <outline>
    <contour>
      <point x="328.08" y="-16.060000000000002" type="curve" smooth="yes"/>
      <point x="484.51" y="-16.060000000000002"/>
      <point x="560.255" y="81.625"/>
      <point x="560.255" y="274.465" type="curve"/>
      <point x="560.255" y="1002.8" type="line"/>
      <point x="560.255" y="1196.375"/>
      <point x="484.51" y="1294.06"/>
      <point x="328.08" y="1294.06" type="curve" smooth="yes"/>
      <point x="171.38500000000002" y="1294.06"/>
      <point x="95.905" y="1196.375"/>
      <point x="95.905" y="1002.8" type="curve"/>
      <point x="95.905" y="274.465" type="line"/>
      <point x="95.905" y="81.625"/>
      <point x="171.385" y="-16.060000000000002"/>
    </contour>
    <contour>
      <point x="328.08" y="49.945" type="curve" smooth="yes"/>
      <point x="220.765" y="49.945"/>
      <point x="171.535" y="123.91"/>
      <point x="171.535" y="269.28499999999997" type="curve" smooth="yes"/>
      <point x="171.535" y="1008.98" type="line" smooth="yes"/>
      <point x="171.535" y="1154.0900000000001"/>
      <point x="220.765" y="1228.32"/>
      <point x="328.08" y="1228.32" type="curve" smooth="yes"/>
      <point x="435.395" y="1228.32"/>
      <point x="484.62500000000006" y="1154.0900000000001"/>
      <point x="484.62500000000006" y="1008.98" type="curve" smooth="yes"/>
      <point x="484.62500000000006" y="269.28499999999997" type="line" smooth="yes"/>
      <point x="484.62500000000006" y="123.91"/>
      <point x="435.395" y="49.945"/>
    </contour>
  </outline>
</glyph>
<glyph name="one" format="2">
  <advance width="430.43999999999994"/>
  <unicode hex="0031"/>
  <outline>
    <contour>
      <point x="243.7" y="0.0" type="line"/>
      <point x="318.535" y="0.0" type="line"/>
      <point x="318.535" y="1278.0" type="line"/>
      <point x="226.50499999999997" y="1278.0" type="line"/>
      <point x="26.674999999999997" y="1074.335" type="line"/>
      <point x="26.675000000000004" y="986.44" type="line"/>
      <point x="233.90500000000003" y="1197.83" type="line"/>
      <point x="243.7" y="1197.83" type="line"/>
    </contour>
  </outline>
</glyph>
<glyph name="two" format="2">
  <advance width="515.415"/>
  <unicode hex="0032"/>
  <outline>
    <contour>
      <point x="47.88" y="0.0" type="line"/>
      <point x="455.39" y="0.0" type="line"/>
      <point x="455.39" y="67.39" type="line"/>
      <point x="90.81500000000001" y="67.39" type="line"/>
      <point x="120.775" y="43.269999999999996" type="line"/>
      <point x="120.775" y="73.92" type="line"/>
      <point x="278.8" y="420.07" type="line" smooth="yes"/>
      <point x="390.27000000000004" y="663.88"/>
      <point x="446.185" y="787.82"/>
      <point x="446.185" y="956.6999999999999" type="curve" smooth="yes"/>
      <point x="446.185" y="1009.545" type="line" smooth="yes"/>
      <point x="446.185" y="1191.17"/>
      <point x="379.96999999999997" y="1293.7949999999998"/>
      <point x="231.13" y="1293.7949999999998" type="curve" smooth="yes"/>
      <point x="154.15500000000003" y="1293.7949999999998"/>
      <point x="94.18" y="1260.5900000000001"/>
      <point x="58.795" y="1230.3249999999998" type="curve"/>
      <point x="51.205000000000005" y="1155.2" type="line"/>
      <point x="100.67500000000001" y="1194.61"/>
      <point x="150.265" y="1223.875"/>
      <point x="219.79500000000002" y="1223.875" type="curve" smooth="yes"/>
      <point x="325.34999999999997" y="1223.875"/>
      <point x="370.82" y="1146.705"/>
      <point x="370.82" y="1004.245" type="curve" smooth="yes"/>
      <point x="370.82" y="950.135" type="line" smooth="yes"/>
      <point x="370.82" y="810.53"/>
      <point x="325.05999999999995" y="691.5400000000001"/>
      <point x="218.77000000000004" y="454.415" type="curve" smooth="yes"/>
      <point x="47.88" y="76.775" type="line"/>
    </contour>
  </outline>
</glyph>
<glyph name="three" format="2">
  <advance width="533.2950000000001"/>
  <unicode hex="0033"/>
  <outline>
    <contour>
      <point x="225.865" y="-15.795" type="curve" smooth="yes"/>
      <point x="392.44000000000005" y="-15.795"/>
      <point x="459.12500000000006" y="92.035"/>
      <point x="459.12500000000006" y="271.13000000000005" type="curve" smooth="yes"/>
      <point x="459.12500000000006" y="410.615" type="line" smooth="yes"/>
      <point x="459.12500000000006" y="554.29"/>
      <point x="411.595" y="652.64"/>
      <point x="268.655" y="668.35" type="curve"/>
      <point x="270.50999999999993" y="662.11" type="line"/>
      <point x="270.51000000000005" y="667.53" type="line"/>
      <point x="407.74" y="680.3"/>
      <point x="453.125" y="780.59"/>
      <point x="453.125" y="915.59" type="curve" smooth="yes"/>
      <point x="453.125" y="1014.9050000000001" type="line" smooth="yes"/>
      <point x="453.125" y="1192.615"/>
      <point x="392.70500000000004" y="1294.06"/>
      <point x="233.77999999999997" y="1294.06" type="curve" smooth="yes"/>
      <point x="155.42" y="1294.06"/>
      <point x="94.44500000000001" y="1266.06"/>
      <point x="53.794999999999995" y="1231.12" type="curve"/>
      <point x="46.205" y="1158.055" type="line"/>
      <point x="95.73499999999999" y="1196.875"/>
      <point x="151.85500000000002" y="1225.1399999999999"/>
      <point x="222.12000000000003" y="1225.1399999999999" type="curve" smooth="yes"/>
      <point x="338.085" y="1225.1399999999999"/>
      <point x="378.025" y="1147.705"/>
      <point x="378.025" y="1004.57" type="curve" smooth="yes"/>
      <point x="378.025" y="911.41" type="line" smooth="yes"/>
      <point x="378.025" y="776.155"/>
      <point x="330.82" y="699.78"/>
      <point x="191.44500000000002" y="695.5150000000001" type="curve" smooth="yes"/>
      <point x="117.915" y="693.25" type="line"/>
      <point x="117.915" y="631.39" type="line"/>
      <point x="189.70999999999998" y="629.125" type="line" smooth="yes"/>
      <point x="325.67500000000007" y="624.86"/>
      <point x="383.49500000000006" y="561.63"/>
      <point x="383.49500000000006" y="409.025" type="curve" smooth="yes"/>
      <point x="383.49500000000006" y="276.42999999999995" type="line" smooth="yes"/>
      <point x="383.49500000000006" y="133.765"/>
      <point x="337.41" y="53.65500000000001"/>
      <point x="217.11999999999998" y="53.65500000000001" type="curve" smooth="yes"/>
      <point x="145.12000000000003" y="53.65500000000001"/>
      <point x="89.99999999999999" y="81.655"/>
      <point x="38.675" y="122.33" type="curve"/>
      <point x="46.26500000000001" y="45.145" type="line"/>
      <point x="83.915" y="13.674999999999997"/>
      <point x="148.42000000000002" y="-15.795"/>
    </contour>
  </outline>
</glyph>
<glyph name="four" format="2">
  <advance width="594.485"/>
  <unicode hex="0034"/>
  <outline>
    <contour>
      <point x="387.68499999999995" y="0.0" type="line"/>
      <point x="459.87000000000006" y="0.0" type="line"/>
      <point x="459.87000000000006" y="1278.0" type="line"/>
      <point x="320.42499999999995" y="1278.0" type="line"/>
      <point x="36.0" y="321.175" type="line"/>
      <point x="36.0" y="243.72500000000002" type="line"/>
      <point x="568.22" y="243.72500000000002" type="line"/>
      <point x="568.22" y="309.79" type="line"/>
      <point x="74.96" y="309.79" type="line"/>
      <point x="106.38999999999999" y="281.04499999999996" type="line"/>
      <point x="106.38999999999999" y="317.585" type="line"/>
      <point x="371.07000000000005" y="1219.825" type="line"/>
      <point x="391.53999999999996" y="1219.825" type="line"/>
      <point x="387.68499999999995" y="945.805" type="line"/>
    </contour>
  </outline>
</glyph>
<glyph name="five" format="2">
  <advance width="582.21"/>
  <unicode hex="0035"/>
  <outline>
    <contour>
      <point x="275.215" y="-19.735" type="curve" smooth="yes"/>
      <point x="433.15" y="-19.735"/>
      <point x="499.305" y="81.94999999999999"/>
      <point x="499.305" y="267.79" type="curve" smooth="yes"/>
      <point x="499.305" y="516.88" type="line" smooth="yes"/>
      <point x="499.305" y="687.3"/>
      <point x="443.09999999999997" y="789.745"/>
      <point x="320.92" y="789.745" type="curve" smooth="yes"/>
      <point x="228.65500000000003" y="789.745"/>
      <point x="179.98000000000002" y="735.395"/>
      <point x="160.655" y="656.66" type="curve"/>
      <point x="160.475" y="652.985" type="line"/>
      <point x="164.475" y="834.335" type="line"/>
      <point x="164.475" y="1210.6100000000001" type="line"/>
      <point x="485.535" y="1210.6100000000001" type="line"/>
      <point x="485.535" y="1278.0" type="line"/>
      <point x="91.7" y="1278.0" type="line"/>
      <point x="91.7" y="597.6899999999999" type="line"/>
      <point x="159.945" y="590.51" type="line"/>
      <point x="182.49999999999997" y="676.3299999999999"/>
      <point x="218.99499999999998" y="724.74"/>
      <point x="294.63500000000005" y="724.74" type="curve" smooth="yes"/>
      <point x="389.50499999999994" y="724.74"/>
      <point x="424.20500000000004" y="643.485"/>
      <point x="424.20500000000004" y="511.88" type="curve" smooth="yes"/>
      <point x="424.20500000000004" y="268.055" type="line" smooth="yes"/>
      <point x="424.20500000000004" y="124.15"/>
      <point x="377.53000000000003" y="49.185"/>
      <point x="267.795" y="49.185" type="curve" smooth="yes"/>
      <point x="195.94000000000003" y="49.185"/>
      <point x="138.76" y="79.185"/>
      <point x="86.69999999999999" y="119.12499999999999" type="curve"/>
      <point x="94.29" y="41.940000000000005" type="line"/>
      <point x="129.0" y="13.205000000000002"/>
      <point x="192.915" y="-19.735"/>
    </contour>
  </outline>
</glyph>
<glyph name="six" format="2">
  <advance width="622.4499999999999"/>
  <unicode hex="0036"/>
  <outline>
    <contour>
      <point x="319.69500000000005" y="-20.0" type="curve" smooth="yes"/>
      <point x="471.33000000000004" y="-20.0"/>
      <point x="543.28" y="76.095"/>
      <point x="543.28" y="265.225" type="curve" smooth="yes"/>
      <point x="543.28" y="512.495" type="line" smooth="yes"/>
      <point x="543.28" y="694.445"/>
      <point x="479.81000000000006" y="799.4200000000001"/>
      <point x="349.45" y="799.4200000000001" type="curve" smooth="yes"/>
      <point x="230.57" y="799.4200000000001"/>
      <point x="169.01500000000001" y="720.045"/>
      <point x="162.98000000000002" y="590.945" type="curve"/>
      <point x="141.88500000000002" y="590.945" type="line"/>
      <point x="165.21" y="538.47" type="line"/>
      <point x="178.475" y="667.595"/>
      <point x="231.23499999999999" y="734.6800000000001"/>
      <point x="326.43000000000006" y="734.6800000000001" type="curve" smooth="yes"/>
      <point x="426.275" y="734.6800000000001"/>
      <point x="469.24" y="650.895"/>
      <point x="469.24" y="506.435" type="curve" smooth="yes"/>
      <point x="469.24" y="261.96" type="line" smooth="yes"/>
      <point x="469.24" y="118.44"/>
      <point x="423.27500000000003" y="45.269999999999996"/>
      <point x="319.96" y="45.269999999999996" type="curve" smooth="yes"/>
      <point x="216.38" y="45.269999999999996"/>
      <point x="169.415" y="118.44"/>
      <point x="169.415" y="261.96" type="curve"/>
      <point x="169.415" y="980.38" type="line" smooth="yes"/>
      <point x="169.415" y="1138.115"/>
      <point x="219.475" y="1223.875"/>
      <point x="349.74" y="1223.875" type="curve" smooth="yes"/>
      <point x="420.12499999999994" y="1223.875"/>
      <point x="472.715" y="1195.6699999999998"/>
      <point x="520.715" y="1157.055" type="curve"/>
      <point x="513.33" y="1231.1200000000001" type="line"/>
      <point x="476.4750000000001" y="1261.325"/>
      <point x="417.705" y="1293.53"/>
      <point x="338.61" y="1293.53" type="curve" smooth="yes"/>
      <point x="169.70999999999998" y="1293.53"/>
      <point x="95.375" y="1182.0500000000002"/>
      <point x="95.375" y="983.5600000000001" type="curve" smooth="yes"/>
      <point x="95.375" y="266.55" type="line" smooth="yes"/>
      <point x="95.375" y="76.095"/>
      <point x="168.325" y="-20.0"/>
    </contour>
  </outline>
</glyph>
<glyph name="seven" format="2">
  <advance width="497.8"/>
  <unicode hex="0037"/>
  <outline>
    <contour>
      <point x="117.965" y="0.0" type="line"/>
      <point x="195.86" y="0.0" type="line"/>
      <point x="461.535" y="1210.49" type="line"/>
      <point x="461.535" y="1278.0" type="line"/>
      <point x="36.675000000000004" y="1278.0" type="line"/>
      <point x="36.675000000000004" y="1210.345" type="line"/>
      <point x="385.90500000000003" y="1210.345" type="line"/>
    </contour>
  </outline>
</glyph>
<glyph name="eight" format="2">
  <advance width="623.7149999999999"/>
  <unicode hex="0038"/>
  <outline>
    <contour>
      <point x="311.49" y="-20.529999999999998" type="curve" smooth="yes"/>
      <point x="473.185" y="-20.529999999999998"/>
      <point x="547.5450000000001" y="79.77"/>
      <point x="547.5450000000001" y="269.07000000000005" type="curve" smooth="yes"/>
      <point x="547.5450000000001" y="401.965" type="line" smooth="yes"/>
      <point x="547.5450000000001" y="553.5799999999999"/>
      <point x="499.015" y="647.17"/>
      <point x="368.135" y="665.735" type="curve"/>
      <point x="368.135" y="665.12" type="line"/>
      <point x="491.74999999999994" y="682.4200000000001"/>
      <point x="536.81" y="770.215"/>
      <point x="536.81" y="914.1800000000001" type="curve" smooth="yes"/>
      <point x="536.81" y="1016.3149999999999" type="line" smooth="yes"/>
      <point x="536.81" y="1197.82"/>
      <point x="465.97999999999996" y="1294.3249999999998"/>
      <point x="311.49" y="1294.3249999999998" type="curve" smooth="yes"/>
      <point x="157.265" y="1294.3249999999998"/>
      <point x="86.90499999999999" y="1197.82"/>
      <point x="86.90499999999999" y="1016.3149999999999" type="curve" smooth="yes"/>
      <point x="86.90499999999999" y="914.1800000000001" type="line" smooth="yes"/>
      <point x="86.90499999999999" y="769.6850000000001"/>
      <point x="131.965" y="682.1550000000001"/>
      <point x="255.57999999999998" y="665.12" type="curve"/>
      <point x="255.57999999999998" y="665.735" type="line"/>
      <point x="124.7" y="647.17"/>
      <point x="76.17000000000002" y="553.5799999999999"/>
      <point x="76.17000000000002" y="401.965" type="curve" smooth="yes"/>
      <point x="76.17000000000002" y="269.07000000000005" type="line" smooth="yes"/>
      <point x="76.17000000000002" y="79.77"/>
      <point x="150.53" y="-20.529999999999998"/>
    </contour>
    <contour>
      <point x="311.48999999999995" y="44.74" type="curve" smooth="yes"/>
      <point x="200.70499999999998" y="44.74"/>
      <point x="150.00500000000002" y="121.38000000000002"/>
      <point x="150.00500000000002" y="267.65999999999997" type="curve" smooth="yes"/>
      <point x="150.00500000000002" y="407.29" type="line" smooth="yes"/>
      <point x="150.00500000000002" y="548.835"/>
      <point x="201.23499999999999" y="621.355"/>
      <point x="311.49000000000007" y="628.5100000000001" type="curve"/>
      <point x="421.95000000000005" y="621.62"/>
      <point x="472.975" y="549.1"/>
      <point x="472.975" y="407.29" type="curve" smooth="yes"/>
      <point x="472.975" y="267.65999999999997" type="line" smooth="yes"/>
      <point x="472.975" y="121.38000000000001"/>
      <point x="423.01000000000005" y="44.74"/>
    </contour>
    <contour>
      <point x="311.49" y="695.72" type="curve"/>
      <point x="208.23499999999996" y="703.14"/>
      <point x="161.475" y="772.19"/>
      <point x="161.475" y="908.0600000000001" type="curve" smooth="yes"/>
      <point x="161.475" y="1016.605" type="line" smooth="yes"/>
      <point x="161.475" y="1156.6799999999998"/>
      <point x="207.70500000000004" y="1229.585"/>
      <point x="311.49" y="1229.585" type="curve" smooth="yes"/>
      <point x="416.27500000000003" y="1229.585"/>
      <point x="462.24" y="1156.6799999999998"/>
      <point x="462.24" y="1016.605" type="curve" smooth="yes"/>
      <point x="462.24" y="908.0600000000001" type="line" smooth="yes"/>
      <point x="462.24" y="772.455"/>
      <point x="415.21500000000003" y="702.3449999999999"/>
    </contour>
  </outline>
</glyph>
<glyph name="nine" format="2">
  <advance width="622.45"/>
  <unicode hex="0039"/>
  <outline>
    <contour>
      <point x="303.49" y="1293.53" type="curve" smooth="yes"/>
      <point x="151.855" y="1293.53"/>
      <point x="79.17" y="1197.435"/>
      <point x="79.17" y="1007.57" type="curve" smooth="yes"/>
      <point x="79.17" y="759.975" type="line" smooth="yes"/>
      <point x="79.17" y="579.555"/>
      <point x="141.905" y="474.11"/>
      <point x="274.46999999999997" y="474.11" type="curve" smooth="yes"/>
      <point x="397.76000000000005" y="474.11"/>
      <point x="455.64" y="557.895"/>
      <point x="462.40999999999997" y="692.14" type="curve"/>
      <point x="483.50500000000005" y="692.14" type="line"/>
      <point x="460.18000000000006" y="744.0849999999999" type="line"/>
      <point x="445.445" y="608.61"/>
      <point x="395.625" y="538.85"/>
      <point x="297.49" y="538.85" type="curve" smooth="yes"/>
      <point x="196.17500000000004" y="538.85"/>
      <point x="153.20999999999998" y="622.37"/>
      <point x="153.20999999999998" y="768.77" type="curve" smooth="yes"/>
      <point x="153.20999999999998" y="1011.5699999999999" type="line" smooth="yes"/>
      <point x="153.20999999999998" y="1155.0900000000001"/>
      <point x="199.175" y="1228.26"/>
      <point x="303.22499999999997" y="1228.26" type="curve" smooth="yes"/>
      <point x="406.07" y="1228.26"/>
      <point x="453.035" y="1155.09"/>
      <point x="453.035" y="1011.5699999999999" type="curve"/>
      <point x="453.035" y="296.825" type="line" smooth="yes"/>
      <point x="453.035" y="131.74"/>
      <point x="401.035" y="48.92"/>
      <point x="271.625" y="48.92" type="curve" smooth="yes"/>
      <point x="207.79500000000002" y="48.92"/>
      <point x="150.0" y="72.715"/>
      <point x="101.735" y="107.65499999999999" type="curve"/>
      <point x="109.12" y="31.735" type="line"/>
      <point x="144.505" y="5.734999999999999"/>
      <point x="204.74499999999998" y="-20.0"/>
      <point x="280.9" y="-20.0" type="curve" smooth="yes"/>
      <point x="452.005" y="-20.0"/>
      <point x="527.0749999999999" y="88.53999999999999"/>
      <point x="527.0749999999999" y="293.64500000000004" type="curve" smooth="yes"/>
      <point x="527.0749999999999" y="1006.245" type="line" smooth="yes"/>
      <point x="527.0749999999999" y="1197.435"/>
      <point x="454.12499999999994" y="1293.53"/>
    </contour>
  </outline>
</glyph>
<glyph name="less" format="2">
  <advance width="665.3349999999999"/>
  <unicode hex="003C"/>
  <outline>
    <contour>
      <point x="114.32" y="643.265" type="line"/>
      <point x="564.49" y="793.22" type="line"/>
      <point x="564.49" y="858.43" type="line"/>
      <point x="59.940000000000005" y="688.995" type="line"/>
      <point x="59.940000000000005" y="584.27" type="line"/>
      <point x="564.49" y="414.835" type="line"/>
      <point x="564.49" y="480.045" type="line"/>
      <point x="114.32" y="630.0" type="line"/>
    </contour>
  </outline>
</glyph>
<glyph name="equal" format="2">
  <advance width="664.8649999999999"/>
  <unicode hex="003D"/>
  <outline>
    <contour>
      <point x="80.02499999999998" y="445.69" type="line"/>
      <point x="584.84" y="445.69" type="line"/>
      <point x="584.84" y="508.90000000000003" type="line"/>
      <point x="80.02499999999998" y="508.90000000000003" type="line"/>
    </contour>
    <contour>
      <point x="80.02499999999998" y="764.0999999999999" type="line"/>
      <point x="584.84" y="764.0999999999999" type="line"/>
      <point x="584.84" y="827.3100000000001" type="line"/>
      <point x="80.02499999999998" y="827.3100000000001" type="line"/>
    </contour>
  </outline>
</glyph>
<glyph name="greater" format="2">
  <advance width="665.3349999999999"/>
  <unicode hex="003E"/>
  <outline>
    <contour>
      <point x="551.015" y="643.265" type="line"/>
      <point x="551.015" y="630.0" type="line"/>
      <point x="100.84499999999998" y="480.045" type="line"/>
      <point x="100.84499999999998" y="414.835" type="line"/>
      <point x="605.395" y="584.27" type="line"/>
      <point x="605.395" y="688.995" type="line"/>
      <point x="100.84499999999998" y="858.43" type="line"/>
      <point x="100.84499999999998" y="793.22" type="line"/>
    </contour>
  </outline>
</glyph>
<glyph name="question" format="2">
  <advance width="466.14000000000004"/>
  <unicode hex="003F"/>
  <outline>
    <contour>
      <point x="135.57999999999998" y="338.13" type="line"/>
      <point x="202.38000000000002" y="338.13" type="line"/>
      <point x="202.38000000000002" y="600.65" type="line"/>
      <point x="149.76" y="560.495" type="line"/>
      <point x="189.95000000000002" y="572.495" type="line"/>
      <point x="347.08" y="630.46"/>
      <point x="384.825" y="713.0500000000001"/>
      <point x="384.825" y="874.9399999999999" type="curve" smooth="yes"/>
      <point x="384.825" y="1033.8700000000001" type="line" smooth="yes"/>
      <point x="384.825" y="1204.7"/>
      <point x="330.72999999999996" y="1294.06"/>
      <point x="195.39500000000004" y="1294.06" type="curve" smooth="yes"/>
      <point x="133.625" y="1294.06"/>
      <point x="78.445" y="1270.06"/>
      <point x="44.529999999999994" y="1245.795" type="curve"/>
      <point x="35.349999999999994" y="1177.115" type="line"/>
      <point x="78.35" y="1206.055"/>
      <point x="122.08500000000002" y="1226.995"/>
      <point x="179.495" y="1226.995" type="curve" smooth="yes"/>
      <point x="275.845" y="1226.995"/>
      <point x="311.7850000000001" y="1162.44"/>
      <point x="311.7850000000001" y="1024.98" type="curve" smooth="yes"/>
      <point x="311.7850000000001" y="871.6750000000001" type="line" smooth="yes"/>
      <point x="311.7850000000001" y="741.0350000000001"/>
      <point x="284.52" y="669.745"/>
      <point x="164.58000000000004" y="624.25" type="curve" smooth="yes"/>
      <point x="135.57999999999998" y="613.3100000000001" type="line"/>
    </contour>
    <contour>
      <point x="168.21499999999997" y="-11.65" type="curve" smooth="yes"/>
      <point x="201.08" y="-11.65"/>
      <point x="215.44000000000003" y="12.975"/>
      <point x="215.44000000000003" y="63.78" type="curve" smooth="yes"/>
      <point x="215.44000000000003" y="80.045" type="line" smooth="yes"/>
      <point x="215.44000000000003" y="129.85"/>
      <point x="201.08" y="155.20999999999998"/>
      <point x="168.21499999999997" y="155.20999999999998" type="curve" smooth="yes"/>
      <point x="134.555" y="155.20999999999998"/>
      <point x="121.72500000000001" y="129.85"/>
      <point x="121.72500000000001" y="80.045" type="curve" smooth="yes"/>
      <point x="121.72500000000001" y="63.78" type="line" smooth="yes"/>
      <point x="121.72500000000001" y="12.975"/>
      <point x="134.555" y="-11.65"/>
    </contour>
  </outline>
</glyph>
<glyph name="at" format="2">
  <advance width="1162.7250000000001"/>
  <unicode hex="0040"/>
  <outline>
    <contour>
      <point x="517.565" y="72.41" type="curve" smooth="yes"/>
      <point x="610.89" y="72.41"/>
      <point x="660.3" y="132.23000000000002"/>
      <point x="684.625" y="237.075" type="curve"/>
      <point x="700.13" y="237.075" type="line"/>
      <point x="686.395" y="296.15500000000003" type="line"/>
      <point x="658.5749999999999" y="189.465"/>
      <point x="617.285" y="132.56"/>
      <point x="544.235" y="132.56" type="curve" smooth="yes"/>
      <point x="474.595" y="132.56"/>
      <point x="444.775" y="181.52499999999998"/>
      <point x="444.775" y="273.25" type="curve" smooth="yes"/>
      <point x="444.775" y="307.985"/>
      <point x="446.30499999999995" y="324.08000000000004"/>
      <point x="481.65500000000003" y="684.605" type="curve" smooth="yes"/>
      <point x="493.86" y="810.0649999999999"/>
      <point x="538.355" y="865.09"/>
      <point x="610.0550000000001" y="865.09" type="curve" smooth="yes"/>
      <point x="683.575" y="865.09"/>
      <point x="723.335" y="804.98"/>
      <point x="723.3349999999999" y="708.785" type="curve" smooth="yes"/>
      <point x="723.3349999999999" y="700.255"/>
      <point x="723.3349999999999" y="691.255"/>
      <point x="722.335" y="681.99" type="curve"/>
      <point x="750.3699999999999" y="744.815" type="line"/>
      <point x="733.7450000000001" y="744.815" type="line"/>
      <point x="736.975" y="851.335"/>
      <point x="690.625" y="924.4449999999999"/>
      <point x="595.48" y="924.4449999999999" type="curve" smooth="yes"/>
      <point x="490.735" y="924.4449999999999"/>
      <point x="428.20500000000004" y="854.4350000000001"/>
      <point x="410.88" y="679.835" type="curve" smooth="yes"/>
      <point x="375.53000000000003" y="320.45500000000004"/>
      <point x="374.0" y="303.42"/>
      <point x="374.0" y="262.83" type="curve" smooth="yes"/>
      <point x="374.0" y="138.06"/>
      <point x="420.53000000000003" y="72.41"/>
    </contour>
    <contour>
      <point x="662.66" y="81.675" type="line"/>
      <point x="728.4599999999999" y="83.14500000000001" type="line"/>
      <point x="811.5200000000001" y="913.18" type="line"/>
      <point x="743.66" y="913.18" type="line"/>
      <point x="743.3950000000001" y="904.1800000000001" type="line"/>
      <point x="730.395" y="753.5300000000001" type="line"/>
      <point x="727.13" y="734.615" type="line"/>
      <point x="681.395" y="259.155" type="line"/>
      <point x="683.455" y="242.77000000000004" type="line"/>
    </contour>
    <contour>
      <point x="707.63" y="135.055" type="curve"/>
      <point x="662.66" y="81.675" type="line"/>
      <point x="699.84" y="74.14500000000001"/>
      <point x="726.765" y="70.61500000000001"/>
      <point x="774.6800000000001" y="71.145" type="curve" smooth="yes"/>
      <point x="939.8449999999999" y="72.735"/>
      <point x="1018.0000000000001" y="167.675"/>
      <point x="1037.1200000000001" y="360.78000000000003" type="curve" smooth="yes"/>
      <point x="1053.795" y="529.205"/>
      <point x="1072.47" y="740.775"/>
      <point x="1080.205" y="830.8349999999999" type="curve" smooth="yes"/>
      <point x="1108.6750000000002" y="1160.5549999999998"/>
      <point x="932.895" y="1338.4099999999999"/>
      <point x="641.14" y="1338.4099999999999" type="curve" smooth="yes"/>
      <point x="333.46999999999997" y="1338.4099999999999"/>
      <point x="179.99" y="1164.665"/>
      <point x="146.34" y="810.945" type="curve" smooth="yes"/>
      <point x="135.60500000000002" y="695.16"/>
      <point x="101.725" y="282.38"/>
      <point x="92.52000000000001" y="161.92000000000002" type="curve" smooth="yes"/>
      <point x="67.93" y="-158.60500000000002"/>
      <point x="245.855" y="-327.555"/>
      <point x="557.4399999999999" y="-327.555" type="curve" smooth="yes"/>
      <point x="726.2700000000001" y="-327.555"/>
      <point x="856.39" y="-277.145"/>
      <point x="948.6800000000001" y="-211.71" type="curve"/>
      <point x="958.655" y="-141.475" type="line"/>
      <point x="874.1" y="-205.645"/>
      <point x="736.355" y="-268.32"/>
      <point x="561.415" y="-268.32" type="curve" smooth="yes"/>
      <point x="281.55" y="-268.32"/>
      <point x="139.08" y="-115.875"/>
      <point x="156.935" y="164.775" type="curve" smooth="yes"/>
      <point x="163.935" y="280.17499999999995"/>
      <point x="200.75500000000002" y="689.8599999999999"/>
      <point x="212.02" y="813.125" type="curve" smooth="yes"/>
      <point x="240.96" y="1117.6950000000002"/>
      <point x="365.985" y="1279.705"/>
      <point x="638.02" y="1279.705" type="curve" smooth="yes"/>
      <point x="902.5" y="1279.705"/>
      <point x="1044.2" y="1120.5249999999999"/>
      <point x="1017.055" y="832.365" type="curve" smooth="yes"/>
      <point x="1009.0550000000001" y="748.1"/>
      <point x="989.5849999999999" y="527.375"/>
      <point x="972.9699999999999" y="364.755" type="curve" smooth="yes"/>
      <point x="955.2349999999999" y="193.67"/>
      <point x="887.5350000000001" y="128.44"/>
      <point x="778.835" y="128.44" type="curve" smooth="yes"/>
      <point x="749.365" y="128.44"/>
      <point x="731.955" y="129.175"/>
    </contour>
  </outline>
</glyph>
<glyph name="A" format="2">
  <advance width="668.6800000000001"/>
  <unicode hex="0041"/>
  <anchor x="334.84000000000003" y="0.0" name="bottom"/>
  <anchor x="666.8000000000001" y="0.0" name="ogonek"/>
  <anchor x="334.84000000000003" y="1278.0" name="top"/>
  <outline>
    <contour>
      <point x="52.699999999999996" y="0.0" type="line"/>
      <point x="128.47500000000002" y="0.0" type="line"/>
      <point x="321.84" y="1219.56" type="line"/>
      <point x="343.105" y="1219.56" type="line"/>
      <point x="540.2049999999999" y="0.0" type="line"/>
      <point x="615.98" y="0.0" type="line"/>
      <point x="399.40000000000003" y="1278.0" type="line"/>
      <point x="265.545" y="1278.0" type="line"/>
    </contour>
    <contour>
      <point x="172.66000000000003" y="423.115" type="line"/>
      <point x="494.0199999999999" y="423.115" type="line"/>
      <point x="494.0199999999999" y="487.385" type="line"/>
      <point x="172.66000000000003" y="487.385" type="line"/>
    </contour>
  </outline>
</glyph>
<glyph name="B" format="2">
  <advance width="659.2450000000001"/>
  <unicode hex="0042"/>
  <anchor x="331.08" y="0.0" name="bottom"/>
  <anchor x="331.08" y="1278.0" name="top"/>
  <outline>
    <contour>
      <point x="162.585" y="0.0" type="line"/>
      <point x="345.19999999999993" y="0.0" type="line" smooth="yes"/>
      <point x="520.185" y="0.0"/>
      <point x="586.3399999999999" y="107.38499999999999"/>
      <point x="586.3399999999999" y="285.635" type="curve" smooth="yes"/>
      <point x="586.3399999999999" y="406.615" type="line" smooth="yes"/>
      <point x="586.3399999999999" y="559.205"/>
      <point x="542.3399999999999" y="651.735"/>
      <point x="400.34000000000003" y="672.795" type="curve"/>
      <point x="415.04" y="670.035" type="line"/>
      <point x="534.4849999999999" y="695.18"/>
      <point x="575.605" y="778.71"/>
      <point x="575.605" y="917.915" type="curve" smooth="yes"/>
      <point x="575.605" y="998.99" type="line" smooth="yes"/>
      <point x="575.605" y="1171.94"/>
      <point x="508.65500000000003" y="1278.0"/>
      <point x="334.08" y="1278.0" type="curve" smooth="yes"/>
      <point x="160.73000000000002" y="1278.0" type="line"/>
      <point x="160.73000000000002" y="1211.73" type="line"/>
      <point x="329.695" y="1211.73" type="line" smooth="yes"/>
      <point x="458.41999999999996" y="1211.73"/>
      <point x="500.03499999999997" y="1129.15"/>
      <point x="500.03499999999997" y="990.895" type="curve" smooth="yes"/>
      <point x="500.03499999999997" y="897.4699999999999" type="line" smooth="yes"/>
      <point x="500.03499999999997" y="773.8299999999999"/>
      <point x="460.15500000000003" y="690.25"/>
      <point x="323.43" y="690.25" type="curve" smooth="yes"/>
      <point x="171.14" y="690.25" type="line"/>
      <point x="171.14" y="627.3050000000001" type="line"/>
      <point x="319.49" y="627.3050000000001" type="line" smooth="yes"/>
      <point x="469.15500000000003" y="627.3050000000001"/>
      <point x="510.77000000000004" y="544.4599999999999"/>
      <point x="510.77000000000004" y="406.47" type="curve" smooth="yes"/>
      <point x="510.77000000000004" y="287.37" type="line" smooth="yes"/>
      <point x="510.77000000000004" y="149.38"/>
      <point x="469.15500000000003" y="66.535"/>
      <point x="338.43" y="66.535" type="curve" smooth="yes"/>
      <point x="162.585" y="66.535" type="line"/>
    </contour>
    <contour>
      <point x="114.90499999999999" y="0.0" type="line"/>
      <point x="190.47500000000002" y="0.0" type="line"/>
      <point x="190.47500000000002" y="1278.0" type="line"/>
      <point x="114.90499999999999" y="1278.0" type="line"/>
    </contour>
  </outline>
</glyph>
<glyph name="C" format="2">
  <advance width="545.61"/>
  <unicode hex="0043"/>
  <anchor x="304.92499999999995" y="0.0" name="bottom"/>
  <anchor x="304.92499999999995" y="1278.0" name="top"/>
  <outline>
    <contour>
      <point x="325.31" y="-16.060000000000002" type="curve" smooth="yes"/>
      <point x="397.96000000000004" y="-16.060000000000002"/>
      <point x="456.345" y="12.615"/>
      <point x="490.40500000000003" y="42.495" type="curve"/>
      <point x="497.99499999999995" y="120.47500000000001" type="line"/>
      <point x="453.11499999999995" y="82.125"/>
      <point x="404.70500000000004" y="55.45"/>
      <point x="339.765" y="55.45" type="curve" smooth="yes"/>
      <point x="216.945" y="55.45"/>
      <point x="170.53500000000003" y="140.74"/>
      <point x="170.53500000000003" y="290.38" type="curve" smooth="yes"/>
      <point x="170.53500000000003" y="987.885" type="line" smooth="yes"/>
      <point x="170.53500000000003" y="1139.525"/>
      <point x="214.68000000000004" y="1223.875"/>
      <point x="332.50000000000006" y="1223.875" type="curve" smooth="yes"/>
      <point x="397.91" y="1223.875"/>
      <point x="446.585" y="1196.935"/>
      <point x="490.99499999999995" y="1158.585" type="curve"/>
      <point x="483.405" y="1232.975" type="line"/>
      <point x="446.875" y="1266.855"/>
      <point x="391.75499999999994" y="1294.06"/>
      <point x="320.57499999999993" y="1294.06" type="curve" smooth="yes"/>
      <point x="161.12000000000003" y="1294.06"/>
      <point x="94.17" y="1185.7"/>
      <point x="94.17" y="991.33" type="curve" smooth="yes"/>
      <point x="94.17" y="287.73" type="line" smooth="yes"/>
      <point x="94.17" y="94.3"/>
      <point x="159.79500000000002" y="-16.060000000000002"/>
    </contour>
  </outline>
</glyph>
<glyph name="D" format="2">
  <advance width="697.8599999999999"/>
  <unicode hex="0044"/>
  <anchor x="338.165" y="0.0" name="bottom"/>
  <anchor x="349.9599999999999" y="639.0" name="center"/>
  <anchor x="338.165" y="1278.0" name="top"/>
  <outline>
    <contour>
      <point x="153.20000000000002" y="0.0" type="line"/>
      <point x="326.87500000000006" y="0.0" type="line" smooth="yes"/>
      <point x="510.98" y="0.0"/>
      <point x="603.69" y="110.505"/>
      <point x="603.69" y="310.78" type="curve" smooth="yes"/>
      <point x="603.69" y="966.485" type="line" smooth="yes"/>
      <point x="603.69" y="1167.495"/>
      <point x="510.45" y="1278.0"/>
      <point x="326.87500000000006" y="1278.0" type="curve" smooth="yes"/>
      <point x="159.14" y="1278.0" type="line"/>
      <point x="159.14" y="1211.73" type="line"/>
      <point x="323.02000000000004" y="1211.73" type="line" smooth="yes"/>
      <point x="460.41999999999996" y="1211.73"/>
      <point x="527.3249999999999" y="1127.885"/>
      <point x="527.3249999999999" y="964.75" type="curve" smooth="yes"/>
      <point x="527.3249999999999" y="311.78" type="line" smooth="yes"/>
      <point x="527.3249999999999" y="150.38"/>
      <point x="460.41999999999996" y="66.53500000000001"/>
      <point x="323.02000000000004" y="66.53500000000001" type="curve" smooth="yes"/>
      <point x="153.20000000000002" y="66.53500000000001" type="line"/>
    </contour>
    <contour>
      <point x="114.90499999999999" y="0.0" type="line"/>
      <point x="190.74" y="0.0" type="line"/>
      <point x="190.74" y="1278.0" type="line"/>
      <point x="114.90499999999999" y="1278.0" type="line"/>
    </contour>
  </outline>
</glyph>
<glyph name="E" format="2">
  <advance width="567.175"/>
  <unicode hex="0045"/>
  <anchor x="312.54" y="0.0" name="bottom"/>
  <anchor x="551.935" y="0.0" name="ogonek"/>
  <anchor x="312.54" y="1278.0" name="top"/>
  <anchor x="20.0" y="1278.0" name="topleft"/>
  <outline>
    <contour>
      <point x="114.90499999999999" y="0.0" type="line"/>
      <point x="189.68" y="0.0" type="line"/>
      <point x="189.68" y="1278.0" type="line"/>
      <point x="114.90499999999999" y="1278.0" type="line"/>
    </contour>
    <contour>
      <point x="146.2" y="0.0" type="line"/>
      <point x="503.03000000000003" y="0.0" type="line"/>
      <point x="503.03000000000003" y="67.595" type="line"/>
      <point x="146.2" y="67.595" type="line"/>
    </contour>
    <contour>
      <point x="158.345" y="623.245" type="line"/>
      <point x="497.96999999999997" y="623.245" type="line"/>
      <point x="497.96999999999997" y="689.8399999999999" type="line"/>
      <point x="158.345" y="689.8399999999999" type="line"/>
    </contour>
    <contour>
      <point x="142.73000000000002" y="1210.405" type="line"/>
      <point x="503.03" y="1210.405" type="line"/>
      <point x="503.03" y="1278.0" type="line"/>
      <point x="142.73000000000002" y="1278.0" type="line"/>
    </contour>
  </outline>
</glyph>
<glyph name="F" format="2">
  <advance width="542.79"/>
  <unicode hex="0046"/>
  <anchor x="271.395" y="0.0" name="bottom"/>
  <anchor x="271.395" y="1278.0" name="top"/>
  <outline>
    <contour>
      <point x="114.90499999999999" y="0.0" type="line"/>
      <point x="191.005" y="0.0" type="line"/>
      <point x="191.005" y="1278.0" type="line"/>
      <point x="114.90499999999999" y="1278.0" type="line"/>
    </contour>
    <contour>
      <point x="158.345" y="594.9449999999999" type="line"/>
      <point x="485.31999999999994" y="594.9449999999999" type="line"/>
      <point x="485.31999999999994" y="663.0699999999999" type="line"/>
      <point x="158.345" y="663.0699999999999" type="line"/>
    </contour>
    <contour>
      <point x="142.73000000000002" y="1209.875" type="line"/>
      <point x="493.85" y="1209.875" type="line"/>
      <point x="493.85" y="1278.0" type="line"/>
      <point x="142.73000000000002" y="1278.0" type="line"/>
    </contour>
  </outline>
</glyph>
<glyph name="G" format="2">
  <advance width="663.15"/>
  <unicode hex="0047"/>
  <anchor x="332.105" y="0.0" name="bottom"/>
  <anchor x="332.105" y="1278.0" name="top"/>
  <outline>
    <contour>
      <point x="310.855" y="-16.060000000000002" type="curve" smooth="yes"/>
      <point x="432.65" y="-16.060000000000002"/>
      <point x="486.94000000000005" y="65.965"/>
      <point x="505.675" y="171.605" type="curve"/>
      <point x="571.63" y="168.66500000000002" type="line"/>
      <point x="571.63" y="708.01" type="line"/>
      <point x="352.96" y="708.01" type="line"/>
      <point x="352.96" y="641.885" type="line"/>
      <point x="520.625" y="641.885" type="line"/>
      <point x="500.12" y="675.435" type="line"/>
      <point x="500.12" y="230.455" type="line"/>
      <point x="479.975" y="133.32"/>
      <point x="433.215" y="52.800000000000004"/>
      <point x="331.02" y="52.800000000000004" type="curve" smooth="yes"/>
      <point x="217.56" y="52.800000000000004"/>
      <point x="170.53500000000003" y="130.97"/>
      <point x="170.53500000000003" y="273.96" type="curve" smooth="yes"/>
      <point x="170.53500000000003" y="959.475" type="line" smooth="yes"/>
      <point x="170.53500000000003" y="1131.3799999999999"/>
      <point x="225.8" y="1223.875"/>
      <point x="362.59499999999997" y="1223.875" type="curve" smooth="yes"/>
      <point x="446.39" y="1223.875"/>
      <point x="506.03999999999996" y="1191.875"/>
      <point x="558.04" y="1149.4650000000001" type="curve"/>
      <point x="549.9200000000001" y="1225.6499999999999" type="line"/>
      <point x="507.33000000000004" y="1262.3249999999998"/>
      <point x="442.76500000000004" y="1294.06"/>
      <point x="352.79" y="1294.06" type="curve" smooth="yes"/>
      <point x="173.83" y="1294.06"/>
      <point x="94.17" y="1177.9650000000001"/>
      <point x="94.17" y="960.5350000000001" type="curve" smooth="yes"/>
      <point x="94.17" y="274.08" type="line" smooth="yes"/>
      <point x="94.17" y="87.41999999999999"/>
      <point x="160.17000000000002" y="-16.060000000000002"/>
    </contour>
    <contour>
      <point x="505.18000000000006" y="201.12" type="line"/>
      <point x="499.65" y="0.0" type="line"/>
      <point x="571.63" y="0.0" type="line"/>
      <point x="571.63" y="201.12" type="line"/>
    </contour>
  </outline>
</glyph>
<glyph name="H" format="2">
  <advance width="728.3299999999999"/>
  <unicode hex="0048"/>
  <anchor x="364.165" y="0.0" name="bottom"/>
  <anchor x="364.165" y="639.0" name="center"/>
  <anchor x="364.165" y="1278.0" name="top"/>
  <anchor x="20.0" y="1278.0" name="topleft"/>
  <outline>
    <contour>
      <point x="191.27" y="0.0" type="line"/>
      <point x="191.27" y="1278.0" type="line"/>
      <point x="114.90499999999999" y="1278.0" type="line"/>
      <point x="114.90499999999999" y="0.0" type="line"/>
    </contour>
    <contour>
      <point x="613.4249999999998" y="0.0" type="line"/>
      <point x="613.4249999999998" y="1278.0" type="line"/>
      <point x="537.0600000000001" y="1278.0" type="line"/>
      <point x="537.0600000000001" y="0.0" type="line"/>
    </contour>
    <contour>
      <point x="161.815" y="695.045" type="line"/>
      <point x="161.815" y="628.9799999999999" type="line"/>
      <point x="570.13" y="628.9799999999999" type="line"/>
      <point x="570.13" y="695.045" type="line"/>
    </contour>
  </outline>
</glyph>
<glyph name="I" format="2">
  <advance width="311.115"/>
  <unicode hex="0049"/>
  <anchor x="155.925" y="0.0" name="bottom"/>
  <anchor x="244.5" y="0.0" name="ogonek"/>
  <anchor x="155.925" y="1278.0" name="top"/>
  <anchor x="20.0" y="1278.0" name="topleft"/>
  <outline>
    <contour>
      <point x="193.74" y="0.0" type="line"/>
      <point x="193.74" y="1278.0" type="line"/>
      <point x="117.37499999999999" y="1278.0" type="line"/>
      <point x="117.37499999999999" y="0.0" type="line"/>
    </contour>
  </outline>
</glyph>
<glyph name="J" format="2">
  <advance width="459.695"/>
  <unicode hex="004A"/>
  <anchor x="230.48" y="0.0" name="bottom"/>
  <anchor x="311.50499999999994" y="1278.0" name="top"/>
  <outline>
    <contour>
      <point x="161.71" y="-17.0" type="curve" smooth="yes"/>
      <point x="300.02000000000004" y="-17.0"/>
      <point x="350.05499999999995" y="62.48"/>
      <point x="350.05499999999995" y="200.645" type="curve" smooth="yes"/>
      <point x="350.05499999999995" y="1278.0" type="line"/>
      <point x="273.95500000000004" y="1278.0" type="line"/>
      <point x="273.95500000000004" y="202.11499999999998" type="line" smooth="yes"/>
      <point x="273.95500000000004" y="106.00500000000001"/>
      <point x="245.545" y="51.86000000000001"/>
      <point x="152.315" y="51.86000000000001" type="curve" smooth="yes"/>
      <point x="110.435" y="51.86000000000001"/>
      <point x="77.02499999999999" y="61.330000000000005"/>
      <point x="41.085" y="77.535" type="curve"/>
      <point x="47.940000000000005" y="6.999999999999998" type="line"/>
      <point x="78.26499999999999" y="-7.265000000000001"/>
      <point x="119.855" y="-17.0"/>
    </contour>
  </outline>
</glyph>
<glyph name="K" format="2">
  <advance width="657.57"/>
  <unicode hex="004B"/>
  <anchor x="348.81500000000005" y="0.0" name="bottom"/>
  <anchor x="348.81500000000005" y="1278.0" name="top"/>
  <outline>
    <contour>
      <point x="543.505" y="0.0" type="line"/>
      <point x="623.4" y="0.0" type="line"/>
      <point x="335.675" y="674.1550000000001" type="line"/>
      <point x="337.675" y="649.41" type="line"/>
      <point x="615.605" y="1278.0" type="line"/>
      <point x="536.24" y="1278.0" type="line"/>
      <point x="276.26" y="686.9000000000001" type="line"/>
      <point x="181.44" y="686.9000000000001" type="line"/>
      <point x="181.44" y="620.365" type="line"/>
      <point x="277.72999999999996" y="620.365" type="line"/>
    </contour>
    <contour>
      <point x="114.90499999999999" y="0.0" type="line"/>
      <point x="189.945" y="0.0" type="line"/>
      <point x="189.945" y="1278.0" type="line"/>
      <point x="114.90499999999999" y="1278.0" type="line"/>
    </contour>
  </outline>
</glyph>
<glyph name="L" format="2">
  <advance width="540.6700000000001"/>
  <unicode hex="004C"/>
  <anchor x="307.56500000000005" y="0.0" name="bottom"/>
  <anchor x="252.615" y="663.29" name="center"/>
  <anchor x="153.45499999999998" y="1278.0" name="top"/>
  <anchor x="388.66" y="1278.0" name="topright"/>
  <outline>
    <contour>
      <point x="191.005" y="0.0" type="line"/>
      <point x="191.005" y="1278.0" type="line"/>
      <point x="114.90499999999999" y="1278.0" type="line"/>
      <point x="114.90499999999999" y="0.0" type="line"/>
    </contour>
    <contour>
      <point x="146.2" y="68.125" type="line"/>
      <point x="146.2" y="0.0" type="line"/>
      <point x="509.87499999999994" y="0.0" type="line"/>
      <point x="509.87499999999994" y="68.125" type="line"/>
    </contour>
  </outline>
</glyph>
<glyph name="M" format="2">
  <advance width="894.6750000000001"/>
  <unicode hex="004D"/>
  <anchor x="447.97" y="0.0" name="bottom"/>
  <anchor x="447.97" y="1278.0" name="top"/>
  <outline>
    <contour>
      <point x="110.16999999999999" y="0.0" type="line"/>
      <point x="183.35500000000002" y="0.0" type="line"/>
      <point x="186.08999999999997" y="582.845" type="line"/>
      <point x="185.70499999999998" y="1195.445" type="line"/>
      <point x="198.85000000000002" y="1195.445" type="line"/>
      <point x="396.865" y="132.17999999999998" type="line"/>
      <point x="497.80999999999995" y="132.17999999999998" type="line"/>
      <point x="695.8249999999999" y="1195.445" type="line"/>
      <point x="708.9699999999999" y="1195.445" type="line"/>
      <point x="708.8500000000001" y="582.845" type="line"/>
      <point x="711.32" y="0.0" type="line"/>
      <point x="784.505" y="0.0" type="line"/>
      <point x="775.5050000000001" y="1278.0" type="line"/>
      <point x="646.4799999999999" y="1278.0" type="line"/>
      <point x="452.705" y="224.805" type="line"/>
      <point x="442.5" y="224.805" type="line"/>
      <point x="248.19500000000002" y="1278.0" type="line"/>
      <point x="119.17000000000002" y="1278.0" type="line"/>
    </contour>
  </outline>
</glyph>
<glyph name="N" format="2">
  <advance width="735.2199999999999"/>
  <unicode hex="004E"/>
  <anchor x="368.935" y="0.0" name="bottom"/>
  <anchor x="368.935" y="1278.0" name="top"/>
  <outline>
    <contour>
      <point x="237.99" y="1278.265" type="line"/>
      <point x="114.90499999999999" y="1278.265" type="line"/>
      <point x="114.90499999999999" y="0.0" type="line"/>
      <point x="188.355" y="0.0" type="line"/>
      <point x="188.355" y="595.565" type="line"/>
      <point x="181.44000000000003" y="1203.3950000000002" type="line"/>
      <point x="192.17499999999998" y="1203.3950000000002" type="line"/>
      <point x="496.495" y="0.0" type="line"/>
      <point x="620.3149999999999" y="0.0" type="line"/>
      <point x="620.3149999999999" y="1278.265" type="line"/>
      <point x="547.13" y="1278.265" type="line"/>
      <point x="547.13" y="682.7" type="line"/>
      <point x="553.78" y="76.99000000000001" type="line"/>
      <point x="543.045" y="76.99000000000001" type="line"/>
    </contour>
  </outline>
</glyph>
<glyph name="O" format="2">
  <advance width="697.1249999999999"/>
  <unicode hex="004F"/>
  <anchor x="348.43" y="0.0" name="bottom"/>
  <anchor x="348.43" y="639.0" name="center"/>
  <anchor x="506.44" y="8.675" name="ogonek"/>
  <anchor x="348.43" y="1278.0" name="top"/>
  <anchor x="20.0" y="1278.0" name="topleft"/>
  <anchor x="613.315" y="1278.0" name="topright"/>
  <outline>
    <contour>
      <point x="348.43" y="-16.060000000000002" type="curve" smooth="yes"/>
      <point x="517.33" y="-16.060000000000002"/>
      <point x="602.955" y="93.77000000000001"/>
      <point x="602.955" y="306.37" type="curve" smooth="yes"/>
      <point x="602.955" y="969.895" type="line" smooth="yes"/>
      <point x="602.955" y="1182.23"/>
      <point x="517.33" y="1294.06"/>
      <point x="348.43" y="1294.06" type="curve" smooth="yes"/>
      <point x="178.79500000000002" y="1294.06"/>
      <point x="94.17" y="1182.23"/>
      <point x="94.17" y="969.895" type="curve" smooth="yes"/>
      <point x="94.17" y="306.37" type="line" smooth="yes"/>
      <point x="94.17" y="93.77000000000001"/>
      <point x="178.79500000000002" y="-16.060000000000002"/>
    </contour>
    <contour>
      <point x="348.43" y="50.945" type="curve" smooth="yes"/>
      <point x="226.175" y="50.945"/>
      <point x="170.53500000000003" y="139.32"/>
      <point x="170.53500000000003" y="300.865" type="curve" smooth="yes"/>
      <point x="170.53500000000003" y="976.4" type="line" smooth="yes"/>
      <point x="170.53500000000003" y="1138.945"/>
      <point x="226.175" y="1227.055"/>
      <point x="348.43" y="1227.055" type="curve" smooth="yes"/>
      <point x="470.68500000000006" y="1227.055"/>
      <point x="526.3249999999999" y="1138.945"/>
      <point x="526.3249999999999" y="976.4" type="curve" smooth="yes"/>
      <point x="526.3249999999999" y="300.865" type="line" smooth="yes"/>
      <point x="526.3249999999999" y="139.32"/>
      <point x="470.68500000000006" y="50.945"/>
    </contour>
  </outline>
</glyph>
<glyph name="P" format="2">
  <advance width="634.51"/>
  <unicode hex="0050"/>
  <anchor x="317.75500000000005" y="0.0" name="bottom"/>
  <anchor x="317.75500000000005" y="1278.0" name="top"/>
  <outline>
    <contour>
      <point x="150.285" y="457.97999999999996" type="line"/>
      <point x="322.48999999999995" y="457.97999999999996" type="line" smooth="yes"/>
      <point x="487.18499999999995" y="457.97999999999996"/>
      <point x="566.015" y="566.365"/>
      <point x="566.015" y="746.675" type="curve" smooth="yes"/>
      <point x="566.015" y="991.3050000000001" type="line" smooth="yes"/>
      <point x="566.015" y="1169.025"/>
      <point x="487.18499999999995" y="1278.0"/>
      <point x="323.695" y="1278.0" type="curve" smooth="yes"/>
      <point x="156.22500000000002" y="1278.0" type="line"/>
      <point x="156.22500000000002" y="1211.73" type="line"/>
      <point x="320.37" y="1211.73" type="line" smooth="yes"/>
      <point x="436.74499999999995" y="1211.73"/>
      <point x="490.44500000000005" y="1128.885"/>
      <point x="490.44500000000005" y="988.775" type="curve" smooth="yes"/>
      <point x="490.44500000000005" y="748.94" type="line" smooth="yes"/>
      <point x="490.44500000000005" y="607.8299999999999"/>
      <point x="436.74499999999995" y="524.25"/>
      <point x="318.635" y="524.25" type="curve" smooth="yes"/>
      <point x="150.285" y="524.25" type="line"/>
    </contour>
    <contour>
      <point x="114.90499999999999" y="0.0" type="line"/>
      <point x="190.74" y="0.0" type="line"/>
      <point x="190.74" y="470.69000000000005" type="line"/>
      <point x="190.21000000000004" y="506.24" type="line"/>
      <point x="190.21000000000004" y="1278.0" type="line"/>
      <point x="114.90499999999999" y="1278.0" type="line"/>
    </contour>
  </outline>
</glyph>
<glyph name="Q" format="2">
  <advance width="700.125"/>
  <unicode hex="0051"/>
  <anchor x="350.695" y="0.0" name="bottom"/>
  <anchor x="350.695" y="1278.0" name="top"/>
  <outline>
    <contour>
      <point x="688.3899999999999" y="-20.445000000000004" type="line"/>
      <point x="688.3899999999999" y="47.029999999999994" type="line"/>
      <point x="447.7749999999999" y="41.50000000000001" type="line"/>
      <point x="454.38999999999993" y="42.68" type="line"/>
      <point x="543.8100000000001" y="69.80000000000001"/>
      <point x="602.955" y="149.47500000000002"/>
      <point x="602.955" y="321.825" type="curve" smooth="yes"/>
      <point x="602.955" y="967.245" type="line" smooth="yes"/>
      <point x="602.955" y="1181.965"/>
      <point x="516.8000000000001" y="1294.06"/>
      <point x="348.43" y="1294.06" type="curve" smooth="yes"/>
      <point x="179.325" y="1294.06"/>
      <point x="94.17" y="1181.965"/>
      <point x="94.17" y="967.245" type="curve" smooth="yes"/>
      <point x="94.17" y="315.22499999999997" type="line" smooth="yes"/>
      <point x="94.17" y="102.975"/>
      <point x="174.0" y="-10.265"/>
      <point x="382.61" y="-14.589999999999998" type="curve" smooth="yes"/>
    </contour>
    <contour>
      <point x="376.30999999999995" y="48.945" type="line" smooth="yes"/>
      <point x="234.44" y="48.94500000000001"/>
      <point x="170.53500000000003" y="141.585"/>
      <point x="170.53500000000003" y="307.925" type="curve" smooth="yes"/>
      <point x="170.53500000000003" y="973.22" type="line" smooth="yes"/>
      <point x="170.53500000000003" y="1139.21"/>
      <point x="226.705" y="1227.32"/>
      <point x="348.43" y="1227.32" type="curve" smooth="yes"/>
      <point x="470.15500000000003" y="1227.32"/>
      <point x="526.3249999999999" y="1139.21"/>
      <point x="526.3249999999999" y="973.22" type="curve" smooth="yes"/>
      <point x="526.3249999999999" y="311.90000000000003" type="line" smooth="yes"/>
      <point x="526.3249999999999" y="158.995"/>
      <point x="478.56500000000005" y="73.945"/>
      <point x="392.24999999999994" y="48.945" type="curve"/>
    </contour>
  </outline>
</glyph>
<glyph name="R" format="2">
  <advance width="655.5099999999999"/>
  <unicode hex="0052"/>
  <anchor x="340.02" y="0.0" name="bottom"/>
  <anchor x="328.54999999999995" y="1278.0" name="top"/>
  <outline>
    <contour>
      <point x="512.9150000000001" y="0.0" type="line"/>
      <point x="589.75" y="0.0" type="line"/>
      <point x="554.3399999999999" y="316.46999999999997" type="line" smooth="yes"/>
      <point x="535.605" y="481.77"/>
      <point x="505.81000000000006" y="577.915"/>
      <point x="367.59499999999997" y="604.59" type="curve"/>
      <point x="385.785" y="590.2049999999999" type="line"/>
      <point x="388.72499999999997" y="598.6500000000001" type="line"/>
      <point x="522.135" y="615.77"/>
      <point x="572.8100000000001" y="707.445"/>
      <point x="572.8100000000001" y="848.5899999999999" type="curve" smooth="yes"/>
      <point x="572.8100000000001" y="1001.1949999999999" type="line" smooth="yes"/>
      <point x="572.8100000000001" y="1173.41"/>
      <point x="508.06500000000005" y="1278.0"/>
      <point x="334.02" y="1278.0" type="curve" smooth="yes"/>
      <point x="160.73" y="1278.0" type="line"/>
      <point x="160.73" y="1211.73" type="line"/>
      <point x="329.105" y="1211.73" type="line" smooth="yes"/>
      <point x="457.625" y="1211.73"/>
      <point x="497.975" y="1130.6200000000001"/>
      <point x="497.975" y="991.98" type="curve" smooth="yes"/>
      <point x="497.975" y="838.58" type="line" smooth="yes"/>
      <point x="497.975" y="708.53"/>
      <point x="457.095" y="626.48"/>
      <point x="316.02000000000004" y="625.48" type="curve" smooth="yes"/>
      <point x="171.405" y="624.48" type="line"/>
      <point x="171.405" y="562.535" type="line"/>
      <point x="297.08" y="562.535" type="line" smooth="yes"/>
      <point x="438.68500000000006" y="562.5350000000001"/>
      <point x="468.42" y="449.665"/>
      <point x="481.56500000000005" y="315.40999999999997" type="curve" smooth="yes"/>
    </contour>
    <contour>
      <point x="114.90499999999999" y="0.0" type="line"/>
      <point x="190.74" y="0.0" type="line"/>
      <point x="190.74" y="577.57" type="line"/>
      <point x="190.47500000000002" y="608.94" type="line"/>
      <point x="190.47500000000002" y="1278.0" type="line"/>
      <point x="114.90499999999999" y="1278.0" type="line"/>
    </contour>
  </outline>
</glyph>
<glyph name="S" format="2">
  <advance width="550.705"/>
  <unicode hex="0053"/>
  <anchor x="261.25" y="0.0" name="bottom"/>
  <anchor x="261.25" y="1278.0" name="top"/>
  <outline>
    <contour>
      <point x="250.15499999999997" y="-16.06" type="curve" smooth="yes"/>
      <point x="411.995" y="-16.06"/>
      <point x="480.27" y="89.975"/>
      <point x="480.27" y="270.515" type="curve" smooth="yes"/>
      <point x="480.27" y="349.65" type="line" smooth="yes"/>
      <point x="480.27" y="519.4449999999999"/>
      <point x="434.885" y="591.035"/>
      <point x="308.61999999999995" y="682.48" type="curve" smooth="yes"/>
      <point x="188.8" y="771.48"/>
      <point x="139.79999999999998" y="822.8900000000001"/>
      <point x="139.79999999999998" y="967.965" type="curve" smooth="yes"/>
      <point x="139.79999999999998" y="1012.0150000000001" type="line" smooth="yes"/>
      <point x="139.79999999999998" y="1149.295"/>
      <point x="182.74000000000004" y="1223.875"/>
      <point x="293.91" y="1223.875" type="curve" smooth="yes"/>
      <point x="364.97" y="1223.875"/>
      <point x="417.29499999999996" y="1195.61"/>
      <point x="465.03000000000003" y="1155.2" type="curve"/>
      <point x="457.44" y="1231.1200000000001" type="line"/>
      <point x="418.05499999999995" y="1266.325"/>
      <point x="360.345" y="1294.06"/>
      <point x="284.515" y="1294.06" type="curve" smooth="yes"/>
      <point x="131.44500000000002" y="1294.06"/>
      <point x="63.964999999999996" y="1192.5549999999998"/>
      <point x="63.964999999999996" y="1015.7249999999999" type="curve" smooth="yes"/>
      <point x="63.964999999999996" y="968.495" type="line" smooth="yes"/>
      <point x="63.964999999999996" y="800.2299999999999"/>
      <point x="121.20500000000001" y="728.9300000000001"/>
      <point x="252.67499999999998" y="632.0150000000001" type="curve" smooth="yes"/>
      <point x="360.905" y="553.545"/>
      <point x="404.43499999999995" y="495.315"/>
      <point x="404.43499999999995" y="349.505" type="curve" smooth="yes"/>
      <point x="404.43499999999995" y="272.9" type="line" smooth="yes"/>
      <point x="404.43499999999995" y="134.82500000000002"/>
      <point x="359.495" y="55.45"/>
      <point x="245.0" y="55.45" type="curve" smooth="yes"/>
      <point x="184.29" y="55.45"/>
      <point x="120.23" y="80.04"/>
      <point x="64.025" y="124.12499999999999" type="curve"/>
      <point x="71.615" y="44.614999999999995" type="line"/>
      <point x="111.205" y="11.675000000000002"/>
      <point x="176.12" y="-16.06"/>
    </contour>
  </outline>
</glyph>
<glyph name="T" format="2">
  <advance width="562.4150000000001"/>
  <unicode hex="0054"/>
  <anchor x="281.575" y="0.0" name="bottom"/>
  <anchor x="281.575" y="639.0" name="center"/>
  <anchor x="281.575" y="1278.0" name="top"/>
  <outline>
    <contour>
      <point x="243.025" y="0.0" type="line"/>
      <point x="319.39000000000004" y="0.0" type="line"/>
      <point x="319.39000000000004" y="1278.0" type="line"/>
      <point x="243.025" y="1278.0" type="line"/>
    </contour>
    <contour>
      <point x="34.40999999999999" y="1211.14" type="line"/>
      <point x="528.005" y="1211.14" type="line"/>
      <point x="528.005" y="1278.0" type="line"/>
      <point x="34.40999999999999" y="1278.0" type="line"/>
    </contour>
  </outline>
</glyph>
<glyph name="U" format="2">
  <advance width="717.27"/>
  <unicode hex="0055"/>
  <anchor x="358.635" y="0.0" name="bottom"/>
  <anchor x="515.115" y="8.675" name="ogonek"/>
  <anchor x="358.635" y="1278.0" name="top"/>
  <anchor x="700.245" y="1278.0" name="topright"/>
  <outline>
    <contour>
      <point x="358.635" y="-16.060000000000002" type="curve" smooth="yes"/>
      <point x="527.475" y="-16.060000000000002"/>
      <point x="609.3649999999999" y="91.30000000000001"/>
      <point x="609.3649999999999" y="297.16499999999996" type="curve" smooth="yes"/>
      <point x="609.3649999999999" y="1278.0" type="line"/>
      <point x="533.0" y="1278.0" type="line"/>
      <point x="533.0" y="293.19" type="line" smooth="yes"/>
      <point x="533.0" y="136.055"/>
      <point x="479.8299999999999" y="51.21"/>
      <point x="358.635" y="51.21" type="curve" smooth="yes"/>
      <point x="237.43999999999997" y="51.21"/>
      <point x="184.27" y="136.055"/>
      <point x="184.27" y="293.19" type="curve" smooth="yes"/>
      <point x="184.27" y="1278.0" type="line"/>
      <point x="107.905" y="1278.0" type="line"/>
      <point x="107.905" y="297.16499999999996" type="line" smooth="yes"/>
      <point x="107.905" y="91.30000000000001"/>
      <point x="189.795" y="-16.060000000000002"/>
    </contour>
  </outline>
</glyph>
<glyph name="V" format="2">
  <advance width="652.715"/>
  <unicode hex="0056"/>
  <anchor x="326.225" y="0.0" name="bottom"/>
  <anchor x="326.225" y="1278.0" name="top"/>
  <outline>
    <contour>
      <point x="258.40000000000003" y="0.0" type="line"/>
      <point x="394.31499999999994" y="0.0" type="line"/>
      <point x="603.4850000000001" y="1278.0" type="line"/>
      <point x="526.65" y="1278.0" type="line"/>
      <point x="336.225" y="58.705" type="line"/>
      <point x="315.49" y="58.705" type="line"/>
      <point x="126.06500000000001" y="1278.0" type="line"/>
      <point x="49.23" y="1278.0" type="line"/>
    </contour>
  </outline>
</glyph>
<glyph name="W" format="2">
  <advance width="967.6150000000001"/>
  <unicode hex="0057"/>
  <anchor x="484.175" y="0.0" name="bottom"/>
  <anchor x="484.175" y="1278.0" name="top"/>
  <outline>
    <contour>
      <point x="212.16000000000003" y="0.0" type="line"/>
      <point x="339.075" y="0.0" type="line"/>
      <point x="439.90999999999997" y="829.1500000000001" type="line"/>
      <point x="478.44" y="1181.645" type="line"/>
      <point x="489.17499999999995" y="1181.645" type="line"/>
      <point x="528.4399999999999" y="829.1500000000001" type="line"/>
      <point x="628.54" y="0.0" type="line"/>
      <point x="755.455" y="0.0" type="line"/>
      <point x="905.445" y="1278.0" type="line"/>
      <point x="829.345" y="1278.0" type="line"/>
      <point x="705.0749999999999" y="181.985" type="line"/>
      <point x="695.2449999999999" y="63.74000000000001" type="line"/>
      <point x="684.5099999999999" y="63.74000000000001" type="line"/>
      <point x="673.0900000000001" y="181.985" type="line"/>
      <point x="541.76" y="1243.6499999999999" type="line"/>
      <point x="425.855" y="1243.6499999999999" type="line"/>
      <point x="294.52500000000003" y="181.985" type="line"/>
      <point x="283.105" y="63.74000000000001" type="line"/>
      <point x="272.37" y="63.74000000000001" type="line"/>
      <point x="262.53999999999996" y="181.985" type="line"/>
      <point x="138.26999999999998" y="1278.0" type="line"/>
      <point x="62.169999999999995" y="1278.0" type="line"/>
    </contour>
  </outline>
</glyph>
<glyph name="X" format="2">
  <advance width="630.39"/>
  <unicode hex="0058"/>
  <anchor x="315.695" y="0.0" name="bottom"/>
  <anchor x="315.695" y="1278.0" name="top"/>
  <outline>
    <contour>
      <point x="50.699999999999996" y="0.0" type="line"/>
      <point x="126.27000000000002" y="0.0" type="line"/>
      <point x="311.165" y="620.125" type="line"/>
      <point x="319.22499999999997" y="620.125" type="line"/>
      <point x="504.12" y="0.0" type="line"/>
      <point x="579.69" y="0.0" type="line"/>
      <point x="370.255" y="679.975" type="line"/>
      <point x="370.255" y="650.82" type="line"/>
      <point x="575.16" y="1278.0" type="line"/>
      <point x="499.85499999999996" y="1278.0" type="line"/>
      <point x="319.22499999999997" y="705.5500000000001" type="line"/>
      <point x="311.165" y="705.5500000000001" type="line"/>
      <point x="130.535" y="1278.0" type="line"/>
      <point x="55.23" y="1278.0" type="line"/>
      <point x="260.135" y="650.82" type="line"/>
      <point x="260.135" y="679.975" type="line"/>
    </contour>
  </outline>
</glyph>
<glyph name="Y" format="2">
  <advance width="606.9200000000001"/>
  <unicode hex="0059"/>
  <anchor x="303.96" y="0.0" name="bottom"/>
  <anchor x="303.96" y="1278.0" name="top"/>
  <anchor x="20.0" y="1278.0" name="topleft"/>
  <outline>
    <contour>
      <point x="268.73499999999996" y="427.51" type="line"/>
      <point x="338.71500000000003" y="427.51" type="line"/>
      <point x="570.485" y="1278.0" type="line"/>
      <point x="494.65000000000003" y="1278.0" type="line"/>
      <point x="366.045" y="773.115" type="line"/>
      <point x="307.75500000000005" y="541.705" type="line"/>
      <point x="300.42999999999995" y="541.705" type="line"/>
      <point x="242.40500000000003" y="773.8499999999999" type="line"/>
      <point x="112.27000000000001" y="1278.0" type="line"/>
      <point x="36.435" y="1278.0" type="line"/>
    </contour>
    <contour>
      <point x="267.47" y="0.0" type="line"/>
      <point x="339.98" y="0.0" type="line"/>
      <point x="339.98" y="526.25" type="line"/>
      <point x="267.47" y="526.25" type="line"/>
    </contour>
  </outline>
</glyph>
<glyph name="Z" format="2">
  <advance width="570.765"/>
  <unicode hex="005A"/>
  <anchor x="285.515" y="0.0" name="bottom"/>
  <anchor x="285.515" y="639.0" name="center"/>
  <anchor x="285.515" y="1278.0" name="top"/>
  <outline>
    <contour>
      <point x="507.945" y="68.125" type="line"/>
      <point x="139.775" y="68.125" type="line"/>
      <point x="504.15000000000003" y="1217.0549999999998" type="line"/>
      <point x="504.15000000000003" y="1278.0" type="line"/>
      <point x="66.085" y="1278.0" type="line"/>
      <point x="66.085" y="1209.875" type="line"/>
      <point x="426.19500000000005" y="1209.875" type="line"/>
      <point x="62.555" y="61.21" type="line"/>
      <point x="62.555" y="0.0" type="line"/>
      <point x="507.945" y="0.0" type="line"/>
    </contour>
  </outline>
</glyph>
<glyph name="bracketleft" format="2">
  <advance width="403.08"/>
  <unicode hex="005B"/>
  <outline>
    <contour>
      <point x="117.16999999999999" y="-240.735" type="line"/>
      <point x="371.08" y="-240.735" type="line"/>
      <point x="371.08" y="-181.11499999999998" type="line"/>
      <point x="187.825" y="-181.11499999999998" type="line"/>
      <point x="187.825" y="1292.3799999999999" type="line"/>
      <point x="371.08" y="1292.3799999999999" type="line"/>
      <point x="371.08" y="1352.0" type="line"/>
      <point x="117.16999999999999" y="1352.0" type="line"/>
    </contour>
  </outline>
</glyph>
<glyph name="backslash" format="2">
  <advance width="476.525"/>
  <unicode hex="005C"/>
  <outline>
    <contour>
      <point x="433.15" y="-240.73499999999999" type="line"/>
      <point x="111.97" y="1352.0" type="line"/>
      <point x="43.375" y="1352.0" type="line"/>
      <point x="364.28999999999996" y="-240.73499999999999" type="line"/>
    </contour>
  </outline>
</glyph>
<glyph name="bracketright" format="2">
  <advance width="403.08"/>
  <unicode hex="005D"/>
  <outline>
    <contour>
      <point x="285.90999999999997" y="-240.735" type="line"/>
      <point x="285.90999999999997" y="1352.0" type="line"/>
      <point x="31.999999999999996" y="1352.0" type="line"/>
      <point x="31.999999999999996" y="1292.3799999999999" type="line"/>
      <point x="215.255" y="1292.3799999999999" type="line"/>
      <point x="215.255" y="-181.11499999999998" type="line"/>
      <point x="31.999999999999996" y="-181.11499999999998" type="line"/>
      <point x="31.999999999999996" y="-240.735" type="line"/>
    </contour>
  </outline>
</glyph>
<glyph name="asciicircum" format="2">
  <advance width="509.235"/>
  <unicode hex="005E"/>
  <outline>
    <contour>
      <point x="202.46000000000004" y="1278.0" type="line"/>
      <point x="56.84499999999999" y="626.675" type="line"/>
      <point x="119.66999999999999" y="626.675" type="line"/>
      <point x="250.98499999999999" y="1225.8" type="line"/>
      <point x="258.25" y="1225.8" type="line"/>
      <point x="389.56500000000005" y="626.675" type="line"/>
      <point x="452.39" y="626.675" type="line"/>
      <point x="306.77500000000003" y="1278.0" type="line"/>
    </contour>
  </outline>
</glyph>
<glyph name="underscore" format="2">
  <advance width="577.83"/>
  <unicode hex="005F"/>
  <outline>
    <contour>
      <point x="47.23" y="-147.95999999999998" type="line"/>
      <point x="530.6" y="-147.95999999999998" type="line"/>
      <point x="530.6" y="-89.605" type="line"/>
      <point x="47.23" y="-89.605" type="line"/>
    </contour>
  </outline>
</glyph>
<glyph name="grave" format="2">
  <advance width="396.86"/>
  <unicode hex="0060"/>
  <anchor x="267.60999999999996" y="992.12" name="_top"/>
  <anchor x="258.935" y="1280.985" name="top"/>
  <outline>
    <contour>
      <point x="176.98" y="1335.77" type="line"/>
      <point x="98.94000000000001" y="1335.77" type="line"/>
      <point x="98.94000000000001" y="1335.77" type="line"/>
      <point x="236.56500000000003" y="1103.76" type="line"/>
      <point x="297.92" y="1103.76" type="line"/>
      <point x="297.92" y="1103.76" type="line"/>
    </contour>
  </outline>
</glyph>
<glyph name="a" format="2">
  <advance width="587.715"/>
  <unicode hex="0061"/>
  <anchor x="282.61" y="0.0" name="bottom"/>
  <anchor x="534.5699999999999" y="0.0" name="ogonek"/>
  <anchor x="282.61" y="992.12" name="top"/>
  <outline>
    <contour>
      <point x="418.77" y="0.0" type="line"/>
      <point x="491.54499999999996" y="0.0" type="line"/>
      <point x="491.54499999999996" y="737.98" type="line" smooth="yes"/>
      <point x="491.54499999999996" y="914.555"/>
      <point x="426.98" y="1005.915"/>
      <point x="279.695" y="1005.915" type="curve" smooth="yes"/>
      <point x="199.07000000000002" y="1005.915"/>
      <point x="129.565" y="972.1800000000001"/>
      <point x="80.915" y="933.71" type="curve"/>
      <point x="74.06" y="860.765" type="line"/>
      <point x="132.12" y="906.115"/>
      <point x="201.035" y="939.91"/>
      <point x="270.685" y="939.91" type="curve" smooth="yes"/>
      <point x="373.89000000000004" y="939.91"/>
      <point x="418.50500000000005" y="872.62"/>
      <point x="418.50500000000005" y="734.655" type="curve"/>
      <point x="418.50499999999994" y="596.5899999999999" type="line"/>
      <point x="418.50499999999994" y="172.0" type="line"/>
      <point x="423.565" y="172.0" type="line"/>
    </contour>
    <contour>
      <point x="244.325" y="-13.265000000000002" type="curve" smooth="yes"/>
      <point x="354.445" y="-13.265000000000002"/>
      <point x="406.32500000000005" y="66.025"/>
      <point x="424.59" y="169.98999999999998" type="curve"/>
      <point x="441.03499999999997" y="169.98999999999998" type="line"/>
      <point x="420.77" y="235.865" type="line"/>
      <point x="402.62499999999994" y="126.995"/>
      <point x="356.07" y="49.68"/>
      <point x="266.54999999999995" y="49.68" type="curve" smooth="yes"/>
      <point x="169.56" y="49.68"/>
      <point x="132.8" y="119.585"/>
      <point x="132.8" y="243.455" type="curve" smooth="yes"/>
      <point x="132.8" y="308.71000000000004" type="line" smooth="yes"/>
      <point x="132.8" y="413.23"/>
      <point x="167.945" y="466.52000000000004"/>
      <point x="274.08" y="502.015" type="curve" smooth="yes"/>
      <point x="442.805" y="558.51" type="line"/>
      <point x="435.83000000000004" y="620.805" type="line"/>
      <point x="256.07" y="559.7800000000001" type="line" smooth="yes"/>
      <point x="107.44500000000001" y="509.78000000000003"/>
      <point x="60.025" y="438.925"/>
      <point x="60.025" y="306.325" type="curve" smooth="yes"/>
      <point x="60.025" y="234.82999999999998" type="line" smooth="yes"/>
      <point x="60.025" y="73.855"/>
      <point x="117.41" y="-13.265000000000002"/>
    </contour>
  </outline>
</glyph>
<glyph name="b" format="2">
  <advance width="649.86"/>
  <unicode hex="0062"/>
  <anchor x="325.43" y="0.0" name="bottom"/>
  <anchor x="325.43" y="1332.675" name="top"/>
  <outline>
    <contour>
      <point x="359.39" y="-13.265000000000002" type="curve" smooth="yes"/>
      <point x="502.15999999999997" y="-13.265000000000002"/>
      <point x="565.8950000000001" y="88.3"/>
      <point x="565.8950000000001" y="276.755" type="curve" smooth="yes"/>
      <point x="565.8950000000001" y="720.775" type="line" smooth="yes"/>
      <point x="565.8950000000001" y="906.76"/>
      <point x="502.895" y="1005.385"/>
      <point x="364.535" y="1005.385" type="curve" smooth="yes"/>
      <point x="247.125" y="1005.385"/>
      <point x="190.715" y="925.4200000000001"/>
      <point x="170.71500000000003" y="819.925" type="curve"/>
      <point x="149.15" y="819.925" type="line"/>
      <point x="172.94500000000002" y="755.375" type="line"/>
      <point x="193.825" y="864.715"/>
      <point x="243.38000000000002" y="943.5"/>
      <point x="342.105" y="943.5" type="curve" smooth="yes"/>
      <point x="449.095" y="943.5"/>
      <point x="492.59" y="866.0649999999999"/>
      <point x="492.59" y="723.545" type="curve" smooth="yes"/>
      <point x="492.59" y="274.37" type="line" smooth="yes"/>
      <point x="492.59" y="128.85"/>
      <point x="444.89" y="49.68"/>
      <point x="341.105" y="49.68" type="curve" smooth="yes"/>
      <point x="235.32" y="49.68"/>
      <point x="179.62" y="133.11499999999998"/>
      <point x="174.945" y="262.37" type="curve"/>
      <point x="141.70499999999998" y="191.305" type="line"/>
      <point x="168.45000000000002" y="191.305" type="line"/>
      <point x="177.22" y="76.52000000000001"/>
      <point x="237.57" y="-13.265000000000002"/>
    </contour>
    <contour>
      <point x="104.17" y="0.0" type="line"/>
      <point x="176.475" y="0.0" type="line"/>
      <point x="171.67999999999998" y="161.71" type="line"/>
      <point x="174.945" y="194.205" type="line"/>
      <point x="174.945" y="796.0849999999999" type="line"/>
      <point x="173.21" y="813.675" type="line"/>
      <point x="177.21" y="1035.865" type="line"/>
      <point x="177.21" y="1332.675" type="line"/>
      <point x="104.17" y="1332.675" type="line"/>
    </contour>
  </outline>
</glyph>
<glyph name="c" format="2">
  <advance width="491.05500000000006"/>
  <unicode hex="0063"/>
  <anchor x="277.925" y="0.0" name="bottom"/>
  <anchor x="277.925" y="992.12" name="top"/>
  <outline>
    <contour>
      <point x="295.635" y="-13.264999999999999" type="curve" smooth="yes"/>
      <point x="360.2850000000001" y="-13.264999999999999"/>
      <point x="412.20000000000005" y="11.674999999999999"/>
      <point x="445.79" y="45.145" type="curve"/>
      <point x="452.645" y="117.03000000000002" type="line"/>
      <point x="411.96999999999997" y="79.21000000000001"/>
      <point x="367.50000000000006" y="53.8"/>
      <point x="309.56" y="53.8" type="curve" smooth="yes"/>
      <point x="200.475" y="53.8"/>
      <point x="157.00500000000002" y="131.09"/>
      <point x="157.00500000000002" y="267.14" type="curve" smooth="yes"/>
      <point x="157.00500000000002" y="725.245" type="line" smooth="yes"/>
      <point x="157.00500000000002" y="862.09"/>
      <point x="199.15" y="939.38"/>
      <point x="307.235" y="939.38" type="curve" smooth="yes"/>
      <point x="366.43999999999994" y="939.38"/>
      <point x="410.38000000000005" y="913.9699999999999"/>
      <point x="449.58500000000004" y="876.885" type="curve"/>
      <point x="442.72999999999996" y="947.24" type="line"/>
      <point x="408.87499999999994" y="980.18"/>
      <point x="358.02000000000004" y="1005.385"/>
      <point x="295.84" y="1005.385" type="curve" smooth="yes"/>
      <point x="147.59" y="1005.385"/>
      <point x="83.69999999999999" y="902.495"/>
      <point x="83.69999999999999" y="725.775" type="curve" smooth="yes"/>
      <point x="83.69999999999999" y="264.60999999999996" type="line" smooth="yes"/>
      <point x="83.69999999999999" y="87.155"/>
      <point x="147.59" y="-13.264999999999999"/>
    </contour>
  </outline>
</glyph>
<glyph name="d" format="2">
  <advance width="649.86"/>
  <unicode hex="0064"/>
  <anchor x="325.16499999999996" y="0.0" name="bottom"/>
  <anchor x="325.16499999999996" y="496.06" name="center"/>
  <anchor x="325.16499999999996" y="1332.675" name="top"/>
  <anchor x="685.0899999999999" y="1332.675" name="topright"/>
  <outline>
    <contour>
      <point x="285.59" y="-13.265000000000002" type="curve" smooth="yes"/>
      <point x="399.12" y="-13.265000000000002"/>
      <point x="459.20500000000004" y="59.35000000000001"/>
      <point x="479.93999999999994" y="174.39999999999998" type="curve"/>
      <point x="499.3" y="174.39999999999998" type="line"/>
      <point x="476.91499999999996" y="239.27499999999998" type="line"/>
      <point x="454.56500000000005" y="118.175"/>
      <point x="401.3349999999999" y="49.68"/>
      <point x="307.755" y="49.68" type="curve" smooth="yes"/>
      <point x="200.765" y="49.68"/>
      <point x="157.27" y="128.585"/>
      <point x="157.27" y="273.30999999999995" type="curve" smooth="yes"/>
      <point x="157.27" y="718.0749999999999" type="line" smooth="yes"/>
      <point x="157.27" y="864.3299999999999"/>
      <point x="204.97" y="943.5"/>
      <point x="308.755" y="943.5" type="curve" smooth="yes"/>
      <point x="414.54" y="943.5"/>
      <point x="470.23999999999995" y="860.0649999999999"/>
      <point x="474.9150000000001" y="730.81" type="curve"/>
      <point x="502.21500000000003" y="800.815" type="line"/>
      <point x="480.615" y="800.815" type="line"/>
      <point x="471.84499999999997" y="915.6"/>
      <point x="412.76000000000005" y="1005.385"/>
      <point x="290.46999999999997" y="1005.385" type="curve" smooth="yes"/>
      <point x="147.965" y="1005.385"/>
      <point x="83.965" y="903.8199999999999"/>
      <point x="83.965" y="714.63" type="curve" smooth="yes"/>
      <point x="83.965" y="275.225" type="line" smooth="yes"/>
      <point x="83.965" y="86.565"/>
      <point x="147.23000000000002" y="-13.265000000000002"/>
    </contour>
    <contour>
      <point x="473.385" y="0.0" type="line"/>
      <point x="545.6899999999999" y="0.0" type="line"/>
      <point x="545.6899999999999" y="1332.675" type="line"/>
      <point x="472.65" y="1332.675" type="line"/>
      <point x="472.65" y="1035.865" type="line"/>
      <point x="476.65000000000003" y="812.205" type="line"/>
      <point x="474.9150000000001" y="793.145" type="line"/>
      <point x="474.9150000000001" y="184.49500000000003" type="line"/>
      <point x="478.18000000000006" y="172.735" type="line"/>
    </contour>
  </outline>
</glyph>
<glyph name="e" format="2">
  <advance width="587.4499999999999"/>
  <unicode hex="0065"/>
  <anchor x="315.9" y="0.0" name="bottom"/>
  <anchor x="494.305" y="10.0" name="ogonek"/>
  <anchor x="303.02" y="992.12" name="top"/>
  <outline>
    <contour>
      <point x="325.79" y="-13.264999999999999" type="curve" smooth="yes"/>
      <point x="401.03" y="-13.264999999999999"/>
      <point x="462.8" y="14.41"/>
      <point x="504.51" y="46.88" type="curve"/>
      <point x="511.365" y="120.03" type="line"/>
      <point x="462.51" y="81.88499999999999"/>
      <point x="405.12500000000006" y="52.74"/>
      <point x="336.535" y="52.74" type="curve" smooth="yes"/>
      <point x="221.68000000000004" y="52.74"/>
      <point x="156.475" y="124.96999999999998"/>
      <point x="156.475" y="271.61" type="curve" smooth="yes"/>
      <point x="156.475" y="469.0" type="line"/>
      <point x="156.475" y="485.03499999999997" type="line"/>
      <point x="156.475" y="738.135" type="line" smooth="yes"/>
      <point x="156.475" y="872.655"/>
      <point x="202.91000000000003" y="943.765"/>
      <point x="302.96000000000004" y="943.765" type="curve" smooth="yes"/>
      <point x="403.21500000000003" y="943.765"/>
      <point x="449.44499999999994" y="872.655"/>
      <point x="449.44499999999994" y="738.135" type="curve" smooth="yes"/>
      <point x="449.44499999999994" y="643.11"/>
      <point x="449.445" y="557.05"/>
      <point x="449.445" y="448.605" type="curve"/>
      <point x="515.305" y="448.605" type="line"/>
      <point x="520.365" y="505.60499999999996"/>
      <point x="520.895" y="550.255"/>
      <point x="520.895" y="601.58" type="curve" smooth="yes"/>
      <point x="520.895" y="732.835" type="line" smooth="yes"/>
      <point x="520.895" y="909.76"/>
      <point x="448.535" y="1006.18"/>
      <point x="302.96000000000004" y="1006.18" type="curve" smooth="yes"/>
      <point x="157.06" y="1006.18"/>
      <point x="83.69999999999999" y="911.3499999999999"/>
      <point x="83.69999999999999" y="733.365" type="curve" smooth="yes"/>
      <point x="83.69999999999999" y="275.115" type="line" smooth="yes"/>
      <point x="83.69999999999999" y="82.95"/>
      <point x="169.64999999999998" y="-13.264999999999999"/>
    </contour>
    <contour>
      <point x="124.81499999999998" y="448.605" type="line"/>
      <point x="494.41499999999996" y="448.605" type="line"/>
      <point x="494.41499999999996" y="509.43" type="line"/>
      <point x="124.81499999999998" y="509.43" type="line"/>
    </contour>
  </outline>
</glyph>
<glyph name="f" format="2">
  <advance width="469.225"/>
  <unicode hex="0066"/>
  <anchor x="234.745" y="0.0" name="bottom"/>
  <anchor x="234.745" y="1334.0" name="top"/>
  <outline>
    <contour>
      <point x="307.505" y="1350.06" type="curve" smooth="yes"/>
      <point x="181.88000000000002" y="1350.06"/>
      <point x="110.905" y="1272.855"/>
      <point x="110.905" y="1147.59" type="curve" smooth="yes"/>
      <point x="110.905" y="1142.59" type="line" smooth="yes"/>
      <point x="110.905" y="1071.3249999999998"/>
      <point x="134.145" y="1008.915"/>
      <point x="153.36" y="970.0949999999999" type="curve"/>
      <point x="153.36" y="959.915" type="line"/>
      <point x="208.35500000000002" y="962.795" type="line"/>
      <point x="194.82500000000002" y="1011.2900000000001"/>
      <point x="182.09" y="1063.2549999999999"/>
      <point x="182.09" y="1124.4250000000002" type="curve" smooth="yes"/>
      <point x="182.09" y="1129.895" type="line" smooth="yes"/>
      <point x="182.09" y="1228.9450000000002"/>
      <point x="229.97000000000003" y="1287.645"/>
      <point x="323.935" y="1287.645" type="curve" smooth="yes"/>
      <point x="378.55" y="1287.645"/>
      <point x="413.55" y="1273.44"/>
      <point x="447.75500000000005" y="1257.5" type="curve"/>
      <point x="440.635" y="1318.205" type="line"/>
      <point x="407.31" y="1335.7350000000001"/>
      <point x="364.27500000000003" y="1350.06"/>
    </contour>
    <contour>
      <point x="138.64" y="0.0" type="line"/>
      <point x="211.94500000000002" y="0.0" type="line"/>
      <point x="211.94500000000002" y="942.905" type="line"/>
      <point x="138.64" y="942.905" type="line"/>
    </contour>
    <contour>
      <point x="19.205000000000002" y="912.44" type="line"/>
      <point x="437.69500000000005" y="912.44" type="line"/>
      <point x="444.55" y="973.855" type="line"/>
      <point x="193.91000000000003" y="973.855" type="line"/>
      <point x="170.60000000000002" y="973.5899999999999" type="line"/>
      <point x="19.205000000000002" y="973.855" type="line"/>
    </contour>
  </outline>
</glyph>
<glyph name="g" format="2">
  <advance width="607.74"/>
  <unicode hex="0067"/>
  <anchor x="313.045" y="-350.0" name="bottom"/>
  <anchor x="309.575" y="992.12" name="top"/>
  <outline>
    <contour>
      <point x="302.84" y="219.805" type="curve"/>
      <point x="444.62" y="219.805"/>
      <point x="519.0400000000001" y="307.51500000000004"/>
      <point x="519.0400000000001" y="483.0799999999999" type="curve" smooth="yes"/>
      <point x="519.0400000000001" y="734.0300000000001" type="line" smooth="yes"/>
      <point x="519.0400000000001" y="855.56"/>
      <point x="480.98" y="941.525"/>
      <point x="363.4" y="956.97" type="curve"/>
      <point x="367.81" y="955.6800000000001" type="line"/>
      <point x="588.9200000000001" y="950.885" type="line"/>
      <point x="588.9200000000001" y="1013.445" type="line"/>
      <point x="311.96000000000004" y="1003.385" type="line" smooth="yes"/>
      <point x="127.44500000000001" y="996.5899999999999"/>
      <point x="85.845" y="875.47"/>
      <point x="85.845" y="736.81" type="curve" smooth="yes"/>
      <point x="85.845" y="478.67" type="line" smooth="yes"/>
      <point x="85.845" y="306.78"/>
      <point x="168.24" y="219.805"/>
    </contour>
    <contour>
      <point x="307.19" y="-301.96999999999997" type="line" smooth="yes"/>
      <point x="195.285" y="-301.96999999999997"/>
      <point x="123.44000000000001" y="-252.68"/>
      <point x="123.44000000000001" y="-162.63" type="curve" smooth="yes"/>
      <point x="123.44000000000001" y="-159.16000000000003" type="line" smooth="yes"/>
      <point x="123.44000000000001" y="-64.75999999999999"/>
      <point x="184.14000000000001" y="-16.735"/>
      <point x="292.805" y="6.470000000000002" type="curve"/>
      <point x="265.505" y="5.4700000000000015" type="line"/>
      <point x="359.635" y="-13.915000000000003" type="line" smooth="yes"/>
      <point x="470.035" y="-36.795"/>
      <point x="510.44500000000005" y="-80.23"/>
      <point x="510.44500000000005" y="-161.485" type="curve" smooth="yes"/>
      <point x="510.44500000000005" y="-164.95499999999998" type="line" smooth="yes"/>
      <point x="510.44500000000005" y="-257.945"/>
      <point x="438.86500000000007" y="-301.96999999999997"/>
      <point x="326.96" y="-301.96999999999997" type="curve" smooth="yes"/>
    </contour>
    <contour>
      <point x="304.80499999999995" y="-363.32500000000005" type="curve" smooth="yes"/>
      <point x="325.37000000000006" y="-363.32500000000005" type="line" smooth="yes"/>
      <point x="478.21000000000004" y="-363.32500000000005"/>
      <point x="577.51" y="-295.555"/>
      <point x="577.51" y="-165.605" type="curve" smooth="yes"/>
      <point x="577.51" y="-160.54500000000002" type="line" smooth="yes"/>
      <point x="577.51" y="-51.595000000000006"/>
      <point x="526.33" y="11.439999999999996"/>
      <point x="379.97" y="43.97" type="curve" smooth="yes"/>
      <point x="274.49" y="67.295" type="line" smooth="yes"/>
      <point x="197.85000000000002" y="84.44"/>
      <point x="163.5" y="107.05499999999999"/>
      <point x="163.5" y="151.07999999999998" type="curve" smooth="yes"/>
      <point x="163.5" y="152.815" type="line" smooth="yes"/>
      <point x="163.5" y="201.455"/>
      <point x="202.525" y="225.53999999999996"/>
      <point x="269.37" y="225.54" type="curve"/>
      <point x="304.25" y="225.54000000000002" type="line"/>
      <point x="210.34999999999997" y="250.83999999999997" type="line"/>
      <point x="210.34999999999997" y="241.07" type="line"/>
      <point x="146.845" y="234.745"/>
      <point x="95.11000000000001" y="202.42000000000002"/>
      <point x="95.11000000000001" y="137.36" type="curve" smooth="yes"/>
      <point x="95.11000000000001" y="135.36" type="line" smooth="yes"/>
      <point x="95.11000000000001" y="68.035"/>
      <point x="146.84500000000003" y="31.179999999999993"/>
      <point x="239.75" y="14.180000000000003" type="curve"/>
      <point x="236.075" y="16.94" type="line"/>
      <point x="133.785" y="-3.325"/>
      <point x="56.905" y="-58.94"/>
      <point x="56.905" y="-170.82000000000002" type="curve" smooth="yes"/>
      <point x="56.905" y="-174.82000000000002" type="line" smooth="yes"/>
      <point x="56.905" y="-299.06"/>
      <point x="153.41" y="-363.32500000000005"/>
    </contour>
    <contour>
      <point x="302.84" y="278.305" type="curve" smooth="yes"/>
      <point x="202.52499999999998" y="278.305"/>
      <point x="157.03" y="350.27000000000004"/>
      <point x="157.03" y="484.14" type="curve" smooth="yes"/>
      <point x="157.03" y="739.99" type="line" smooth="yes"/>
      <point x="157.03" y="872.39"/>
      <point x="203.26" y="943.09"/>
      <point x="302.84" y="943.09" type="curve" smooth="yes"/>
      <point x="308.515" y="943.09" type="line" smooth="yes"/>
      <point x="403.625" y="943.09"/>
      <point x="448.12" y="869.39"/>
      <point x="448.12" y="743.4599999999999" type="curve" smooth="yes"/>
      <point x="448.12" y="484.14000000000004" type="line" smooth="yes"/>
      <point x="448.12" y="350.27000000000004"/>
      <point x="401.89" y="278.305"/>
    </contour>
  </outline>
</glyph>
<glyph name="h" format="2">
  <advance width="656.125"/>
  <unicode hex="0068"/>
  <anchor x="328.695" y="0.0" name="bottom"/>
  <anchor x="328.695" y="667.0" name="center"/>
  <anchor x="141.19" y="1332.675" name="top"/>
  <outline>
    <contour>
      <point x="486.12" y="0.0" type="line"/>
      <point x="559.425" y="0.0" type="line"/>
      <point x="559.425" y="736.29" type="line" smooth="yes"/>
      <point x="559.425" y="912.325"/>
      <point x="499.63" y="1005.385"/>
      <point x="367.45" y="1005.385" type="curve" smooth="yes"/>
      <point x="247.92" y="1005.385"/>
      <point x="190.98" y="925.42"/>
      <point x="172.18500000000003" y="821.395" type="curve"/>
      <point x="144.645" y="821.395" type="line"/>
      <point x="175.475" y="755.785" type="line"/>
      <point x="194.62" y="863.655"/>
      <point x="243.90999999999997" y="942.44"/>
      <point x="342.10499999999996" y="942.44" type="curve" smooth="yes"/>
      <point x="446.36" y="942.44"/>
      <point x="486.12" y="866.595"/>
      <point x="486.12" y="728.99" type="curve" smooth="yes"/>
    </contour>
    <contour>
      <point x="104.17" y="0.0" type="line"/>
      <point x="177.475" y="0.0" type="line"/>
      <point x="177.475" y="804.315" type="line"/>
      <point x="173.21" y="811.735" type="line"/>
      <point x="177.21" y="1035.865" type="line"/>
      <point x="177.21" y="1332.675" type="line"/>
      <point x="104.17" y="1332.675" type="line"/>
    </contour>
  </outline>
</glyph>
<glyph name="i" format="2">
  <advance width="292.055"/>
  <unicode hex="0069"/>
  <anchor x="146.39499999999998" y="0.0" name="bottom"/>
  <anchor x="225.705" y="0.0" name="ogonek"/>
  <outline>
    <contour>
      <point x="109.375" y="0.0" type="line"/>
      <point x="182.68" y="0.0" type="line"/>
      <point x="182.68" y="992.12" type="line"/>
      <point x="109.375" y="992.12" type="line"/>
    </contour>
    <contour>
      <point x="146.39499999999998" y="1156.6899999999998" type="curve" smooth="yes"/>
      <point x="179.055" y="1156.6899999999998"/>
      <point x="191.885" y="1180.99"/>
      <point x="191.885" y="1227.88" type="curve" smooth="yes"/>
      <point x="191.885" y="1241.35" type="line" smooth="yes"/>
      <point x="191.885" y="1288.24"/>
      <point x="179.055" y="1311.54"/>
      <point x="146.39499999999998" y="1311.54" type="curve" smooth="yes"/>
      <point x="113.735" y="1311.54"/>
      <point x="100.17000000000002" y="1288.24"/>
      <point x="100.17000000000002" y="1241.35" type="curve" smooth="yes"/>
      <point x="100.17000000000002" y="1227.88" type="line" smooth="yes"/>
      <point x="100.17000000000002" y="1180.99"/>
      <point x="113.735" y="1156.6899999999998"/>
    </contour>
  </outline>
</glyph>
<glyph name="j" format="2">
  <advance width="297.79"/>
  <unicode hex="006A"/>
  <outline>
    <contour>
      <point x="115.10999999999999" y="225.78499999999997" type="line"/>
      <point x="188.41500000000002" y="225.05" type="line"/>
      <point x="188.41500000000002" y="992.12" type="line"/>
      <point x="115.10999999999999" y="992.12" type="line"/>
    </contour>
    <contour>
      <point x="152.13" y="1155.1" type="curve" smooth="yes"/>
      <point x="184.79" y="1155.1"/>
      <point x="197.62" y="1179.4"/>
      <point x="197.62" y="1226.29" type="curve" smooth="yes"/>
      <point x="197.62" y="1239.76" type="line" smooth="yes"/>
      <point x="197.62" y="1286.65"/>
      <point x="184.79" y="1309.95"/>
      <point x="152.13" y="1309.95" type="curve" smooth="yes"/>
      <point x="119.46999999999998" y="1309.95"/>
      <point x="105.905" y="1286.65"/>
      <point x="105.905" y="1239.76" type="curve" smooth="yes"/>
      <point x="105.905" y="1226.29" type="line" smooth="yes"/>
      <point x="105.905" y="1179.3999999999999"/>
      <point x="119.46999999999998" y="1155.1"/>
    </contour>
    <component base="jbottom"/>
  </outline>
</glyph>
<glyph name="k" format="2">
  <advance width="588.22"/>
  <unicode hex="006B"/>
  <anchor x="311.96000000000004" y="0.0" name="bottom"/>
  <anchor x="294.61" y="1332.675" name="top"/>
  <outline>
    <contour>
      <point x="485.29999999999995" y="0.0" type="line"/>
      <point x="561.9300000000001" y="0.0" type="line"/>
      <point x="284.97499999999997" y="547.65" type="line"/>
      <point x="284.97499999999997" y="518.82" type="line"/>
      <point x="546.5200000000001" y="992.12" type="line"/>
      <point x="470.68499999999995" y="992.12" type="line"/>
      <point x="231.09" y="563.1049999999999" type="line"/>
      <point x="163.005" y="563.1049999999999" type="line"/>
      <point x="163.005" y="499.1" type="line"/>
      <point x="229.76500000000001" y="499.1" type="line"/>
    </contour>
    <contour>
      <point x="104.17" y="0.0" type="line"/>
      <point x="177.47500000000002" y="0.0" type="line"/>
      <point x="177.47500000000002" y="1332.675" type="line"/>
      <point x="104.17" y="1332.675" type="line"/>
    </contour>
  </outline>
</glyph>
<glyph name="l" format="2">
  <advance width="292.055"/>
  <unicode hex="006C"/>
  <anchor x="146.66" y="0.0" name="bottom"/>
  <anchor x="146.66" y="667.0" name="center"/>
  <anchor x="146.66" y="1332.675" name="top"/>
  <anchor x="322.345" y="1332.675" name="topright"/>
  <outline>
    <contour>
      <point x="109.375" y="0.0" type="line"/>
      <point x="182.68" y="0.0" type="line"/>
      <point x="182.68" y="1332.675" type="line"/>
      <point x="109.375" y="1332.675" type="line"/>
    </contour>
  </outline>
</glyph>
<glyph name="m" format="2">
  <advance width="990.0500000000001"/>
  <unicode hex="006D"/>
  <anchor x="495.26" y="0.0" name="bottom"/>
  <anchor x="495.26" y="992.12" name="top"/>
  <outline>
    <contour>
      <point x="820.045" y="0.0" type="line"/>
      <point x="893.3499999999999" y="0.0" type="line"/>
      <point x="893.3499999999999" y="748.64" type="line" smooth="yes"/>
      <point x="893.3499999999999" y="915.06"/>
      <point x="838.025" y="1005.385"/>
      <point x="711.785" y="1005.385" type="curve" smooth="yes"/>
      <point x="592.3399999999999" y="1005.385"/>
      <point x="539.6650000000001" y="923.035"/>
      <point x="521.135" y="823.6" type="curve"/>
      <point x="511.22" y="823.6" type="line"/>
      <point x="529.34" y="756.255" type="line"/>
      <point x="547.485" y="864.39"/>
      <point x="593.57" y="942.44"/>
      <point x="688.5" y="942.44" type="curve" smooth="yes"/>
      <point x="782.285" y="942.44"/>
      <point x="820.045" y="869.33"/>
      <point x="820.045" y="738.52" type="curve" smooth="yes"/>
    </contour>
    <contour>
      <point x="104.17" y="0.0" type="line"/>
      <point x="177.475" y="0.0" type="line"/>
      <point x="177.475" y="820.12" type="line"/>
      <point x="173.15" y="821.71" type="line"/>
      <point x="177.945" y="992.12" type="line"/>
      <point x="104.17" y="992.12" type="line"/>
    </contour>
    <contour>
      <point x="462.23999999999995" y="0.0" type="line"/>
      <point x="535.2800000000001" y="0.0" type="line"/>
      <point x="535.2800000000001" y="747.05" type="line" smooth="yes"/>
      <point x="535.2800000000001" y="775.58"/>
      <point x="532.75" y="797.965"/>
      <point x="528.22" y="819.76" type="curve"/>
      <point x="513.425" y="940.5300000000001"/>
      <point x="457.95500000000004" y="1005.385"/>
      <point x="354.98" y="1005.385" type="curve" smooth="yes"/>
      <point x="241.65500000000003" y="1005.385"/>
      <point x="190.185" y="923.95"/>
      <point x="171.39" y="819.19" type="curve"/>
      <point x="149.235" y="819.19" type="line"/>
      <point x="175.21" y="753.05" type="line"/>
      <point x="193.355" y="862.92"/>
      <point x="239.44000000000003" y="942.44"/>
      <point x="330.695" y="942.44" type="curve" smooth="yes"/>
      <point x="425.94999999999993" y="942.44"/>
      <point x="462.23999999999995" y="869.33"/>
      <point x="462.23999999999995" y="738.52" type="curve" smooth="yes"/>
    </contour>
  </outline>
</glyph>
<glyph name="n" format="2">
  <advance width="656.125"/>
  <unicode hex="006E"/>
  <anchor x="328.695" y="0.0" name="bottom"/>
  <anchor x="328.695" y="992.12" name="top"/>
  <outline>
    <contour>
      <point x="486.12" y="0.0" type="line"/>
      <point x="559.425" y="0.0" type="line"/>
      <point x="559.425" y="736.29" type="line" smooth="yes"/>
      <point x="559.425" y="912.325"/>
      <point x="499.63" y="1005.385"/>
      <point x="367.45" y="1005.385" type="curve" smooth="yes"/>
      <point x="252.005" y="1005.385"/>
      <point x="192.655" y="933.505"/>
      <point x="171.39" y="817.72" type="curve"/>
      <point x="150.705" y="817.72" type="line"/>
      <point x="175.21" y="752.58" type="line"/>
      <point x="197.295" y="873.945"/>
      <point x="249.79" y="942.44"/>
      <point x="342.36999999999995" y="942.44" type="curve" smooth="yes"/>
      <point x="446.36" y="942.44"/>
      <point x="486.12" y="866.595"/>
      <point x="486.12" y="728.99" type="curve" smooth="yes"/>
    </contour>
    <contour>
      <point x="104.17" y="0.0" type="line"/>
      <point x="177.475" y="0.0" type="line"/>
      <point x="177.475" y="823.06" type="line"/>
      <point x="173.15" y="824.915" type="line"/>
      <point x="177.945" y="992.12" type="line"/>
      <point x="104.17" y="992.12" type="line"/>
    </contour>
  </outline>
</glyph>
<glyph name="o" format="2">
  <advance width="631.655"/>
  <unicode hex="006F"/>
  <anchor x="315.96" y="0.0" name="bottom"/>
  <anchor x="315.96000000000004" y="496.05999999999995" name="center"/>
  <anchor x="457.74" y="1.3250000000000002" name="ogonek"/>
  <anchor x="315.96" y="992.12" name="top"/>
  <anchor x="560.0500000000001" y="992.12" name="topright"/>
  <outline>
    <contour>
      <point x="315.96" y="-14.06" type="curve" smooth="yes"/>
      <point x="470.005" y="-14.06"/>
      <point x="547.9549999999999" y="84.30000000000001"/>
      <point x="547.9549999999999" y="269.9" type="curve"/>
      <point x="547.9549999999999" y="722.485" type="line"/>
      <point x="547.9549999999999" y="908.085"/>
      <point x="470.005" y="1006.18"/>
      <point x="315.96" y="1006.18" type="curve" smooth="yes"/>
      <point x="161.65" y="1006.18"/>
      <point x="83.69999999999999" y="908.085"/>
      <point x="83.69999999999999" y="722.485" type="curve"/>
      <point x="83.69999999999999" y="269.9" type="line"/>
      <point x="83.69999999999999" y="84.30000000000001"/>
      <point x="161.65" y="-14.06"/>
    </contour>
    <contour>
      <point x="315.96" y="48.355" type="curve" smooth="yes"/>
      <point x="206.70499999999998" y="48.355"/>
      <point x="157.00500000000002" y="123.25999999999999"/>
      <point x="157.00500000000002" y="266.455" type="curve" smooth="yes"/>
      <point x="157.00500000000002" y="725.93" type="line" smooth="yes"/>
      <point x="157.00500000000002" y="869.125"/>
      <point x="206.70499999999998" y="943.765"/>
      <point x="315.96" y="943.765" type="curve" smooth="yes"/>
      <point x="424.94999999999993" y="943.765"/>
      <point x="474.65" y="869.125"/>
      <point x="474.65" y="725.93" type="curve" smooth="yes"/>
      <point x="474.65" y="266.455" type="line" smooth="yes"/>
      <point x="474.65" y="123.25999999999999"/>
      <point x="424.95000000000005" y="48.355"/>
    </contour>
  </outline>
</glyph>
<glyph name="p" format="2">
  <advance width="649.86"/>
  <unicode hex="0070"/>
  <anchor x="325.43" y="0.0" name="bottom"/>
  <anchor x="325.43" y="992.12" name="top"/>
  <outline>
    <contour>
      <point x="359.39" y="-13.265000000000002" type="curve" smooth="yes"/>
      <point x="501.895" y="-13.265000000000002"/>
      <point x="565.8950000000001" y="88.3"/>
      <point x="565.8950000000001" y="276.755" type="curve" smooth="yes"/>
      <point x="565.8950000000001" y="721.305" type="line" smooth="yes"/>
      <point x="565.8950000000001" y="907.025"/>
      <point x="502.63" y="1005.385"/>
      <point x="364.27000000000004" y="1005.385" type="curve" smooth="yes"/>
      <point x="246.33" y="1005.385"/>
      <point x="190.655" y="925.4200000000001"/>
      <point x="169.92" y="819.925" type="curve"/>
      <point x="150.295" y="819.925" type="line"/>
      <point x="172.94500000000002" y="755.375" type="line"/>
      <point x="194.55999999999997" y="864.715"/>
      <point x="243.38000000000002" y="943.5"/>
      <point x="342.105" y="943.5" type="curve" smooth="yes"/>
      <point x="449.095" y="943.5"/>
      <point x="492.59" y="866.0649999999999"/>
      <point x="492.59" y="723.545" type="curve" smooth="yes"/>
      <point x="492.59" y="274.37" type="line" smooth="yes"/>
      <point x="492.59" y="128.85"/>
      <point x="444.89000000000004" y="49.68"/>
      <point x="341.10499999999996" y="49.68" type="curve" smooth="yes"/>
      <point x="235.32" y="49.68"/>
      <point x="179.62" y="133.11499999999998"/>
      <point x="174.945" y="262.37" type="curve"/>
      <point x="143.17499999999998" y="191.305" type="line"/>
      <point x="169.245" y="191.305" type="line"/>
      <point x="178.015" y="76.52000000000001"/>
      <point x="237.83499999999998" y="-13.265000000000002"/>
    </contour>
    <contour>
      <point x="104.17" y="-350.0" type="line"/>
      <point x="177.21" y="-350.0" type="line"/>
      <point x="177.21" y="-24.950000000000003" type="line"/>
      <point x="173.21" y="172.56500000000003" type="line"/>
      <point x="174.945" y="190.07" type="line"/>
      <point x="174.945" y="798.315" type="line"/>
      <point x="172.62" y="806.255" type="line"/>
      <point x="177.945" y="992.12" type="line"/>
      <point x="104.17" y="992.12" type="line"/>
    </contour>
  </outline>
</glyph>
<glyph name="q" format="2">
  <advance width="649.86"/>
  <unicode hex="0071"/>
  <anchor x="325.16499999999996" y="0.0" name="bottom"/>
  <anchor x="325.16499999999996" y="992.12" name="top"/>
  <outline>
    <contour>
      <point x="285.59" y="-13.265000000000002" type="curve" smooth="yes"/>
      <point x="398.59000000000003" y="-13.265000000000002"/>
      <point x="458.40999999999997" y="59.35000000000001"/>
      <point x="479.145" y="174.39999999999998" type="curve"/>
      <point x="497.03499999999997" y="174.39999999999998" type="line"/>
      <point x="476.91499999999996" y="239.27499999999998" type="line"/>
      <point x="454.56500000000005" y="118.175"/>
      <point x="401.3349999999999" y="49.68"/>
      <point x="308.02" y="49.68" type="curve" smooth="yes"/>
      <point x="200.765" y="49.68"/>
      <point x="157.27" y="128.585"/>
      <point x="157.27" y="273.31" type="curve" smooth="yes"/>
      <point x="157.27" y="718.075" type="line" smooth="yes"/>
      <point x="157.27" y="864.3299999999999"/>
      <point x="204.97" y="943.5"/>
      <point x="308.755" y="943.5" type="curve" smooth="yes"/>
      <point x="413.805" y="943.5"/>
      <point x="468.445" y="860.86"/>
      <point x="474.9150000000001" y="730.81" type="curve"/>
      <point x="499.68500000000006" y="800.815" type="line"/>
      <point x="481.40999999999997" y="800.815" type="line"/>
      <point x="471.905" y="915.6"/>
      <point x="413.08500000000004" y="1005.385"/>
      <point x="290.73499999999996" y="1005.385" type="curve" smooth="yes"/>
      <point x="147.965" y="1005.385"/>
      <point x="83.965" y="903.8199999999999"/>
      <point x="83.965" y="714.63" type="curve" smooth="yes"/>
      <point x="83.965" y="275.225" type="line" smooth="yes"/>
      <point x="83.965" y="86.565"/>
      <point x="147.23000000000002" y="-13.265000000000002"/>
    </contour>
    <contour>
      <point x="472.65" y="-350.0" type="line"/>
      <point x="545.6899999999999" y="-350.0" type="line"/>
      <point x="545.6899999999999" y="992.12" type="line"/>
      <point x="471.91499999999996" y="992.12" type="line"/>
      <point x="477.24" y="818.75" type="line"/>
      <point x="474.9150000000001" y="790.23" type="line"/>
      <point x="474.9150000000001" y="195.215" type="line"/>
      <point x="476.65" y="177.70999999999998" type="line"/>
      <point x="472.65" y="-24.950000000000003" type="line"/>
    </contour>
  </outline>
</glyph>
<glyph name="r" format="2">
  <advance width="426.17499999999995"/>
  <unicode hex="0072"/>
  <anchor x="142.19" y="0.0" name="bottom"/>
  <anchor x="251.07" y="992.12" name="top"/>
  <outline>
    <contour>
      <point x="174.74" y="669.04" type="line"/>
      <point x="190.945" y="837.6700000000001"/>
      <point x="264.41499999999996" y="923.9849999999999"/>
      <point x="367.50000000000006" y="923.9849999999999" type="curve" smooth="yes"/>
      <point x="384.76500000000004" y="923.9849999999999"/>
      <point x="400.5" y="921.985"/>
      <point x="412.97" y="919.25" type="curve"/>
      <point x="408.17500000000007" y="996.65" type="line"/>
      <point x="397.175" y="999.12"/>
      <point x="384.03000000000003" y="1000.855"/>
      <point x="369.62000000000006" y="1000.855" type="curve" smooth="yes"/>
      <point x="248.21000000000004" y="1000.855"/>
      <point x="175.57" y="897.925"/>
      <point x="168.33" y="735.9699999999999" type="curve"/>
      <point x="150.85" y="735.9699999999999" type="line"/>
    </contour>
    <contour>
      <point x="104.17" y="0.0" type="line"/>
      <point x="177.475" y="0.0" type="line"/>
      <point x="177.475" y="741.58" type="line"/>
      <point x="169.29500000000002" y="756.94" type="line"/>
      <point x="175.62" y="992.12" type="line"/>
      <point x="104.17" y="992.12" type="line"/>
    </contour>
  </outline>
</glyph>
<glyph name="s" format="2">
  <advance width="493.70500000000004"/>
  <unicode hex="0073"/>
  <anchor x="241.72000000000003" y="0.0" name="bottom"/>
  <anchor x="241.19000000000003" y="992.12" name="top"/>
  <outline>
    <contour>
      <point x="229.13000000000002" y="-13.264999999999999" type="curve" smooth="yes"/>
      <point x="363.96999999999997" y="-13.264999999999999"/>
      <point x="437.005" y="76.18"/>
      <point x="437.005" y="224.6" type="curve" smooth="yes"/>
      <point x="437.005" y="270.3" type="line" smooth="yes"/>
      <point x="437.005" y="397.54"/>
      <point x="398.5" y="460.27500000000003"/>
      <point x="272.09000000000003" y="534.335" type="curve" smooth="yes"/>
      <point x="164.33" y="597.5400000000001"/>
      <point x="127.21000000000001" y="642.505"/>
      <point x="127.21000000000001" y="750.64" type="curve" smooth="yes"/>
      <point x="127.21000000000001" y="775.9300000000001" type="line" smooth="yes"/>
      <point x="127.21000000000001" y="879.535"/>
      <point x="170.03" y="939.91"/>
      <point x="262.525" y="939.91" type="curve" smooth="yes"/>
      <point x="330.85" y="939.91"/>
      <point x="377.03000000000003" y="911.645"/>
      <point x="429.03000000000003" y="867.56" type="curve"/>
      <point x="422.175" y="940.505" type="line"/>
      <point x="384.05500000000006" y="975.7099999999999"/>
      <point x="332.55000000000007" y="1005.3850000000001"/>
      <point x="255.575" y="1005.3850000000001" type="curve" smooth="yes"/>
      <point x="122.64999999999999" y="1005.3850000000001"/>
      <point x="55.23" y="921.47"/>
      <point x="55.23" y="779.11" type="curve" smooth="yes"/>
      <point x="55.23" y="752.6999999999999" type="line" smooth="yes"/>
      <point x="55.23" y="618.025"/>
      <point x="98.29000000000002" y="555.58"/>
      <point x="223.76000000000002" y="482.78499999999997" type="curve" smooth="yes"/>
      <point x="355.315" y="406.58000000000004"/>
      <point x="364.76" y="349.06"/>
      <point x="364.76" y="266.83000000000004" type="curve" smooth="yes"/>
      <point x="364.76" y="225.66" type="line" smooth="yes"/>
      <point x="364.76" y="117.585"/>
      <point x="317.265" y="53.27"/>
      <point x="223.76999999999998" y="53.27" type="curve" smooth="yes"/>
      <point x="159.325" y="53.27"/>
      <point x="104.94" y="80.8"/>
      <point x="51.08500000000001" y="122.74000000000001" type="curve"/>
      <point x="57.94" y="46.410000000000004" type="line"/>
      <point x="94.385" y="16.674999999999997"/>
      <point x="155.82999999999998" y="-13.264999999999999"/>
    </contour>
  </outline>
</glyph>
<glyph name="t" format="2">
  <advance width="458.345"/>
  <unicode hex="0074"/>
  <anchor x="282.095" y="0.0" name="bottom"/>
  <anchor x="229.54" y="496.06" name="center"/>
  <anchor x="172.515" y="1230.8799999999999" name="top"/>
  <anchor x="346.13" y="1406.505" name="topright"/>
  <outline>
    <contour>
      <point x="308.80499999999995" y="-11.530000000000001" type="curve" smooth="yes"/>
      <point x="354.57499999999993" y="-11.530000000000001"/>
      <point x="401.16499999999996" y="0.46999999999999975"/>
      <point x="430.55000000000007" y="17.470000000000002" type="curve"/>
      <point x="437.405" y="86.945" type="line"/>
      <point x="404.46500000000003" y="68.535"/>
      <point x="367.055" y="56.330000000000005"/>
      <point x="325.38" y="56.330000000000005" type="curve" smooth="yes"/>
      <point x="240.355" y="56.330000000000005"/>
      <point x="205.945" y="97.355"/>
      <point x="205.945" y="192.85" type="curve" smooth="yes"/>
      <point x="205.945" y="953.385" type="line"/>
      <point x="133.435" y="953.385" type="line"/>
      <point x="133.435" y="177.83999999999997" type="line" smooth="yes"/>
      <point x="133.435" y="53.504999999999995"/>
      <point x="188.94" y="-11.530000000000001"/>
    </contour>
    <contour>
      <point x="18.94" y="915.62" type="line"/>
      <point x="406.465" y="915.62" type="line"/>
      <point x="413.31999999999994" y="976.505" type="line"/>
      <point x="18.94" y="976.505" type="line"/>
    </contour>
    <contour>
      <point x="133.965" y="963.71" type="line"/>
      <point x="203.15" y="963.71" type="line"/>
      <point x="207.20999999999998" y="1251.7350000000001" type="line"/>
      <point x="133.965" y="1233.82" type="line"/>
    </contour>
  </outline>
</glyph>
<glyph name="u" format="2">
  <advance width="656.125"/>
  <unicode hex="0075"/>
  <anchor x="328.69500000000005" y="0.0" name="bottom"/>
  <anchor x="594.98" y="0.0" name="ogonek"/>
  <anchor x="328.69500000000005" y="992.12" name="top"/>
  <anchor x="639.7149999999999" y="992.12" name="topright"/>
  <outline>
    <contour>
      <point x="170.00500000000002" y="992.12" type="line"/>
      <point x="96.69999999999999" y="992.12" type="line"/>
      <point x="96.69999999999999" y="255.83" type="line" smooth="yes"/>
      <point x="96.69999999999999" y="79.79499999999999"/>
      <point x="156.495" y="-13.265000000000002"/>
      <point x="288.675" y="-13.265000000000002" type="curve" smooth="yes"/>
      <point x="404.12000000000006" y="-13.265000000000002"/>
      <point x="463.46999999999997" y="58.61500000000001"/>
      <point x="484.735" y="174.39999999999998" type="curve"/>
      <point x="505.42" y="174.39999999999998" type="line"/>
      <point x="480.91499999999996" y="239.54000000000002" type="line"/>
      <point x="458.83" y="118.17500000000001"/>
      <point x="406.33500000000004" y="49.68"/>
      <point x="313.755" y="49.68" type="curve" smooth="yes"/>
      <point x="209.76500000000001" y="49.68"/>
      <point x="170.00500000000002" y="125.52499999999998"/>
      <point x="170.00500000000002" y="263.13000000000005" type="curve" smooth="yes"/>
    </contour>
    <contour>
      <point x="551.9549999999999" y="992.12" type="line"/>
      <point x="478.65" y="992.12" type="line"/>
      <point x="478.65" y="169.06" type="line"/>
      <point x="482.975" y="167.205" type="line"/>
      <point x="478.18" y="0.0" type="line"/>
      <point x="551.9549999999999" y="0.0" type="line"/>
    </contour>
  </outline>
</glyph>
<glyph name="v" format="2">
  <advance width="599.5949999999999"/>
  <unicode hex="0076"/>
  <anchor x="300.16499999999996" y="0.0" name="bottom"/>
  <anchor x="300.16499999999996" y="992.12" name="top"/>
  <outline>
    <contour>
      <point x="306.695" y="56.055" type="line"/>
      <point x="292.9" y="56.055" type="line"/>
      <point x="124.26999999999998" y="992.12" type="line"/>
      <point x="49.23" y="992.12" type="line"/>
      <point x="236.81" y="0.0" type="line"/>
      <point x="362.78499999999997" y="0.0" type="line"/>
      <point x="550.365" y="992.12" type="line"/>
      <point x="475.32500000000005" y="992.12" type="line"/>
    </contour>
  </outline>
</glyph>
<glyph name="w" format="2">
  <advance width="942.9300000000001"/>
  <unicode hex="0077"/>
  <anchor x="471.465" y="0.0" name="bottom"/>
  <anchor x="471.465" y="992.12" name="top"/>
  <outline>
    <contour>
      <point x="206.01500000000001" y="0.0" type="line"/>
      <point x="329.01500000000004" y="0.0" type="line"/>
      <point x="442.14" y="723.46" type="line"/>
      <point x="467.20000000000005" y="906.885" type="line"/>
      <point x="475.99499999999995" y="906.885" type="line"/>
      <point x="501.79" y="723.4599999999999" type="line"/>
      <point x="614.915" y="0.0" type="line"/>
      <point x="737.1800000000001" y="0.0" type="line"/>
      <point x="887.965" y="992.12" type="line"/>
      <point x="814.7800000000001" y="992.12" type="line"/>
      <point x="680.62" y="57.645" type="line"/>
      <point x="669.0899999999999" y="57.645" type="line"/>
      <point x="526.99" y="963.7099999999999" type="line"/>
      <point x="416.2049999999999" y="963.7099999999999" type="line"/>
      <point x="274.84000000000003" y="57.645" type="line"/>
      <point x="263.31" y="57.645" type="line"/>
      <point x="129.21" y="992.12" type="line"/>
      <point x="54.96500000000001" y="992.12" type="line"/>
    </contour>
  </outline>
</glyph>
<glyph name="x" format="2">
  <advance width="570.04"/>
  <unicode hex="0078"/>
  <anchor x="285.02" y="0.0" name="bottom"/>
  <anchor x="285.02" y="992.12" name="top"/>
  <outline>
    <contour>
      <point x="50.435" y="0.0" type="line"/>
      <point x="125.21000000000001" y="0.0" type="line"/>
      <point x="281.49" y="479.775" type="line"/>
      <point x="288.815" y="479.775" type="line"/>
      <point x="444.8299999999999" y="0.0" type="line"/>
      <point x="519.605" y="0.0" type="line"/>
      <point x="338.375" y="537.8299999999999" type="line"/>
      <point x="338.375" y="504.96500000000003" type="line"/>
      <point x="515.87" y="992.12" type="line"/>
      <point x="442.09499999999997" y="992.12" type="line"/>
      <point x="288.815" y="555.8399999999999" type="line"/>
      <point x="281.49" y="555.8399999999999" type="line"/>
      <point x="127.94500000000001" y="992.12" type="line"/>
      <point x="54.169999999999995" y="992.12" type="line"/>
      <point x="231.665" y="504.96500000000003" type="line"/>
      <point x="231.665" y="537.8299999999999" type="line"/>
    </contour>
  </outline>
</glyph>
<glyph name="y" format="2">
  <advance width="599.33"/>
  <unicode hex="0079"/>
  <anchor x="448.31500000000005" y="-13.975000000000001" name="bottom"/>
  <anchor x="300.165" y="992.12" name="top"/>
  <outline>
    <contour>
      <point x="336.065" y="103.935" type="line"/>
      <point x="291.31" y="103.935" type="line"/>
      <point x="124.26999999999998" y="992.12" type="line"/>
      <point x="49.23" y="992.12" type="line"/>
      <point x="236.81" y="46.82" type="line"/>
      <point x="328.68" y="46.82" type="line"/>
      <point x="296.335" y="75.42" type="line"/>
      <point x="211.39499999999998" y="-350.0" type="line"/>
      <point x="282.11" y="-350.0" type="line"/>
      <point x="550.0999999999999" y="992.12" type="line"/>
      <point x="475.06" y="992.12" type="line"/>
      <point x="302.575" y="94.14000000000001" type="line"/>
    </contour>
  </outline>
</glyph>
<glyph name="z" format="2">
  <advance width="515.235"/>
  <unicode hex="007A"/>
  <anchor x="256.25" y="0.0" name="bottom"/>
  <anchor x="257.985" y="496.06" name="center"/>
  <anchor x="256.25" y="992.12" name="top"/>
  <outline>
    <contour>
      <point x="451.475" y="64.535" type="line"/>
      <point x="137.125" y="64.535" type="line"/>
      <point x="450.94499999999994" y="932.5" type="line"/>
      <point x="450.94499999999994" y="992.12" type="line"/>
      <point x="62.55500000000001" y="992.12" type="line"/>
      <point x="62.55500000000001" y="928.115" type="line"/>
      <point x="375.58000000000004" y="928.115" type="line"/>
      <point x="62.025000000000006" y="60.14999999999999" type="line"/>
      <point x="62.025000000000006" y="0.0" type="line"/>
      <point x="451.475" y="0.0" type="line"/>
    </contour>
  </outline>
</glyph>
<glyph name="braceleft" format="2">
  <advance width="466.69500000000005"/>
  <unicode hex="007B"/>
  <outline>
    <contour>
      <point x="434.69499999999994" y="1336.53" type="line"/>
      <point x="402.78" y="1347.7949999999998"/>
      <point x="372.66" y="1354.795"/>
      <point x="335.395" y="1354.795" type="curve" smooth="yes"/>
      <point x="221.675" y="1354.795"/>
      <point x="166.78500000000003" y="1287.085"/>
      <point x="166.78500000000003" y="1146.57" type="curve" smooth="yes"/>
      <point x="166.78500000000003" y="1031.1100000000001"/>
      <point x="180.04999999999998" y="868.025"/>
      <point x="180.04999999999998" y="776.71" type="curve" smooth="yes"/>
      <point x="180.04999999999998" y="661.865"/>
      <point x="151.05" y="606.84"/>
      <point x="52.82000000000001" y="596.37" type="curve"/>
      <point x="52.82000000000001" y="519.63" type="line"/>
      <point x="151.05" y="508.425"/>
      <point x="180.04999999999998" y="454.87"/>
      <point x="180.04999999999998" y="340.025" type="curve" smooth="yes"/>
      <point x="180.04999999999998" y="250.70999999999998"/>
      <point x="166.78500000000003" y="83.89"/>
      <point x="166.78500000000003" y="-35.305" type="curve" smooth="yes"/>
      <point x="166.78500000000003" y="-175.08499999999998"/>
      <point x="223.145" y="-243.53"/>
      <point x="335.395" y="-243.53" type="curve" smooth="yes"/>
      <point x="372.66" y="-243.53"/>
      <point x="402.78" y="-236.53"/>
      <point x="434.69499999999994" y="-224.53" type="curve"/>
      <point x="434.69499999999994" y="-163.76500000000001" type="line"/>
      <point x="413.22499999999997" y="-173.705"/>
      <point x="384.08000000000004" y="-181.645"/>
      <point x="349.055" y="-181.645" type="curve" smooth="yes"/>
      <point x="273.91" y="-181.645"/>
      <point x="239.02999999999997" y="-134.29500000000002"/>
      <point x="239.02999999999997" y="-30.124999999999996" type="curve" smooth="yes"/>
      <point x="239.02999999999997" y="72.745"/>
      <point x="252.03" y="239.035"/>
      <point x="252.03" y="341.23" type="curve" smooth="yes"/>
      <point x="252.03" y="466.82"/>
      <point x="215.62" y="538.6750000000001"/>
      <point x="107.32" y="558.205" type="curve"/>
      <point x="112.70500000000003" y="543.99" type="line"/>
      <point x="112.70500000000003" y="560.0600000000001" type="line"/>
      <point x="211.88500000000002" y="578.65"/>
      <point x="252.03" y="647.4449999999999"/>
      <point x="252.03" y="774.77" type="curve" smooth="yes"/>
      <point x="252.03" y="875.7"/>
      <point x="239.02999999999997" y="1039.9899999999998"/>
      <point x="239.02999999999997" y="1141.3899999999999" type="curve" smooth="yes"/>
      <point x="239.02999999999997" y="1245.5600000000002"/>
      <point x="273.91" y="1292.91"/>
      <point x="349.055" y="1292.91" type="curve" smooth="yes"/>
      <point x="384.0799999999999" y="1292.91"/>
      <point x="413.22499999999997" y="1284.97"/>
      <point x="434.69499999999994" y="1275.03" type="curve"/>
    </contour>
  </outline>
</glyph>
<glyph name="bar" format="2">
  <advance width="338.345"/>
  <unicode hex="007C"/>
  <outline>
    <contour>
      <point x="203.235" y="-431.49499999999995" type="line"/>
      <point x="203.235" y="1426.0" type="line"/>
      <point x="135.11" y="1426.0" type="line"/>
      <point x="135.11" y="-431.49499999999995" type="line"/>
    </contour>
  </outline>
</glyph>
<glyph name="braceright" format="2">
  <advance width="466.69500000000005"/>
  <unicode hex="007D"/>
  <outline>
    <contour>
      <point x="32.00000000000001" y="1336.53" type="curve"/>
      <point x="32.00000000000001" y="1275.03" type="line"/>
      <point x="53.47" y="1284.97"/>
      <point x="82.61500000000001" y="1292.91"/>
      <point x="117.64" y="1292.91" type="curve" smooth="yes"/>
      <point x="192.78500000000003" y="1292.91"/>
      <point x="227.66500000000002" y="1245.5600000000002"/>
      <point x="227.66500000000002" y="1141.3899999999999" type="curve" smooth="yes"/>
      <point x="227.66500000000002" y="1039.9899999999998"/>
      <point x="214.665" y="875.7"/>
      <point x="214.665" y="774.77" type="curve" smooth="yes"/>
      <point x="214.665" y="647.4449999999999"/>
      <point x="254.81000000000003" y="578.65"/>
      <point x="353.99" y="560.0600000000001" type="curve"/>
      <point x="353.99" y="543.99" type="line"/>
      <point x="359.37499999999994" y="558.205" type="line"/>
      <point x="251.07500000000005" y="538.6750000000001"/>
      <point x="214.665" y="466.82"/>
      <point x="214.665" y="341.23" type="curve" smooth="yes"/>
      <point x="214.665" y="239.035"/>
      <point x="227.66500000000002" y="72.745"/>
      <point x="227.66500000000002" y="-30.124999999999996" type="curve" smooth="yes"/>
      <point x="227.66500000000002" y="-134.29500000000002"/>
      <point x="192.78500000000003" y="-181.645"/>
      <point x="117.64" y="-181.645" type="curve" smooth="yes"/>
      <point x="82.615" y="-181.645"/>
      <point x="53.47" y="-173.705"/>
      <point x="32.00000000000001" y="-163.76500000000001" type="curve"/>
      <point x="32.00000000000001" y="-224.53" type="line"/>
      <point x="63.91499999999999" y="-236.53"/>
      <point x="94.035" y="-243.53"/>
      <point x="131.3" y="-243.53" type="curve" smooth="yes"/>
      <point x="243.54999999999998" y="-243.53"/>
      <point x="299.90999999999997" y="-175.08499999999998"/>
      <point x="299.90999999999997" y="-35.305" type="curve" smooth="yes"/>
      <point x="299.90999999999997" y="83.89"/>
      <point x="286.645" y="250.70999999999998"/>
      <point x="286.645" y="340.025" type="curve" smooth="yes"/>
      <point x="286.645" y="454.87"/>
      <point x="315.64500000000004" y="508.425"/>
      <point x="413.87500000000006" y="519.63" type="curve"/>
      <point x="413.87500000000006" y="596.37" type="line"/>
      <point x="315.64500000000004" y="606.84"/>
      <point x="286.645" y="661.865"/>
      <point x="286.645" y="776.71" type="curve" smooth="yes"/>
      <point x="286.645" y="868.025"/>
      <point x="299.90999999999997" y="1031.1100000000001"/>
      <point x="299.90999999999997" y="1146.57" type="curve" smooth="yes"/>
      <point x="299.90999999999997" y="1287.085"/>
      <point x="245.01999999999998" y="1354.795"/>
      <point x="131.3" y="1354.795" type="curve" smooth="yes"/>
      <point x="94.035" y="1354.795"/>
      <point x="63.91499999999999" y="1347.7949999999998"/>
    </contour>
  </outline>
</glyph>
<glyph name="asciitilde" format="2">
  <advance width="746.7550000000001"/>
  <unicode hex="007E"/>
  <outline>
    <contour>
      <point x="511.65999999999997" y="548.05" type="curve" smooth="yes"/>
      <point x="600.055" y="548.05"/>
      <point x="639.97" y="599.53"/>
      <point x="639.97" y="695.515" type="curve" smooth="yes"/>
      <point x="639.97" y="722.96" type="line"/>
      <point x="579.7950000000001" y="722.96" type="line"/>
      <point x="579.7950000000001" y="702.02" type="line" smooth="yes"/>
      <point x="579.7950000000001" y="643.525"/>
      <point x="558.24" y="611.85"/>
      <point x="509.62500000000006" y="611.85" type="curve" smooth="yes"/>
      <point x="425.45500000000004" y="611.85"/>
      <point x="335.625" y="707.225"/>
      <point x="234.82999999999998" y="707.225" type="curve" smooth="yes"/>
      <point x="146.435" y="707.225"/>
      <point x="106.52" y="654.685"/>
      <point x="106.52" y="557.7599999999999" type="curve" smooth="yes"/>
      <point x="106.52" y="530.11" type="line"/>
      <point x="165.225" y="530.11" type="line"/>
      <point x="165.225" y="550.99" type="line" smooth="yes"/>
      <point x="165.225" y="610.69"/>
      <point x="187.51500000000001" y="643.425"/>
      <point x="236.86499999999998" y="643.425" type="curve" smooth="yes"/>
      <point x="321.35999999999996" y="643.425"/>
      <point x="407.92499999999995" y="548.05"/>
    </contour>
  </outline>
</glyph>
<glyph name="exclamdown" format="2">
  <advance width="324.755"/>
  <unicode hex="00A1"/>
  <outline>
    <contour>
      <point x="191.32" y="628.23" type="line"/>
      <point x="133.435" y="628.23" type="line"/>
      <point x="122.93" y="-285.88" type="line"/>
      <point x="201.825" y="-285.88" type="line"/>
    </contour>
    <contour>
      <point x="162.54" y="1003.505" type="curve" smooth="yes"/>
      <point x="128.88000000000002" y="1003.505"/>
      <point x="116.05" y="978.88"/>
      <point x="116.05" y="928.075" type="curve" smooth="yes"/>
      <point x="116.05" y="911.81" type="line" smooth="yes"/>
      <point x="116.05" y="862.005"/>
      <point x="128.88000000000002" y="836.645"/>
      <point x="162.54" y="836.645" type="curve" smooth="yes"/>
      <point x="195.405" y="836.645"/>
      <point x="209.76500000000001" y="862.005"/>
      <point x="209.76500000000001" y="911.81" type="curve" smooth="yes"/>
      <point x="209.76500000000001" y="928.075" type="line" smooth="yes"/>
      <point x="209.76500000000001" y="978.88"/>
      <point x="195.405" y="1003.505"/>
    </contour>
  </outline>
</glyph>
<glyph name="cent" format="2">
  <advance width="491.05500000000006"/>
  <unicode hex="00A2"/>
  <anchor x="277.925" y="0.0" name="bottom"/>
  <anchor x="277.925" y="992.12" name="top"/>
  <outline>
    <contour>
      <point x="315.885" y="970.5450000000001" type="line"/>
      <point x="315.885" y="1163.675" type="line"/>
      <point x="250.41000000000003" y="1163.675" type="line"/>
      <point x="250.41000000000003" y="970.5450000000001" type="line"/>
    </contour>
    <contour>
      <point x="315.885" y="-182.35" type="line"/>
      <point x="315.885" y="18.985000000000003" type="line"/>
      <point x="250.41000000000003" y="18.985000000000003" type="line"/>
      <point x="250.41000000000003" y="-182.35" type="line"/>
    </contour>
    <component base="c"/>
  </outline>
</glyph>
<glyph name="sterling" format="2">
  <advance width="596.2"/>
  <unicode hex="00A3"/>
  <outline>
    <contour>
      <point x="57.35" y="629.605" type="line"/>
      <point x="481.11499999999995" y="629.605" type="line"/>
      <point x="487.90999999999997" y="691.695" type="line"/>
      <point x="63.40999999999999" y="691.695" type="line"/>
    </contour>
    <contour>
      <point x="133.61999999999998" y="68.125" type="line"/>
      <point x="133.62" y="71.185" type="line"/>
      <point x="227.03000000000003" y="153.32"/>
      <point x="259.92" y="281.77"/>
      <point x="259.92" y="459.985" type="curve" smooth="yes"/>
      <point x="259.92" y="625.47"/>
      <point x="218.18500000000003" y="853.195"/>
      <point x="218.18500000000003" y="1010.0999999999999" type="curve" smooth="yes"/>
      <point x="218.18500000000003" y="1150.62"/>
      <point x="262.39000000000004" y="1225.4650000000001"/>
      <point x="372.55999999999995" y="1225.4650000000001" type="curve" smooth="yes"/>
      <point x="423.235" y="1225.4650000000001"/>
      <point x="468.97" y="1215.26"/>
      <point x="519.91" y="1191.115" type="curve"/>
      <point x="513.0550000000001" y="1259.1200000000001" type="line"/>
      <point x="478.14" y="1277.855"/>
      <point x="420.2850000000001" y="1294.06"/>
      <point x="362.63500000000005" y="1294.06" type="curve" smooth="yes"/>
      <point x="206.18" y="1294.06"/>
      <point x="142.08499999999998" y="1197.9399999999998"/>
      <point x="142.08499999999998" y="1016.195" type="curve" smooth="yes"/>
      <point x="142.08499999999998" y="850.88"/>
      <point x="184.555" y="639.24"/>
      <point x="184.555" y="459.71999999999997" type="curve" smooth="yes"/>
      <point x="184.555" y="276.865"/>
      <point x="156.7" y="152.945"/>
      <point x="59.99999999999999" y="63.595000000000006" type="curve" smooth="yes"/>
      <point x="60.00000000000001" y="63.595000000000006" type="line"/>
      <point x="60.00000000000001" y="0.0" type="line"/>
      <point x="540.1750000000001" y="0.0" type="line"/>
      <point x="540.1750000000001" y="68.125" type="line"/>
    </contour>
  </outline>
</glyph>
<glyph name="currency" format="2">
  <advance width="645.4350000000001"/>
  <unicode hex="00A4"/>
  <outline>
    <contour>
      <point x="322.58500000000004" y="282.22999999999996" type="curve" smooth="yes"/>
      <point x="465.57000000000005" y="282.22999999999996"/>
      <point x="541.4" y="378.735"/>
      <point x="541.4" y="560.89" type="curve" smooth="yes"/>
      <point x="541.4" y="668.555" type="line" smooth="yes"/>
      <point x="541.4" y="850.445"/>
      <point x="465.57000000000005" y="946.9499999999999"/>
      <point x="322.58500000000004" y="946.9499999999999" type="curve" smooth="yes"/>
      <point x="179.59999999999997" y="946.9499999999999"/>
      <point x="103.77" y="850.445"/>
      <point x="103.77" y="668.555" type="curve" smooth="yes"/>
      <point x="103.77" y="560.89" type="line" smooth="yes"/>
      <point x="103.77" y="378.735"/>
      <point x="179.59999999999997" y="282.22999999999996"/>
    </contour>
    <contour>
      <point x="322.58500000000004" y="340.67" type="curve" smooth="yes"/>
      <point x="222.005" y="340.67"/>
      <point x="171.775" y="415.575"/>
      <point x="171.775" y="559.3" type="curve" smooth="yes"/>
      <point x="171.775" y="670.145" type="line" smooth="yes"/>
      <point x="171.775" y="813.87"/>
      <point x="222.005" y="888.775"/>
      <point x="322.58500000000004" y="888.775" type="curve" smooth="yes"/>
      <point x="423.165" y="888.775"/>
      <point x="472.865" y="813.605"/>
      <point x="473.13" y="670.145" type="curve" smooth="yes"/>
      <point x="473.395" y="559.3" type="line" smooth="yes"/>
      <point x="473.66" y="415.575"/>
      <point x="423.165" y="340.67"/>
    </contour>
    <contour>
      <point x="477.87" y="377.49" type="line"/>
      <point x="432.78999999999996" y="335.20500000000004" type="line"/>
      <point x="552.9449999999999" y="148.495" type="line"/>
      <point x="602.8800000000001" y="182.92499999999998" type="line"/>
    </contour>
    <contour>
      <point x="215.705" y="341.0" type="line"/>
      <point x="170.035" y="381.165" type="line"/>
      <point x="42.555" y="182.92499999999998" type="line"/>
      <point x="92.225" y="148.495" type="line"/>
    </contour>
    <contour>
      <point x="167.505" y="850.22" type="line"/>
      <point x="213.64499999999998" y="888.4449999999999" type="line"/>
      <point x="91.49" y="1078.625" type="line"/>
      <point x="42.555" y="1045.195" type="line"/>
    </contour>
    <contour>
      <point x="429.2" y="885.59" type="line"/>
      <point x="474.28000000000003" y="845.0400000000001" type="line"/>
      <point x="602.615" y="1045.195" type="line"/>
      <point x="553.68" y="1078.625" type="line"/>
    </contour>
  </outline>
</glyph>
<glyph name="yen" format="2">
  <advance width="672.85"/>
  <unicode hex="00A5"/>
  <anchor x="332.71999999999997" y="0.0" name="bottom"/>
  <anchor x="332.71999999999997" y="1278.0" name="top"/>
  <anchor x="48.76" y="1278.0" name="topleft"/>
  <outline>
    <contour>
      <point x="375.045" y="575.04" type="line"/>
      <point x="575.8249999999999" y="575.04" type="line"/>
      <point x="582.62" y="635.19" type="line"/>
      <point x="391.02" y="635.19" type="line"/>
    </contour>
    <contour>
      <point x="99.55499999999999" y="332.695" type="line"/>
      <point x="92.025" y="273.34" type="line"/>
      <point x="575.8249999999999" y="273.34" type="line"/>
      <point x="582.62" y="332.695" type="line"/>
    </contour>
    <contour>
      <point x="275.91499999999996" y="635.19" type="line"/>
      <point x="99.55499999999999" y="635.19" type="line"/>
      <point x="92.025" y="575.04" type="line"/>
      <point x="293.89000000000004" y="575.04" type="line"/>
    </contour>
    <component base="Y" xOffset="28.759999999999998"/>
  </outline>
</glyph>
<glyph name="brokenbar" format="2">
  <advance width="338.345"/>
  <unicode hex="00A6"/>
  <outline>
    <contour>
      <point x="203.235" y="591.085" type="line"/>
      <point x="203.235" y="1426.0" type="line"/>
      <point x="135.11" y="1426.0" type="line"/>
      <point x="135.11" y="591.085" type="line"/>
    </contour>
    <contour>
      <point x="203.235" y="-431.49499999999995" type="line"/>
      <point x="203.235" y="403.685" type="line"/>
      <point x="135.11" y="403.685" type="line"/>
      <point x="135.11" y="-431.49499999999995" type="line"/>
    </contour>
  </outline>
</glyph>
<glyph name="section" format="2">
  <advance width="551.32"/>
  <unicode hex="00A7"/>
  <outline>
    <contour>
      <point x="295.4549999999999" y="355.49" type="curve"/>
      <point x="341.885" y="317.565" type="line"/>
      <point x="341.885" y="337.19" type="line"/>
      <point x="419.00500000000005" y="365.695"/>
      <point x="464.885" y="420.175"/>
      <point x="464.885" y="530.96" type="curve" smooth="yes"/>
      <point x="464.885" y="604.205" type="line" smooth="yes"/>
      <point x="464.885" y="731.7099999999999"/>
      <point x="422.405" y="792.855"/>
      <point x="296.79" y="868.24" type="curve" smooth="yes"/>
      <point x="192.475" y="930.385"/>
      <point x="155.885" y="968.5300000000001"/>
      <point x="155.885" y="1066.6650000000002" type="curve" smooth="yes"/>
      <point x="155.885" y="1083.5449999999998" type="line" smooth="yes"/>
      <point x="155.885" y="1175.475"/>
      <point x="198.705" y="1229.38"/>
      <point x="290.935" y="1229.38" type="curve" smooth="yes"/>
      <point x="359.78999999999996" y="1229.38"/>
      <point x="406.76500000000004" y="1201.115"/>
      <point x="457.17500000000007" y="1156.765" type="curve"/>
      <point x="450.32" y="1228.915" type="line"/>
      <point x="412.20000000000005" y="1263.59"/>
      <point x="360.165" y="1294.06"/>
      <point x="282.13" y="1294.06" type="curve" smooth="yes"/>
      <point x="151.06" y="1294.06"/>
      <point x="83.63999999999999" y="1216.615"/>
      <point x="83.63999999999999" y="1085.93" type="curve" smooth="yes"/>
      <point x="83.63999999999999" y="1069.2549999999999" type="line" smooth="yes"/>
      <point x="83.63999999999999" y="942.76"/>
      <point x="130.64" y="890.34"/>
      <point x="255.08500000000004" y="816.16" type="curve" smooth="yes"/>
      <point x="382.725" y="739.81"/>
      <point x="395.82" y="683.23"/>
      <point x="395.82" y="593.845" type="curve" smooth="yes"/>
      <point x="395.82" y="517.445" type="line" smooth="yes"/>
      <point x="395.82" y="432.75500000000005"/>
      <point x="370.06" y="384.90000000000003"/>
    </contour>
    <contour>
      <point x="253.33499999999998" y="830.33" type="curve"/>
      <point x="206.90499999999997" y="869.0500000000001" type="line"/>
      <point x="207.17000000000002" y="848.895" type="line"/>
      <point x="128.72500000000002" y="819.595"/>
      <point x="83.90499999999999" y="766.175"/>
      <point x="83.90499999999999" y="655.125" type="curve" smooth="yes"/>
      <point x="83.90499999999999" y="589.94" type="line" smooth="yes"/>
      <point x="83.90499999999999" y="453.41"/>
      <point x="129.085" y="394.145"/>
      <point x="256.145" y="317.375" type="curve" smooth="yes"/>
      <point x="375.955" y="246.61499999999998"/>
      <point x="392.905" y="201.53"/>
      <point x="392.905" y="118.50500000000001" type="curve" smooth="yes"/>
      <point x="392.905" y="95.745" type="line" smooth="yes"/>
      <point x="392.905" y="-1.8000000000000025"/>
      <point x="345.40999999999997" y="-66.91"/>
      <point x="251.64999999999998" y="-66.91" type="curve" smooth="yes"/>
      <point x="186.14499999999998" y="-66.91"/>
      <point x="130.7" y="-39.38"/>
      <point x="79.23" y="2.295000000000009" type="curve"/>
      <point x="85.82" y="-71.91499999999999" type="line"/>
      <point x="122.265" y="-102.17999999999999"/>
      <point x="183.975" y="-132.64999999999998"/>
      <point x="257.53999999999996" y="-132.64999999999998" type="curve" smooth="yes"/>
      <point x="392.115" y="-132.64999999999998"/>
      <point x="464.885" y="-44.529999999999994"/>
      <point x="464.885" y="93.625" type="curve" smooth="yes"/>
      <point x="464.885" y="120.38499999999999" type="line" smooth="yes"/>
      <point x="464.885" y="235.50500000000002"/>
      <point x="426.29499999999996" y="292.95000000000005"/>
      <point x="300.5" y="367.865" type="curve" smooth="yes"/>
      <point x="190.61999999999998" y="432.925"/>
      <point x="152.97000000000003" y="480.54"/>
      <point x="152.97000000000003" y="595.3" type="curve" smooth="yes"/>
      <point x="152.97000000000003" y="667.5799999999999" type="line"/>
      <point x="152.97000000000003" y="753.33"/>
      <point x="178.73000000000002" y="800.9200000000001"/>
    </contour>
  </outline>
</glyph>
<glyph name="copyright" format="2">
  <advance width="1063.08"/>
  <unicode hex="00A9"/>
  <outline>
    <contour>
      <point x="531.54" y="-15.795000000000002" type="curve" smooth="yes"/>
      <point x="807.14" y="-15.795000000000002"/>
      <point x="968.9100000000001" y="146.975"/>
      <point x="968.9100000000001" y="428.49" type="curve" smooth="yes"/>
      <point x="968.9100000000001" y="848.04" type="line" smooth="yes"/>
      <point x="968.9100000000001" y="1130.29"/>
      <point x="807.14" y="1293.7949999999998"/>
      <point x="531.54" y="1293.7949999999998" type="curve" smooth="yes"/>
      <point x="255.67499999999998" y="1293.7949999999998"/>
      <point x="94.17" y="1130.29"/>
      <point x="94.17" y="848.04" type="curve" smooth="yes"/>
      <point x="94.17" y="428.49" type="line" smooth="yes"/>
      <point x="94.17" y="146.975"/>
      <point x="255.67499999999998" y="-15.795000000000002"/>
    </contour>
    <contour>
      <point x="553.515" y="309.20500000000004" type="curve" smooth="yes"/>
      <point x="605.78" y="309.20500000000004"/>
      <point x="647.84" y="329.08500000000004"/>
      <point x="674.37" y="355.495" type="curve"/>
      <point x="679.695" y="415.105" type="line"/>
      <point x="646.55" y="384.815"/>
      <point x="610.875" y="363.935"/>
      <point x="564.26" y="363.935" type="curve" smooth="yes"/>
      <point x="478.96999999999997" y="363.935"/>
      <point x="445.5" y="424.695"/>
      <point x="445.5" y="531.6850000000001" type="curve" smooth="yes"/>
      <point x="445.5" y="747.58" type="line" smooth="yes"/>
      <point x="445.5" y="854.8349999999999"/>
      <point x="477.91" y="915.595"/>
      <point x="562.1999999999999" y="915.595" type="curve" smooth="yes"/>
      <point x="610.08" y="915.595"/>
      <point x="645.49" y="894.98"/>
      <point x="677.635" y="865.425" type="curve"/>
      <point x="671.5749999999999" y="923.77" type="line"/>
      <point x="644.7800000000001" y="949.6500000000001"/>
      <point x="603.78" y="969.795"/>
      <point x="553.72" y="969.795" type="curve" smooth="yes"/>
      <point x="435.83" y="969.795"/>
      <point x="385.59000000000003" y="888.35"/>
      <point x="385.59000000000003" y="747.0500000000001" type="curve" smooth="yes"/>
      <point x="385.59000000000003" y="530.215" type="line" smooth="yes"/>
      <point x="385.59000000000003" y="388.65"/>
      <point x="435.83" y="309.20500000000004"/>
    </contour>
    <contour>
      <point x="531.54" y="36.550000000000004" type="curve" smooth="yes"/>
      <point x="292.515" y="36.550000000000004"/>
      <point x="152.22500000000002" y="180.16500000000002"/>
      <point x="152.22500000000002" y="424.045" type="curve" smooth="yes"/>
      <point x="152.22500000000002" y="853.485" type="line" smooth="yes"/>
      <point x="152.22500000000002" y="1097.8349999999998"/>
      <point x="292.515" y="1241.45"/>
      <point x="531.54" y="1241.45" type="curve" smooth="yes"/>
      <point x="770.3" y="1241.45"/>
      <point x="910.8549999999999" y="1097.8349999999998"/>
      <point x="910.8549999999999" y="853.485" type="curve" smooth="yes"/>
      <point x="910.8549999999999" y="424.045" type="line" smooth="yes"/>
      <point x="910.8549999999999" y="180.16500000000002"/>
      <point x="770.3" y="36.550000000000004"/>
    </contour>
  </outline>
</glyph>
<glyph name="ordfeminine" format="2">
  <advance width="398.755"/>
  <unicode hex="00AA"/>
  <outline>
    <contour>
      <point x="274.94" y="639.265" type="line"/>
      <point x="333.26" y="639.265" type="line"/>
      <point x="333.26" y="1109.46" type="line" smooth="yes"/>
      <point x="333.26" y="1224.76"/>
      <point x="291.67" y="1287.795"/>
      <point x="190.95000000000002" y="1287.795" type="curve" smooth="yes"/>
      <point x="141.77" y="1287.795"/>
      <point x="95.85500000000002" y="1268.06"/>
      <point x="61.00000000000001" y="1241.59" type="curve"/>
      <point x="56.144999999999996" y="1184.98" type="line"/>
      <point x="94.73499999999999" y="1214.92"/>
      <point x="140.325" y="1236.185"/>
      <point x="184.44500000000002" y="1236.185" type="curve" smooth="yes"/>
      <point x="253.06" y="1236.185"/>
      <point x="275.735" y="1187.2199999999998"/>
      <point x="275.735" y="1109.2549999999999" type="curve"/>
      <point x="275.735" y="1027.6750000000002" type="line"/>
      <point x="275.735" y="756.1800000000001" type="line"/>
      <point x="278.735" y="755.65" type="line"/>
    </contour>
    <contour>
      <point x="165.615" y="630.0" type="curve" smooth="yes"/>
      <point x="239.82" y="630.0"/>
      <point x="271.49499999999995" y="682.29"/>
      <point x="281.29" y="751.05" type="curve"/>
      <point x="293.94000000000005" y="751.05" type="line"/>
      <point x="276.735" y="792.71" type="line"/>
      <point x="265.79499999999996" y="728.72"/>
      <point x="237.385" y="680.345"/>
      <point x="183.74499999999998" y="680.345" type="curve" smooth="yes"/>
      <point x="120.96" y="680.345"/>
      <point x="104.01999999999998" y="728.25"/>
      <point x="104.01999999999998" y="792.83" type="curve" smooth="yes"/>
      <point x="104.01999999999998" y="839.18" type="line" smooth="yes"/>
      <point x="104.01999999999998" y="905.35"/>
      <point x="123.9" y="939.1700000000001"/>
      <point x="189.80499999999998" y="962.52" type="curve" smooth="yes"/>
      <point x="292.385" y="999.075" type="line"/>
      <point x="287.0" y="1047.24" type="line"/>
      <point x="174.17999999999998" y="1007.42" type="line" smooth="yes"/>
      <point x="75.61500000000001" y="973.42"/>
      <point x="46.76" y="923.625"/>
      <point x="46.76" y="837.385" type="curve" smooth="yes"/>
      <point x="46.76" y="787.7099999999999" type="line" smooth="yes"/>
      <point x="46.76" y="685.5899999999999"/>
      <point x="83.555" y="630.0"/>
    </contour>
  </outline>
</glyph>
<glyph name="logicalnot" format="2">
  <advance width="661.54"/>
  <unicode hex="00AC"/>
  <outline>
    <contour>
      <point x="564.755" y="315.615" type="line"/>
      <point x="564.755" y="639.18" type="line"/>
      <point x="499.015" y="639.18" type="line"/>
      <point x="499.015" y="315.615" type="line"/>
    </contour>
    <contour>
      <point x="59.940000000000005" y="605.16" type="line"/>
      <point x="564.755" y="605.16" type="line"/>
      <point x="564.755" y="667.84" type="line"/>
      <point x="59.940000000000005" y="667.84" type="line"/>
    </contour>
  </outline>
</glyph>
<glyph name="registered" format="2">
  <advance width="595.02"/>
  <unicode hex="00AE"/>
  <outline>
    <contour>
      <point x="297.745" y="578.605" type="curve" smooth="yes"/>
      <point x="448.285" y="578.605"/>
      <point x="524.79" y="672.76"/>
      <point x="524.79" y="835.53" type="curve" smooth="yes"/>
      <point x="524.79" y="1032.93" type="line" smooth="yes"/>
      <point x="524.79" y="1197.17"/>
      <point x="448.285" y="1289.5900000000001"/>
      <point x="297.745" y="1289.5900000000001" type="curve" smooth="yes"/>
      <point x="147.205" y="1289.5900000000001"/>
      <point x="70.965" y="1196.905"/>
      <point x="70.965" y="1032.93" type="curve" smooth="yes"/>
      <point x="70.965" y="835.53" type="line" smooth="yes"/>
      <point x="70.965" y="672.76"/>
      <point x="147.205" y="578.605"/>
    </contour>
    <contour>
      <point x="297.745" y="619.205" type="curve" smooth="yes"/>
      <point x="172.95000000000002" y="619.205"/>
      <point x="115.68500000000002" y="692.06"/>
      <point x="115.68500000000002" y="833.94" type="curve" smooth="yes"/>
      <point x="115.68500000000002" y="1034.785" type="line" smooth="yes"/>
      <point x="115.68500000000002" y="1175.4"/>
      <point x="172.95000000000002" y="1248.99"/>
      <point x="297.745" y="1248.99" type="curve" smooth="yes"/>
      <point x="422.27500000000003" y="1248.99"/>
      <point x="480.07000000000005" y="1175.4"/>
      <point x="480.07000000000005" y="1034.785" type="curve" smooth="yes"/>
      <point x="480.07000000000005" y="833.94" type="line" smooth="yes"/>
      <point x="480.07000000000005" y="692.06"/>
      <point x="422.27500000000003" y="619.205"/>
    </contour>
    <contour>
      <point x="354.3" y="739.085" type="line"/>
      <point x="397.37" y="739.085" type="line"/>
      <point x="385.16499999999996" y="824.6999999999999" type="line" smooth="yes"/>
      <point x="375.695" y="893.11"/>
      <point x="360.695" y="919.35"/>
      <point x="318.78" y="926.555" type="curve"/>
      <point x="319.02" y="918.555" type="line"/>
      <point x="324.9" y="924.88" type="line"/>
      <point x="374.57500000000005" y="930.35"/>
      <point x="388.90000000000003" y="962.555"/>
      <point x="388.90000000000003" y="1005.88" type="curve" smooth="yes"/>
      <point x="388.90000000000003" y="1038.64" type="line" smooth="yes"/>
      <point x="388.90000000000003" y="1103.7"/>
      <point x="360.045" y="1133.555"/>
      <point x="301.01" y="1133.555" type="curve" smooth="yes"/>
      <point x="249.865" y="1133.555" type="line"/>
      <point x="249.865" y="1096.545" type="line"/>
      <point x="300.01000000000005" y="1096.545" type="line" smooth="yes"/>
      <point x="337.3" y="1096.545"/>
      <point x="346.83000000000004" y="1070.46"/>
      <point x="346.83000000000004" y="1033.725" type="curve" smooth="yes"/>
      <point x="346.83000000000004" y="1000.025" type="line" smooth="yes"/>
      <point x="346.83000000000004" y="958.3499999999999"/>
      <point x="332.155" y="938.41"/>
      <point x="294.805" y="938.145" type="curve" smooth="yes"/>
      <point x="253.335" y="937.88" type="line"/>
      <point x="253.335" y="901.135" type="line"/>
      <point x="289.33500000000004" y="901.135" type="line" smooth="yes"/>
      <point x="318.805" y="901.135"/>
      <point x="336.155" y="888.5450000000001"/>
      <point x="344.095" y="822.905" type="curve" smooth="yes"/>
    </contour>
    <contour>
      <point x="221.385" y="739.085" type="line"/>
      <point x="263.45500000000004" y="739.085" type="line"/>
      <point x="263.45500000000004" y="911.52" type="line"/>
      <point x="263.45500000000004" y="926.7" type="line"/>
      <point x="263.45500000000004" y="1133.555" type="line"/>
      <point x="221.385" y="1133.555" type="line"/>
    </contour>
  </outline>
</glyph>
<glyph name="degree" format="2">
  <advance width="480.335"/>
  <unicode hex="00B0"/>
  <outline>
    <contour>
      <point x="240.29999999999998" y="845.545" type="curve" smooth="yes"/>
      <point x="347.71999999999997" y="845.545"/>
      <point x="406.695" y="923.135"/>
      <point x="406.695" y="1061.64" type="curve" smooth="yes"/>
      <point x="406.695" y="1077.965" type="line" smooth="yes"/>
      <point x="406.695" y="1216.47"/>
      <point x="347.71999999999997" y="1294.06"/>
      <point x="240.29999999999998" y="1294.06" type="curve" smooth="yes"/>
      <point x="132.615" y="1294.06"/>
      <point x="73.64" y="1216.47"/>
      <point x="73.64" y="1077.965" type="curve" smooth="yes"/>
      <point x="73.64" y="1061.64" type="line" smooth="yes"/>
      <point x="73.64" y="923.87"/>
      <point x="132.615" y="845.545"/>
    </contour>
    <contour>
      <point x="240.29999999999998" y="899.5400000000001" type="curve" smooth="yes"/>
      <point x="169.985" y="899.5400000000001"/>
      <point x="133.55" y="957.915"/>
      <point x="133.55" y="1059.905" type="curve" smooth="yes"/>
      <point x="133.55" y="1079.6999999999998" type="line" smooth="yes"/>
      <point x="133.55" y="1181.425"/>
      <point x="169.25" y="1240.0649999999998"/>
      <point x="240.29999999999998" y="1240.0649999999998" type="curve" smooth="yes"/>
      <point x="311.35" y="1240.0649999999998"/>
      <point x="346.78499999999997" y="1181.425"/>
      <point x="346.78499999999997" y="1079.6999999999998" type="curve" smooth="yes"/>
      <point x="346.78499999999997" y="1059.905" type="line" smooth="yes"/>
      <point x="346.78499999999997" y="957.18"/>
      <point x="311.35" y="899.5400000000001"/>
    </contour>
  </outline>
</glyph>
<glyph name="plusminus" format="2">
  <advance width="664.5999999999999"/>
  <unicode hex="00B1"/>
  <outline>
    <contour>
      <point x="80.02499999999998" y="252.535" type="line"/>
      <point x="584.575" y="252.535" type="line"/>
      <point x="584.575" y="313.89" type="line"/>
      <point x="80.02499999999998" y="313.89" type="line"/>
    </contour>
    <contour>
      <point x="364.67" y="439.06" type="line"/>
      <point x="364.67" y="983.215" type="line"/>
      <point x="299.195" y="983.215" type="line"/>
      <point x="299.195" y="439.06" type="line"/>
    </contour>
    <contour>
      <point x="80.02499999999998" y="680.195" type="line"/>
      <point x="584.575" y="680.195" type="line"/>
      <point x="584.575" y="742.0799999999999" type="line"/>
      <point x="80.02499999999998" y="742.0799999999999" type="line"/>
    </contour>
  </outline>
</glyph>
<glyph name="twosuperior" format="2">
  <advance width="320.695"/>
  <unicode hex="00B2"/>
  <outline>
    <contour>
      <point x="27.940000000000005" y="700.0" type="line"/>
      <point x="286.0799999999999" y="700.0" type="line"/>
      <point x="286.0799999999999" y="750.14" type="line"/>
      <point x="62.959999999999994" y="750.14" type="line"/>
      <point x="85.64500000000001" y="736.02" type="line"/>
      <point x="85.64500000000001" y="754.405" type="line"/>
      <point x="174.115" y="913.925" type="line" smooth="yes"/>
      <point x="255.54999999999998" y="1062.0249999999999"/>
      <point x="281.60999999999996" y="1127.35"/>
      <point x="281.60999999999996" y="1213.76" type="curve" smooth="yes"/>
      <point x="281.60999999999996" y="1234.9050000000002" type="line" smooth="yes"/>
      <point x="281.60999999999996" y="1333.82"/>
      <point x="240.57500000000002" y="1391.7949999999998"/>
      <point x="149.155" y="1391.7949999999998" type="curve" smooth="yes"/>
      <point x="103.77" y="1391.7949999999998"/>
      <point x="67.65" y="1373.385"/>
      <point x="44.735" y="1356.59" type="curve"/>
      <point x="39.41" y="1301.98" type="line"/>
      <point x="68.82000000000001" y="1321.39"/>
      <point x="98.615" y="1339.86"/>
      <point x="140.61499999999998" y="1339.86" type="curve" smooth="yes"/>
      <point x="199.085" y="1339.86"/>
      <point x="223.495" y="1299.51"/>
      <point x="223.495" y="1227.8700000000001" type="curve" smooth="yes"/>
      <point x="223.495" y="1207.785" type="line" smooth="yes"/>
      <point x="223.495" y="1130.94"/>
      <point x="196.085" y="1065.915"/>
      <point x="126.12000000000003" y="935.755" type="curve" smooth="yes"/>
      <point x="27.940000000000005" y="755.67" type="line"/>
    </contour>
  </outline>
</glyph>
<glyph name="threesuperior" format="2">
  <advance width="324.75500000000005"/>
  <unicode hex="00B3"/>
  <outline>
    <contour>
      <point x="135.89000000000001" y="688.7349999999999" type="curve" smooth="yes"/>
      <point x="257.455" y="688.7349999999999"/>
      <point x="280.405" y="771.41"/>
      <point x="280.405" y="850.5649999999999" type="curve" smooth="yes"/>
      <point x="280.405" y="917.555" type="line" smooth="yes"/>
      <point x="280.405" y="998.4699999999999"/>
      <point x="250.08" y="1050.145"/>
      <point x="184.10500000000002" y="1055.47" type="curve"/>
      <point x="185.22500000000002" y="1050.8200000000002" type="line"/>
      <point x="185.96" y="1055.795" type="line"/>
      <point x="252.815" y="1065.385"/>
      <point x="276.405" y="1117.1200000000001"/>
      <point x="276.405" y="1190.4450000000002" type="curve" smooth="yes"/>
      <point x="276.405" y="1241.8200000000002" type="line" smooth="yes"/>
      <point x="276.405" y="1334.7350000000001"/>
      <point x="239.16499999999996" y="1391.7949999999998"/>
      <point x="141.33499999999998" y="1391.7949999999998" type="curve" smooth="yes"/>
      <point x="95.155" y="1391.7949999999998"/>
      <point x="58.71" y="1375.325"/>
      <point x="34.059999999999995" y="1356.325" type="curve"/>
      <point x="28.470000000000002" y="1303.305" type="line"/>
      <point x="56.735" y="1323.715"/>
      <point x="90.53" y="1341.9199999999998"/>
      <point x="130.325" y="1341.9199999999998" type="curve" smooth="yes"/>
      <point x="194.88" y="1341.9199999999998"/>
      <point x="218.82" y="1300.16"/>
      <point x="218.82" y="1233.52" type="curve" smooth="yes"/>
      <point x="218.82" y="1184.4099999999999" type="line" smooth="yes"/>
      <point x="218.82" y="1096.42"/>
      <point x="179.40999999999997" y="1078.7450000000001"/>
      <point x="129.47" y="1077.48" type="curve" smooth="yes"/>
      <point x="68.85499999999999" y="1076.215" type="line"/>
      <point x="68.85499999999999" y="1030.195" type="line"/>
      <point x="137.94" y="1028.665" type="line" smooth="yes"/>
      <point x="200.82" y="1027.135"/>
      <point x="221.29000000000002" y="984.6400000000001"/>
      <point x="221.29000000000002" y="921.4699999999999" type="curve" smooth="yes"/>
      <point x="221.29000000000002" y="856.54" type="line" smooth="yes"/>
      <point x="221.29000000000002" y="793.84"/>
      <point x="205.76" y="739.67"/>
      <point x="131.265" y="739.67" type="curve" smooth="yes"/>
      <point x="88.99999999999999" y="739.67"/>
      <point x="51.06" y="758.345"/>
      <point x="23.470000000000002" y="779.02" type="curve"/>
      <point x="29.060000000000002" y="723.1450000000001" type="line"/>
      <point x="51.65" y="706.4100000000001"/>
      <point x="84.89" y="688.7349999999999"/>
    </contour>
  </outline>
</glyph>
<glyph name="micro" format="2">
  <advance width="663.595"/>
  <unicode hex="00B5"/>
  <outline>
    <contour>
      <point x="559.425" y="992.12" type="line"/>
      <point x="486.12" y="992.12" type="line"/>
      <point x="486.12" y="168.53" type="line"/>
      <point x="489.91499999999996" y="166.145" type="line"/>
      <point x="485.12" y="0.0" type="line"/>
      <point x="559.425" y="0.0" type="line"/>
    </contour>
    <contour>
      <point x="178.475" y="254.49000000000004" type="curve" smooth="yes"/>
      <point x="178.475" y="992.12" type="line"/>
      <point x="104.17" y="992.12" type="line"/>
      <point x="104.17" y="-350.0" type="line"/>
      <point x="175.355" y="-350.0" type="line"/>
      <point x="175.355" y="-161.575" type="line"/>
      <point x="166.705" y="115.075" type="line"/>
      <point x="167.55999999999997" y="114.34000000000002" type="line"/>
      <point x="184.825" y="37.16999999999999"/>
      <point x="236.14000000000001" y="-12.735000000000001"/>
      <point x="319.78000000000003" y="-12.735000000000001" type="curve" smooth="yes"/>
      <point x="415.30000000000007" y="-12.735000000000001"/>
      <point x="470.67499999999995" y="51.724999999999994"/>
      <point x="491.675" y="173.34" type="curve"/>
      <point x="512.0949999999999" y="173.34" type="line"/>
      <point x="488.12" y="240.07" type="line"/>
      <point x="466.035" y="118.70500000000001"/>
      <point x="414.06999999999994" y="50.21"/>
      <point x="328.96000000000004" y="50.21" type="curve" smooth="yes"/>
      <point x="225.85" y="50.21"/>
      <point x="178.475" y="131.73"/>
    </contour>
  </outline>
</glyph>
<glyph name="paragraph" format="2">
  <advance width="468.775"/>
  <unicode hex="00B6"/>
  <outline>
    <contour>
      <point x="256.95" y="671.435" type="curve"/>
      <point x="302.08" y="671.435" type="line"/>
      <point x="302.815" y="1278.0" type="line"/>
      <point x="255.48" y="1278.0" type="line" smooth="yes"/>
      <point x="134.88" y="1278.0"/>
      <point x="77.69999999999999" y="1197.145"/>
      <point x="77.69999999999999" y="1066.7250000000001" type="curve" smooth="yes"/>
      <point x="77.69999999999999" y="884.445" type="line" smooth="yes"/>
      <point x="77.69999999999999" y="751.2299999999999"/>
      <point x="134.88" y="671.435"/>
    </contour>
    <contour>
      <point x="353.86999999999995" y="0.0" type="line"/>
      <point x="353.86999999999995" y="1278.0" type="line"/>
      <point x="279.36" y="1278.0" type="line"/>
      <point x="279.09499999999997" y="0.0" type="line"/>
    </contour>
  </outline>
</glyph>
<glyph name="onesuperior" format="2">
  <advance width="274.10499999999996"/>
  <unicode hex="00B9"/>
  <outline>
    <contour>
      <point x="152.29" y="700.0" type="line"/>
      <point x="208.08000000000004" y="700.0" type="line"/>
      <point x="208.08000000000004" y="1383.265" type="line"/>
      <point x="145.915" y="1383.265" type="line"/>
      <point x="16.795" y="1270.36" type="line"/>
      <point x="15.999999999999998" y="1207.57" type="line"/>
      <point x="147.23" y="1323.2350000000001" type="line"/>
      <point x="152.025" y="1323.2350000000001" type="line"/>
    </contour>
  </outline>
</glyph>
<glyph name="ordmasculine" format="2">
  <advance width="449.31"/>
  <unicode hex="00BA"/>
  <outline>
    <contour>
      <point x="224.15500000000003" y="630.0" type="curve" smooth="yes"/>
      <point x="327.9" y="630.0"/>
      <point x="379.67" y="696.9749999999999"/>
      <point x="379.67" y="822.395" type="curve" smooth="yes"/>
      <point x="379.67" y="1100.34" type="line" smooth="yes"/>
      <point x="379.67" y="1225.76"/>
      <point x="328.16499999999996" y="1291.735"/>
      <point x="224.15500000000003" y="1291.735" type="curve" smooth="yes"/>
      <point x="121.41" y="1291.735"/>
      <point x="69.64" y="1225.76"/>
      <point x="69.64" y="1100.34" type="curve" smooth="yes"/>
      <point x="69.64" y="822.395" type="line" smooth="yes"/>
      <point x="69.64" y="695.9749999999999"/>
      <point x="121.41" y="630.0"/>
    </contour>
    <contour>
      <point x="224.42000000000002" y="681.345" type="curve" smooth="yes"/>
      <point x="158.78" y="681.345"/>
      <point x="129.49" y="729.105"/>
      <point x="129.49" y="816.42" type="curve" smooth="yes"/>
      <point x="129.49" y="1105.845" type="line" smooth="yes"/>
      <point x="129.49" y="1193.6299999999999"/>
      <point x="158.78" y="1240.3899999999999"/>
      <point x="224.42000000000002" y="1240.3899999999999" type="curve" smooth="yes"/>
      <point x="289.79499999999996" y="1240.3899999999999"/>
      <point x="319.0849999999999" y="1194.365"/>
      <point x="319.0849999999999" y="1105.845" type="curve" smooth="yes"/>
      <point x="319.0849999999999" y="816.42" type="line" smooth="yes"/>
      <point x="319.0849999999999" y="728.105"/>
      <point x="289.79499999999996" y="681.345"/>
    </contour>
  </outline>
</glyph>
<glyph name="guillemetright" format="2">
  <advance width="661.73"/>
  <unicode hex="00BB"/>
  <outline>
    <contour>
      <point x="233.48499999999999" y="495.06" type="line"/>
      <point x="69.99000000000001" y="108.08500000000001" type="line"/>
      <point x="138.115" y="108.08500000000001" type="line"/>
      <point x="298.345" y="479.20500000000004" type="line"/>
      <point x="298.345" y="511.18" type="line"/>
      <point x="138.115" y="882.3" type="line"/>
      <point x="69.99000000000001" y="882.3" type="line"/>
    </contour>
    <contour>
      <point x="518.615" y="495.06" type="line"/>
      <point x="355.12" y="108.08500000000001" type="line"/>
      <point x="423.245" y="108.08500000000001" type="line"/>
      <point x="583.475" y="479.20500000000004" type="line"/>
      <point x="583.475" y="511.18" type="line"/>
      <point x="423.245" y="882.3" type="line"/>
      <point x="355.12" y="882.3" type="line"/>
    </contour>
  </outline>
</glyph>
<glyph name="questiondown" format="2">
  <advance width="466.14"/>
  <unicode hex="00BF"/>
  <outline>
    <contour>
      <point x="327.115" y="637.65" type="line"/>
      <point x="268.515" y="600.53" type="line" smooth="yes"/>
      <point x="134.47" y="513.59"/>
      <point x="81.315" y="427.55499999999995"/>
      <point x="81.315" y="233.87" type="curve" smooth="yes"/>
      <point x="81.315" y="-41.75" type="line" smooth="yes"/>
      <point x="81.315" y="-212.58"/>
      <point x="135.41000000000003" y="-301.94"/>
      <point x="270.745" y="-301.94" type="curve" smooth="yes"/>
      <point x="332.51500000000004" y="-301.94"/>
      <point x="387.69500000000005" y="-277.94"/>
      <point x="421.61000000000007" y="-253.675" type="curve"/>
      <point x="430.7900000000001" y="-184.995" type="line"/>
      <point x="387.79" y="-213.935"/>
      <point x="344.055" y="-234.875"/>
      <point x="286.64500000000004" y="-234.875" type="curve" smooth="yes"/>
      <point x="190.29500000000004" y="-234.875"/>
      <point x="154.35500000000002" y="-170.32000000000002"/>
      <point x="154.35500000000002" y="-32.86" type="curve" smooth="yes"/>
      <point x="154.35500000000002" y="236.13500000000002" type="line" smooth="yes"/>
      <point x="154.35500000000002" y="393.74"/>
      <point x="186.64499999999998" y="462.03"/>
      <point x="294.46500000000003" y="536.1400000000001" type="curve" smooth="yes"/>
      <point x="327.115" y="558.14" type="line"/>
    </contour>
    <contour>
      <point x="301.39500000000004" y="1003.505" type="curve" smooth="yes"/>
      <point x="268.53000000000003" y="1003.505"/>
      <point x="254.17" y="978.88"/>
      <point x="254.17" y="928.075" type="curve" smooth="yes"/>
      <point x="254.17" y="911.81" type="line" smooth="yes"/>
      <point x="254.17" y="862.005"/>
      <point x="268.53000000000003" y="836.645"/>
      <point x="301.39500000000004" y="836.645" type="curve" smooth="yes"/>
      <point x="335.055" y="836.645"/>
      <point x="347.88500000000005" y="862.005"/>
      <point x="347.88500000000005" y="911.81" type="curve" smooth="yes"/>
      <point x="347.88500000000005" y="928.075" type="line" smooth="yes"/>
      <point x="347.88500000000005" y="978.88"/>
      <point x="335.055" y="1003.505"/>
    </contour>
  </outline>
</glyph>
<glyph name="AE" format="2">
  <advance width="929.2799999999999"/>
  <unicode hex="00C6"/>
  <anchor x="465.14" y="0.0" name="bottom"/>
  <anchor x="465.14" y="1278.0" name="top"/>
  <outline>
    <contour>
      <point x="52.169999999999995" y="0.0" type="line"/>
      <point x="127.94500000000001" y="0.0" type="line"/>
      <point x="426.92499999999995" y="1219.56" type="line"/>
      <point x="484.04499999999996" y="1219.56" type="line"/>
      <point x="484.04499999999996" y="1278.0" type="line"/>
      <point x="370.63" y="1278.0" type="line"/>
    </contour>
    <contour>
      <point x="204.095" y="423.115" type="line"/>
      <point x="500.43" y="423.115" type="line"/>
      <point x="500.43" y="487.385" type="line"/>
      <point x="204.095" y="487.385" type="line"/>
    </contour>
    <contour>
      <point x="508.30499999999995" y="0.0" type="line"/>
      <point x="865.1349999999999" y="0.0" type="line"/>
      <point x="865.1349999999999" y="67.595" type="line"/>
      <point x="508.30499999999995" y="67.595" type="line"/>
    </contour>
    <contour>
      <point x="477.01000000000005" y="0.0" type="line"/>
      <point x="551.785" y="0.0" type="line"/>
      <point x="551.785" y="1278.0" type="line"/>
      <point x="477.01000000000005" y="1278.0" type="line"/>
    </contour>
    <contour>
      <point x="520.45" y="623.245" type="line"/>
      <point x="860.075" y="623.245" type="line"/>
      <point x="860.075" y="689.8399999999999" type="line"/>
      <point x="520.45" y="689.8399999999999" type="line"/>
    </contour>
    <contour>
      <point x="504.8349999999999" y="1210.405" type="line"/>
      <point x="865.135" y="1210.405" type="line"/>
      <point x="865.135" y="1278.0" type="line"/>
      <point x="504.8349999999999" y="1278.0" type="line"/>
    </contour>
  </outline>
</glyph>
<glyph name="Eth" format="2">
  <advance width="697.8599999999999"/>
  <unicode hex="00D0"/>
  <anchor x="338.165" y="0.0" name="bottom"/>
  <anchor x="349.9599999999999" y="639.0" name="center"/>
  <anchor x="338.165" y="1278.0" name="top"/>
  <outline>
    <contour>
      <point x="19.35" y="631.63" type="line"/>
      <point x="369.105" y="631.63" type="line"/>
      <point x="369.105" y="692.66" type="line"/>
      <point x="19.35" y="692.66" type="line"/>
    </contour>
    <component base="D"/>
  </outline>
</glyph>
<glyph name="multiply" format="2">
  <advance width="607.575"/>
  <unicode hex="00D7"/>
  <outline>
    <contour>
      <point x="540.465" y="396.54" type="line"/>
      <point x="122.66" y="914.4799999999999" type="line"/>
      <point x="75.785" y="877.99" type="line"/>
      <point x="492.85499999999996" y="359.04999999999995" type="line"/>
    </contour>
    <contour>
      <point x="67.11" y="396.54" type="line"/>
      <point x="114.72000000000001" y="359.04999999999995" type="line"/>
      <point x="531.79" y="877.99" type="line"/>
      <point x="484.91499999999996" y="914.4799999999999" type="line"/>
    </contour>
  </outline>
</glyph>
<glyph name="Oslash" format="2">
  <advance width="697.1249999999999"/>
  <unicode hex="00D8"/>
  <anchor x="348.43" y="0.0" name="bottom"/>
  <anchor x="348.43" y="639.0" name="center"/>
  <anchor x="627.6800000000001" y="10.0" name="ogonek"/>
  <anchor x="348.43" y="1278.0" name="top"/>
  <anchor x="20.0" y="1278.0" name="topleft"/>
  <anchor x="676.8599999999999" y="1278.0" name="topright"/>
  <outline>
    <contour>
      <point x="348.96000000000004" y="-16.060000000000002" type="curve" smooth="yes"/>
      <point x="516.8000000000001" y="-16.060000000000002"/>
      <point x="602.955" y="94.035"/>
      <point x="602.955" y="309.02" type="curve" smooth="yes"/>
      <point x="602.955" y="966.715" type="line" smooth="yes"/>
      <point x="602.955" y="1179.905"/>
      <point x="513.4150000000001" y="1294.06"/>
      <point x="347.90000000000003" y="1294.06" type="curve" smooth="yes"/>
      <point x="179.32500000000002" y="1294.06"/>
      <point x="94.17" y="1181.9650000000001"/>
      <point x="94.17" y="967.245" type="curve" smooth="yes"/>
      <point x="94.17" y="309.55" type="line" smooth="yes"/>
      <point x="94.17" y="96.36000000000001"/>
      <point x="182.70999999999998" y="-16.060000000000002"/>
    </contour>
    <contour>
      <point x="143.375" y="-83.145" type="line"/>
      <point x="204.815" y="-83.145" type="line"/>
      <point x="237.70499999999998" y="43.36999999999999" type="line"/>
      <point x="241.97" y="62.285" type="line"/>
      <point x="503.44" y="1177.765" type="line"/>
      <point x="514.8000000000001" y="1210.6299999999999" type="line"/>
      <point x="553.75" y="1360.41" type="line"/>
      <point x="492.04499999999996" y="1360.41" type="line"/>
      <point x="462.92500000000007" y="1242.88" type="line"/>
      <point x="457.33500000000004" y="1217.075" type="line"/>
      <point x="196.805" y="105.76500000000001" type="line"/>
      <point x="183.915" y="72.14" type="line"/>
    </contour>
    <contour>
      <point x="348.43" y="50.415" type="curve" smooth="yes"/>
      <point x="226.645" y="50.415"/>
      <point x="168.94500000000002" y="140.055"/>
      <point x="168.94500000000002" y="289.205" type="curve" smooth="yes"/>
      <point x="168.94500000000002" y="972.16" type="line" smooth="yes"/>
      <point x="168.94500000000002" y="1138.945"/>
      <point x="225.38" y="1227.585"/>
      <point x="348.43" y="1227.585" type="curve" smooth="yes"/>
      <point x="470.48" y="1227.585"/>
      <point x="528.18" y="1138.21"/>
      <point x="528.18" y="988.0600000000001" type="curve" smooth="yes"/>
      <point x="528.18" y="305.10499999999996" type="line" smooth="yes"/>
      <point x="528.18" y="139.055"/>
      <point x="471.48" y="50.415"/>
    </contour>
  </outline>
</glyph>
<glyph name="Thorn" format="2">
  <advance width="634.51"/>
  <unicode hex="00DE"/>
  <anchor x="318.02000000000004" y="0.0" name="bottom"/>
  <anchor x="318.02000000000004" y="1278.0" name="top"/>
  <outline>
    <contour>
      <point x="150.285" y="230.04999999999998" type="line"/>
      <point x="322.48999999999995" y="230.04999999999998" type="line" smooth="yes"/>
      <point x="487.18499999999995" y="230.04999999999998"/>
      <point x="566.015" y="338.435"/>
      <point x="566.015" y="518.745" type="curve" smooth="yes"/>
      <point x="566.015" y="763.375" type="line" smooth="yes"/>
      <point x="566.015" y="941.095"/>
      <point x="487.18499999999995" y="1050.0700000000002"/>
      <point x="323.695" y="1050.0700000000002" type="curve" smooth="yes"/>
      <point x="156.22500000000002" y="1050.0700000000002" type="line"/>
      <point x="156.22500000000002" y="983.8000000000001" type="line"/>
      <point x="320.37" y="983.8000000000001" type="line" smooth="yes"/>
      <point x="436.74499999999995" y="983.8000000000001"/>
      <point x="490.44500000000005" y="900.955"/>
      <point x="490.44500000000005" y="760.845" type="curve" smooth="yes"/>
      <point x="490.44500000000005" y="521.01" type="line" smooth="yes"/>
      <point x="490.44500000000005" y="379.9"/>
      <point x="436.74499999999995" y="296.32000000000005"/>
      <point x="318.635" y="296.32000000000005" type="curve" smooth="yes"/>
      <point x="150.285" y="296.32000000000005" type="line"/>
    </contour>
    <contour>
      <point x="114.90499999999999" y="0.0" type="line"/>
      <point x="190.21000000000004" y="0.0" type="line"/>
      <point x="190.21000000000004" y="254.325" type="line"/>
      <point x="189.94500000000002" y="273.865" type="line"/>
      <point x="189.94500000000002" y="1007.4" type="line"/>
      <point x="190.21000000000004" y="1037.625" type="line"/>
      <point x="190.21000000000004" y="1278.0" type="line"/>
      <point x="114.90499999999999" y="1278.0" type="line"/>
    </contour>
  </outline>
</glyph>
<glyph name="germandbls" format="2">
  <advance width="723.28"/>
  <unicode hex="00DF"/>
  <anchor x="344.14000000000004" y="0.0" name="bottom"/>
  <anchor x="344.14000000000004" y="992.12" name="top"/>
  <outline>
    <contour>
      <point x="104.17" y="1081.425" type="curve" smooth="yes"/>
      <point x="104.17" y="0.0" type="line"/>
      <point x="176.14999999999998" y="0.0" type="line"/>
      <point x="176.14999999999998" y="1078.3049999999998" type="line" smooth="yes"/>
      <point x="176.14999999999998" y="1214.475"/>
      <point x="221.76500000000001" y="1288.175"/>
      <point x="355.635" y="1288.175" type="curve" smooth="yes"/>
      <point x="493.38500000000005" y="1288.175"/>
      <point x="528.855" y="1212.655"/>
      <point x="528.855" y="1131.22" type="curve" smooth="yes"/>
      <point x="528.855" y="976.2049999999999"/>
      <point x="320.04499999999996" y="899.555"/>
      <point x="320.04499999999996" y="704.9150000000001" type="curve" smooth="yes"/>
      <point x="320.04499999999996" y="696.9150000000001" type="line" smooth="yes"/>
      <point x="320.04499999999996" y="587.53"/>
      <point x="357.575" y="537.325"/>
      <point x="466.78" y="468.88" type="curve" smooth="yes"/>
      <point x="580.685" y="398.145"/>
      <point x="584.6" y="331.83"/>
      <point x="584.6" y="248.66" type="curve" smooth="yes"/>
      <point x="584.6" y="211.225" type="line" smooth="yes"/>
      <point x="584.6" y="111.03"/>
      <point x="540.31" y="53.005"/>
      <point x="452.2850000000001" y="53.005" type="curve" smooth="yes"/>
      <point x="401.755" y="53.005"/>
      <point x="358.43" y="72.27"/>
      <point x="315.165" y="102.21" type="curve"/>
      <point x="321.755" y="26.675" type="line"/>
      <point x="351.40500000000003" y="6.9399999999999995"/>
      <point x="399.19999999999993" y="-13.795"/>
      <point x="460.295" y="-13.795" type="curve" smooth="yes"/>
      <point x="584.4250000000001" y="-13.795"/>
      <point x="656.845" y="67.03500000000001"/>
      <point x="656.845" y="209.37" type="curve" smooth="yes"/>
      <point x="656.845" y="250.395" type="line" smooth="yes"/>
      <point x="656.845" y="377.985"/>
      <point x="625.87" y="446.395"/>
      <point x="514.5799999999999" y="516.985" type="curve" smooth="yes"/>
      <point x="422.88" y="574.72"/>
      <point x="391.29" y="613.865"/>
      <point x="391.29" y="698.3" type="curve" smooth="yes"/>
      <point x="391.29" y="707.565" type="line" smooth="yes"/>
      <point x="391.29" y="874.605"/>
      <point x="601.895" y="954.605"/>
      <point x="601.895" y="1134.135" type="curve"/>
      <point x="601.895" y="1255.7350000000001"/>
      <point x="535.5600000000001" y="1350.06"/>
      <point x="356.695" y="1350.06" type="curve" smooth="yes"/>
      <point x="180.06" y="1350.06"/>
      <point x="104.17" y="1258.085"/>
    </contour>
  </outline>
</glyph>
<glyph name="ae" format="2">
  <advance width="922.255"/>
  <unicode hex="00E6"/>
  <anchor x="459.93499999999995" y="0.0" name="bottom"/>
  <anchor x="459.93499999999995" y="992.12" name="top"/>
  <outline>
    <contour>
      <point x="660.595" y="-13.264999999999999" type="curve" smooth="yes"/>
      <point x="735.8349999999999" y="-13.264999999999999"/>
      <point x="797.6050000000001" y="14.41"/>
      <point x="839.315" y="46.88" type="curve"/>
      <point x="846.1700000000001" y="120.03" type="line"/>
      <point x="797.3149999999999" y="81.88499999999999"/>
      <point x="739.9299999999998" y="52.74"/>
      <point x="671.34" y="52.74" type="curve" smooth="yes"/>
      <point x="556.485" y="52.74"/>
      <point x="491.28" y="124.96999999999998"/>
      <point x="491.28" y="271.60999999999996" type="curve" smooth="yes"/>
      <point x="491.28" y="469.0" type="line"/>
      <point x="491.28" y="485.035" type="line"/>
      <point x="491.28" y="738.135" type="line" smooth="yes"/>
      <point x="491.28" y="872.655"/>
      <point x="537.715" y="943.765"/>
      <point x="637.7650000000001" y="943.765" type="curve" smooth="yes"/>
      <point x="738.02" y="943.765"/>
      <point x="784.25" y="872.655"/>
      <point x="784.25" y="738.135" type="curve" smooth="yes"/>
      <point x="784.25" y="644.965"/>
      <point x="784.2500000000001" y="558.11"/>
      <point x="784.2500000000001" y="448.605" type="curve"/>
      <point x="850.1099999999999" y="448.605" type="line"/>
      <point x="855.1700000000001" y="505.60499999999996"/>
      <point x="855.7" y="550.255"/>
      <point x="855.7" y="601.58" type="curve" smooth="yes"/>
      <point x="855.7" y="732.835" type="line" smooth="yes"/>
      <point x="855.7" y="909.76"/>
      <point x="785.1949999999999" y="1006.18"/>
      <point x="643.8000000000001" y="1006.18" type="curve" smooth="yes"/>
      <point x="540.825" y="1006.18"/>
      <point x="475.64500000000004" y="949.71"/>
      <point x="452.26" y="845.24" type="curve"/>
      <point x="454.815" y="845.24" type="line"/>
      <point x="433.165" y="951.18"/>
      <point x="375.57499999999993" y="1005.915"/>
      <point x="274.13" y="1005.915" type="curve" smooth="yes"/>
      <point x="198.01" y="1005.915"/>
      <point x="128.505" y="972.1800000000001"/>
      <point x="80.915" y="933.71" type="curve"/>
      <point x="74.06" y="860.765" type="line"/>
      <point x="132.12" y="906.115"/>
      <point x="201.035" y="939.91"/>
      <point x="270.685" y="939.91" type="curve" smooth="yes"/>
      <point x="372.83000000000004" y="939.91"/>
      <point x="418.50500000000005" y="872.62"/>
      <point x="418.50500000000005" y="734.655" type="curve"/>
      <point x="418.50499999999994" y="582.0150000000001" type="line"/>
      <point x="418.505" y="469.715"/>
      <point x="418.50499999999994" y="365.63"/>
      <point x="419.29999999999995" y="255.98" type="curve"/>
      <point x="423.00999999999993" y="238.28" type="line"/>
      <point x="432.55" y="74.96499999999999"/>
      <point x="516.44" y="-13.264999999999999"/>
    </contour>
    <contour>
      <point x="246.975" y="-13.265000000000002" type="curve" smooth="yes"/>
      <point x="360.625" y="-13.265000000000002"/>
      <point x="413.155" y="64.17"/>
      <point x="435.00999999999993" y="170.51999999999998" type="curve"/>
      <point x="448.455" y="170.51999999999998" type="line"/>
      <point x="422.36" y="232.42" type="line"/>
      <point x="403.41999999999996" y="125.67000000000002"/>
      <point x="356.6" y="49.68"/>
      <point x="266.55" y="49.68" type="curve" smooth="yes"/>
      <point x="169.56" y="49.68"/>
      <point x="132.8" y="119.585"/>
      <point x="132.8" y="243.455" type="curve" smooth="yes"/>
      <point x="132.8" y="308.71000000000004" type="line" smooth="yes"/>
      <point x="132.8" y="413.23"/>
      <point x="167.945" y="466.52000000000004"/>
      <point x="274.08" y="502.015" type="curve" smooth="yes"/>
      <point x="442.805" y="558.51" type="line"/>
      <point x="435.83000000000004" y="620.805" type="line"/>
      <point x="256.07" y="559.7800000000001" type="line" smooth="yes"/>
      <point x="107.44500000000001" y="509.78000000000003"/>
      <point x="60.025" y="438.925"/>
      <point x="60.025" y="306.325" type="curve" smooth="yes"/>
      <point x="60.025" y="234.82999999999998" type="line" smooth="yes"/>
      <point x="60.025" y="73.855"/>
      <point x="116.88" y="-13.265000000000002"/>
    </contour>
    <contour>
      <point x="456.97" y="448.605" type="line"/>
      <point x="826.835" y="448.605" type="line"/>
      <point x="826.835" y="509.42999999999995" type="line"/>
      <point x="456.97" y="509.42999999999995" type="line"/>
    </contour>
  </outline>
</glyph>
